<svg width="1107" height="1247" viewBox="0 0 1107 1247" fill="none" xmlns="http://www.w3.org/2000/svg">
<path d="M1084.67 634.254C1083.65 637.088 1082.66 639.921 1081.64 642.819C1099.47 655.892 1101.8 666.84 1088.9 677.691C1100.47 694.016 1096.84 718.519 1080.24 736.1C1097.93 745.309 1098.8 749.237 1091.06 771.229C1089.01 777.024 1083.33 785.879 1093.48 790.612C1094.19 790.934 1093.62 795.378 1093.78 797.857C1095.49 823.166 1097.21 848.442 1098.78 871.335C1094.97 877.034 1091.98 881.478 1089.37 885.406C1092.07 891.427 1094.92 897.77 1098.41 905.498C1094.69 905.981 1091.96 906.335 1088.65 906.786C1082.68 913.29 1095.22 924.785 1085.59 931.354C1085.56 931.386 1087.3 936.377 1087.68 936.248C1090.1 935.508 1092.37 933.994 1095.4 932.352C1096.09 934.381 1098.33 937.761 1097.73 939.79C1093.6 953.797 1093.94 967.803 1096.32 982.035C1096.54 983.355 1096.34 984.901 1096.02 986.253C1090.17 1010.14 1090.17 1010.14 1098.03 1027.21C1093.14 1025.92 1088.35 1024.67 1083.57 1023.41C1083.16 1024.7 1082.73 1025.95 1082.32 1027.24C1088.64 1031.4 1094.95 1035.55 1101.43 1039.8C1096.98 1041.38 1092.41 1042.96 1087.85 1044.57C1088.12 1045.98 1088.41 1047.43 1088.67 1048.85C1090.5 1048.85 1092.32 1048.85 1093.87 1048.85C1096.96 1055.38 1081.84 1053.74 1090.36 1062.56C1089.51 1065.78 1088.65 1069 1087.8 1072.22C1085.17 1079.24 1082.53 1086.23 1081.18 1089.84C1085.79 1099.43 1089.99 1106.19 1092.11 1113.86C1092.76 1116.24 1087.76 1121.1 1084.19 1126.64C1085.31 1128.44 1088.07 1132.82 1091.09 1137.62C1087.11 1147.96 1082.14 1158.29 1079.28 1169.46C1078.1 1174.04 1082.73 1180.51 1082.55 1186.02C1082.18 1197.77 1080.42 1209.42 1078.8 1225.1C1072.05 1221.69 1067.3 1218.25 1062.23 1217.15C1059.53 1216.57 1055.95 1219.44 1053.3 1221.72C1049.29 1225.17 1045.73 1229.45 1042 1233.38C1041.32 1232.16 1040.65 1230.93 1039.97 1229.74C1042.76 1225.36 1045.56 1220.98 1049.9 1214.16C1043.14 1216.77 1039.9 1217.99 1036.66 1219.24C1037.51 1215.9 1039.01 1212.58 1039.08 1209.23C1039.22 1202.69 1038.56 1196.09 1038.23 1189.52C1037.12 1189.36 1036.04 1189.2 1034.93 1189.07C1034.03 1195.06 1033.12 1201.05 1032.48 1205.14C1018.62 1200.63 1004.93 1196.22 991.267 1191.78C990.769 1194.42 990.288 1197.09 989.79 1199.73C995.271 1201.15 1000.82 1202.28 1006.21 1204.08C1008.47 1204.82 1010.41 1207.04 1012.5 1208.59C1010.13 1210.04 1007.55 1213.09 1005.45 1212.64C997.406 1210.87 989.523 1207.62 982.957 1217.18C982.37 1218.02 980.484 1217.92 979.309 1217.6C972.459 1215.73 965.644 1213.67 958.437 1211.55C957.209 1217.51 956.302 1221.88 955.056 1227.84C951.284 1225.2 948.366 1223.17 948.099 1222.98C941.711 1230.03 936.088 1236.21 930.465 1242.43C930.269 1240.37 930.073 1238.34 929.86 1236.28C925.874 1233.15 922.137 1229.07 917.813 1227.13C911.656 1224.36 904.859 1221.08 898.684 1221.95C893.061 1222.75 888.204 1228.84 881.406 1225.27C877.225 1223.08 872.26 1223.24 865.552 1221.92C863.79 1222.72 858.665 1227.52 854.662 1226.36C841.903 1222.63 829.875 1239.53 817.152 1227.81C816.671 1227.36 814.696 1230.22 813.29 1230.51C807.205 1231.77 800.283 1235.38 795.14 1233.03C785.194 1228.52 776.759 1224.69 767.15 1234.38C761.776 1239.79 740.032 1227.62 737.915 1218.83C736.242 1211.9 735.477 1204.63 734.32 1197.54C735.584 1196.9 736.865 1196.25 738.128 1195.61C735.797 1194.9 733.199 1194.81 731.224 1193.36C729.302 1191.94 728.021 1189.14 725.085 1184.98C723.466 1196.13 722.131 1205.3 720.779 1214.64C714.159 1217.18 707.131 1219.73 700.245 1222.75C699.586 1223.04 699.764 1226.36 699.39 1229.74C688.571 1216.99 676.845 1219.63 664.478 1224.3C654.531 1228.03 644.104 1229.77 634.175 1232.35C632.164 1227.87 629.424 1221.76 626.684 1215.67C625.367 1216.6 624.032 1217.57 622.716 1218.5C623.819 1222.5 624.94 1226.52 626.915 1233.67C619.263 1228.68 613.712 1225.33 608.373 1221.5C593.747 1211 579.529 1214.09 565.579 1223.46C558.941 1227.94 553.408 1229.97 547.874 1220.6C539.119 1205.75 538.798 1206.08 529.937 1222.11C527.909 1220.44 525.916 1218.63 523.816 1217.09C522.036 1215.77 520.133 1214.7 518.229 1213.48C524.047 1211.16 529.492 1208.97 535.151 1206.72C527.606 1190.97 524.314 1190.97 515.844 1206.69C511.307 1200.31 507.819 1183.73 498.495 1204.82C498.228 1199.02 498.086 1195.87 497.925 1192.65C486.751 1192.39 486.751 1192.39 480.701 1223.95C480.131 1218.25 479.58 1212.55 479.01 1206.78C465.629 1214.41 463.796 1194 454.935 1186.47C448.618 1210.2 436.589 1200.38 428.457 1196.77C420.699 1202.69 414.809 1206.98 409.133 1211.68C407.745 1212.84 407.282 1215.64 405.983 1217.12C403.225 1220.27 400.449 1223.66 397.193 1225.75C395.325 1226.94 392.478 1225.75 390.075 1225.65C391.285 1228.87 392.495 1232.09 394.488 1237.4C383.776 1232.64 373.42 1230.16 364.914 1223.82C351.516 1213.8 339.38 1216.54 326.675 1224.62C322.938 1220.11 319.611 1215.12 315.536 1211.42C307.44 1204.01 307.048 1198.6 315.892 1190.94C318.436 1188.75 317.102 1179.54 317.529 1173.81C300.037 1168.79 295.197 1174.01 295.731 1194.1C295.838 1197.8 291.265 1204.88 288.756 1204.95C278.898 1205.27 280.891 1211.77 281.798 1219.6C282.314 1224.04 280.428 1228.9 279.61 1233.61C277.047 1232.64 274.36 1230.61 271.976 1231.06C269.627 1231.51 267.581 1234.54 265.41 1236.44C254.217 1246.2 242.189 1243.62 230.605 1228.49C224.341 1220.31 218.505 1211.61 209.839 1203.95C210.729 1213.8 211.618 1223.69 212.775 1236.47C206.956 1238.89 197.436 1242.88 187.507 1247C182.56 1235.86 182.685 1218.21 167.026 1224.46C165.318 1229.26 163.503 1234.35 161.439 1240.17C152.72 1237.66 144.446 1235.31 136.189 1232.93C136.527 1231.09 136.883 1229.23 137.221 1227.39C142.292 1228.42 147.346 1229.45 153.271 1230.64C147.987 1218.15 129.552 1232 130.584 1209.55C140.086 1204.95 147.844 1204.59 148.342 1225.3C149.624 1224.2 150.887 1223.14 152.168 1222.05C154.642 1212.06 157.115 1202.11 159.82 1191.26C152.791 1189.3 145.78 1184.47 137.399 1196.06C131.58 1204.11 121.883 1200.96 117.416 1183.57C110.388 1203.85 96.6861 1209.84 82.7355 1215.45C83.4829 1216.73 84.248 1217.99 84.9954 1219.28C80.5291 1217.83 76.045 1216.35 70.4932 1214.54C74.5325 1206.3 78.0913 1199.02 83.7854 1187.4C73.6961 1188.95 66.8098 1190.01 57.9306 1191.36C54.87 1185.44 49.7808 1181.44 41.3109 1189.49C38.0367 1192.62 29.1397 1197.8 27.645 1183.6C27.4492 1181.67 22.6982 1180.48 19.1572 1178.42C24.2463 1175 28.7126 1172.04 35.3142 1167.63C30.4031 1166.41 27.5382 1165.7 28.1254 1165.86C27.0578 1159.29 26.1147 1154.56 25.5809 1149.73C25.2606 1146.7 25.4207 1143.58 25.652 1140.52C26.0435 1135.43 26.6663 1130.41 27.0934 1126.41C29.1041 1127.06 32.5384 1128.15 34.3534 1128.73C32.5739 1114.76 31.0081 1102.59 29.4778 1090.48C28.9262 1090.61 25.225 1092.67 24.1929 1091.38C16.9863 1082.37 9.69072 1073.19 3.88984 1062.79C2.23499 1059.83 3.99661 1050.01 6.59455 1047.85C13.5165 1042.09 11.6125 1039.99 5.74043 1036.64C4.76175 1036.1 4.28131 1032.62 4.49484 1030.69C4.72617 1028.72 6.11411 1026.95 6.18528 1026.82C13.819 1018.03 20.901 1009.89 27.9653 1001.74C20.5629 994.142 13.1428 986.543 5.74043 978.912C4.67278 979.717 3.62293 980.522 2.55528 981.327C3.83646 974.339 5.11764 967.352 6.50558 959.786C11.31 961.041 15.1891 963.424 18.6056 962.619C22.1822 961.782 26.7553 958.787 28.1966 955.085C29.7269 951.188 28.2856 945.328 27.7339 940.37C27.2357 935.991 17.8582 931.579 27.9297 927.458C26.4172 921.887 25.6876 915.641 23.2142 910.843C18.0362 900.829 16.6482 879.642 22.9651 871.335C33.0188 858.134 26.8087 849.987 18.392 842.099C27.4314 827.641 24.4065 812.057 12.0929 805.456C6.75469 802.59 -0.772213 802.397 0.0641099 790.355C0.811462 779.439 6.61234 779.89 12.52 778.731C15.634 778.119 18.5522 776.026 22.0932 774.384C19.9757 772.645 18.3742 771.325 18.7479 771.647C19.7622 767.011 20.5451 763.404 21.8441 757.351C22.7694 757.158 26.2392 756.514 30.1362 755.741C20.0647 742.378 14.5307 727.406 13.7122 709.858C19.7266 707.571 24.0506 698.427 25.6342 689.057C26.7553 682.424 30.8123 676.21 34.4245 670.704C44.3536 655.635 41.0795 640.469 34.1754 626.301C29.6735 617.092 26.7553 609.107 31.1148 598.675C31.7376 597.193 28.9973 593.523 28.072 591.398C32.7697 584.732 37.5741 577.939 42.2717 571.273C43.9088 577.295 45.5992 583.509 48.215 593.136C52.3076 586.922 57.2722 580.643 56.7917 579.935C52.2186 572.916 46.7381 566.798 43.0369 562.322C45.0298 557.621 46.7559 551.6 49.8342 546.995C51.7204 544.162 55.6707 543.486 60.7776 540.717C50.8129 538.237 42.1472 536.08 33.4992 533.923C33.3747 532.86 33.2501 531.83 33.1256 530.767C37.752 530.284 42.3785 529.801 48.7844 529.093C45.012 520.206 40.9728 510.739 38.4282 504.718C45.8128 492.515 52.2898 481.857 60.3328 468.559C52.8948 467.754 49.2292 467.367 46.1686 467.045C44.5138 474.548 43.1259 481.213 41.471 487.782C41.2575 488.619 39.3891 489.585 38.6951 489.23C37.5563 488.651 35.9192 487.041 35.9192 485.882C35.9014 479.474 36.9691 473.002 36.4353 466.691C35.4032 454.262 33.5882 441.93 32.1113 429.534C30.8123 429.212 29.4956 428.89 28.1966 428.568C26.951 431.852 25.7232 435.104 24.3175 438.807C9.63734 414.046 9.63734 414.046 26.346 398.751C23.499 390.541 19.6554 383.425 18.9259 375.858C18.4632 371.06 22.627 365.522 25.4919 358.471C24.1929 357.44 21.1857 354.993 17.9294 352.353C21.0078 347.652 24.1751 342.661 27.5026 337.831C30.8123 333.034 34.2644 328.397 39.3357 321.345C33.2145 320.347 29.371 321.023 27.0044 318.995C24.531 316.87 21.6662 309.432 22.0754 309.013C28.8906 301.865 22.5025 297.099 20.3672 291.883C13.8545 276.041 16.061 266.382 28.6592 257.269C31.9689 254.887 35.8836 253.502 38.7663 250.54C41.5778 247.642 43.4284 243.295 45.9551 239.174C37.7342 226.584 30.9369 235.374 22.6448 241.878C18.9081 230.609 15.0645 219.017 11.6303 208.617C17.449 206.299 21.9153 205.365 25.4919 202.596C26.4884 201.823 24.8691 195.737 24.3887 191.584C25.4563 191.229 27.8585 190.457 32.0579 189.072C26.8265 186.174 23.0185 184.081 18.392 181.505C20.5451 171.942 22.7338 162.186 25.4563 150.144C21.3103 146.248 19.1928 138.906 26.1147 129.311C29.2109 125.028 30.9369 119.877 23.9972 114.95C21.2747 113.018 22.8406 101.62 22.4669 94.4394C29.0863 95.9528 33.0722 96.8544 36.7022 97.6593C33.4103 89.3842 30.1362 83.685 29.1219 77.4384C28.7126 74.8947 33.0188 68.6159 35.4388 68.3905C42.4141 67.7143 51.6848 57.6039 55.7597 76.4725C57.5213 72.1256 58.1441 69.7429 59.3185 67.8753C61.2047 64.8808 63.4645 62.2083 65.5642 59.407C61.6317 56.2515 57.9839 52.1623 53.6956 50.1981C49.4961 48.2984 44.6561 48.556 40.261 47.912C39.0688 39.7013 37.9656 32.1345 36.72 23.5696C39.14 23.8916 41.6489 24.2136 46.9872 24.8898C42.9123 20.2531 40.777 17.8382 38.2147 14.9403C43.197 11.3984 47.8591 8.08193 54.2828 3.50968C51.9161 9.49868 48.9979 15.0047 49.6029 15.6809C52.877 19.4482 57.0053 24.3424 60.8488 24.3424C64.7991 24.3424 68.7494 19.1262 75.4577 14.1675C77.5752 15.7775 82.6466 19.6091 89.7464 24.9542C91.1522 17.7416 92.6824 9.94947 93.5544 5.47382C101.686 5.9568 109.658 6.14999 117.594 6.98717C120.619 7.30916 124.285 7.98533 126.402 10.2715C131.829 16.1639 136.563 23.0866 144.018 32.7463C143.538 23.1188 143.324 18.6432 143.147 15.0369C151.563 16.2605 159.713 19.7379 166.991 17.8704C174.34 16.0029 180.817 8.8547 188.931 3.1233C191.208 9.78847 193.219 15.6487 195.426 22.0885C199.963 10.1427 206.244 4.37905 217.099 13.5557C219.537 15.6165 225.035 11.9458 228.736 11.012C230.053 13.8133 231.405 16.7434 232.775 19.6735C233.879 17.0654 234.555 13.8455 236.21 12.0102C238.95 8.9513 242.366 4.60445 245.445 4.66884C260.303 4.92644 275.143 6.43979 292.065 7.66334C291.621 15.9707 292.439 24.0848 290.571 31.072C285.624 49.5219 287.386 66.6196 294.076 83.6528C297.19 91.5737 300.589 95.4054 308.098 91.3484C312.404 89.03 317.582 89.2876 325.269 87.8387C323.757 81.8819 321.942 74.7337 320.109 67.5533C319.041 67.9397 317.974 68.2939 316.888 68.6803C318.116 64.43 319.344 60.1798 320.803 55.189C326.39 57.9581 332.031 60.7916 335.857 62.6591C337.939 46.2377 339.344 30.9754 342.12 16.1317C342.814 12.4288 347.868 10.0139 350.928 6.98717C352.476 10.3037 354.007 13.5879 356.213 18.289C362.886 15.1335 369.861 -3.70288 380.217 13.9099C398.794 2.15733 415.77 -1.51335 439.774 13.3948C446.394 2.09293 459.063 -0.450784 469.668 6.15C474.313 9.0479 479.9 9.53088 485.47 11.2374C487.018 15.8419 489.366 22.7646 490.488 26.0811C496.68 23.4086 499.829 22.0241 502.979 20.6717C503.993 24.9864 505.008 29.301 506.075 33.8089C515.061 28.3673 522.125 22.9578 529.812 19.9633C533.282 18.611 537.962 22.1851 542.09 23.5374C540.436 27.8843 538.781 32.2633 536.877 37.2864C540.88 39.1861 546.219 41.6976 553.514 45.1429C555.205 39.9911 557.198 33.8733 559.44 26.9827C563.319 26.6285 567.536 26.2099 571.735 25.8235C568.355 14.4573 572.483 14.6827 578.675 18.4178C580.828 19.7057 582.786 21.5411 583.818 18.772C589.458 14.8759 595.224 7.53455 600.74 7.79214C616.025 8.53272 631.203 12.461 646.684 15.1657C647.485 11.817 648.197 8.79031 648.339 8.14633C655.599 8.14633 661.934 8.14633 668.251 8.14633C668.589 9.27329 668.927 10.4003 669.283 11.5272C663.767 15.0047 658.233 18.4822 651.346 22.8612C673.429 23.3764 694.123 28.0131 713.999 13.0406C728.252 2.28612 738.306 5.66701 749.552 19.8667C742.755 23.5374 733.359 26.4031 745.442 39.2827C749.623 33.1005 753.645 27.1437 757.755 21.0581C764.641 31.6837 764.641 27.4335 774.82 25.9845C783.129 24.7932 789.393 21.7987 796.19 17.3552C797.294 16.6468 800.176 18.9652 801.653 20.6717C806.902 26.7251 811.885 33.1327 818.896 41.7942C820.372 33.1971 821.049 29.301 821.671 25.6303C816.689 22.8612 811.796 20.1565 805.07 16.4215C825.23 13.2982 843.078 10.529 862.651 7.50235C861.21 11.7526 858.879 18.6432 855.801 27.6911C860.018 25.1796 862.758 23.5374 866.157 21.5089C865.925 27.2081 865.73 32.2311 865.534 37.4474C879.769 35.29 880.872 31.5549 872.865 15.1657C890.784 -1.86754 898.382 -2.12513 916.763 13.6845C919.824 9.62748 922.884 5.53822 927.03 0C929.433 5.18403 931.176 8.9835 933.33 13.6201C937.493 10.2715 941.337 5.47382 945.892 3.99267C950.127 2.60811 955.092 4.73324 960.448 5.37722C964.167 11.3018 968.526 18.2568 974.701 28.1097C976.285 18.8042 977.281 12.8796 978.402 6.27879C1005.64 1.03037 1032.18 2.64031 1056.16 23.6018C1057.07 22.1851 1060.01 16.3571 1060.74 16.7756C1067.19 20.3497 1073.24 25.0508 1079.21 29.2366C1078.99 26.2743 1078.6 20.6073 1078.05 12.622C1088.53 30.9754 1089.9 43.3076 1083.55 51.3251C1086.59 55.6397 1089.63 59.9544 1092.75 64.3656C1086.47 65.2672 1080.49 65.074 1075.34 67.5855C1073.97 68.2617 1075.13 77.1486 1075.13 84.0714C1082.91 81.1091 1089.46 78.6298 1097.04 75.7641C1093.71 83.8782 1090.86 90.8332 1086.91 100.493C1088.17 102.167 1091.52 106.546 1092.78 108.188C1093.37 118.975 1093.8 127.025 1094.42 138.455C1089.65 146.73 1071.75 142.255 1071.75 162.283C1075.56 161.993 1079.86 161.639 1084.29 161.317C1080.43 170.783 1077.14 178.833 1074.65 184.951C1082.76 192.195 1088.49 197.315 1096.59 204.528C1088.23 210.227 1081.32 214.928 1075.18 219.146C1078.33 221.303 1083.71 225.006 1087.23 227.453C1085.38 238.079 1083.9 246.579 1082.16 256.69C1082.37 256.625 1079.95 257.366 1077.53 258.139C1079.06 259.878 1080.4 262.582 1082.18 263.194C1087.62 265.062 1093 265.158 1090.67 276.235C1089.92 279.776 1095.49 285.218 1097.89 290.048C1099.72 293.719 1101.8 297.615 1102.36 301.704C1102.62 303.636 1098.8 308.595 1098.1 308.24C1094.6 306.437 1090.9 304.022 1088.42 300.545C1085.49 296.359 1083.74 290.885 1080.98 284.928C1069.79 305.278 1080.77 316.773 1082.46 329.91C1082.89 333.259 1082.82 336.704 1083.51 339.956C1085.5 349.358 1087.76 358.632 1090.08 368.71C1081.5 371.576 1098.92 397.399 1077.59 393.278C1088.12 399.685 1092.73 408.669 1089.19 422.933C1088.62 425.219 1091.88 429.308 1093.71 432.206C1098.41 439.612 1103.3 446.792 1107 455.228C1094.97 455.711 1094.24 456.935 1094.15 470.298C1094.13 472.068 1090.11 473.775 1087.92 475.482C1092.21 478.025 1096.5 480.569 1101.39 483.467C1089.22 493.384 1088.07 501.305 1095.43 517.244C1096.27 519.047 1097.23 521.043 1097.39 523.039C1098.07 531.797 1085.01 536.917 1094.47 549.378C1098.71 554.948 1097.05 567.538 1098.03 576.522C1095.45 581.319 1087.73 575.427 1088.85 588.017C1089.78 598.642 1069.83 600.639 1061.93 590.464C1059.72 596.453 1057.53 602.474 1054.35 611.103C1063.01 612.617 1071.61 614.13 1080.22 615.643C1081.63 621.858 1083.14 628.04 1084.67 634.254ZM843.167 1182.67C819.091 1179.83 806.546 1183.15 805.034 1194.87C804.162 1201.57 794.322 1210.58 806.048 1219.24C806.653 1213.03 807.062 1208.81 807.472 1204.47C818.985 1207.78 834.804 1198.12 843.167 1182.67ZM1085.99 950.416C1081.23 946.23 1077.34 942.785 1074.83 940.563C1069.35 945.94 1065.4 949.804 1061.3 953.797C1066.84 969.027 1071.8 968.93 1085.99 950.416ZM673.571 1201.57C673.304 1200.6 673.037 1199.67 672.77 1198.7C667.13 1198.7 661.418 1198.12 655.866 1199.02C653.926 1199.35 652.361 1203.31 650.617 1205.59C652.912 1207.97 655.973 1212.97 657.361 1212.29C663.037 1209.65 668.215 1205.3 673.571 1201.57ZM143.947 31.9091C141.598 43.3398 140.122 50.5845 138.645 57.8615C144.214 54.8348 149.802 51.7759 155.994 48.395C152.168 43.1466 149.659 39.7335 143.947 31.9091ZM1052.71 174.969C1053.9 174.711 1055.11 174.454 1056.3 174.196C1056.3 169.238 1057.87 162.057 1055.91 159.868C1053.37 157.034 1047.99 158.193 1043.85 157.614C1046.8 163.41 1049.76 169.205 1052.71 174.969ZM49.6385 1116.34C51.151 1116.72 52.6457 1117.11 54.1582 1117.5C56.0088 1107.39 57.8772 1097.28 60.1548 1084.85C43.8732 1092.64 52.3254 1106.42 49.6385 1116.34ZM1016.82 1185.34C1016.96 1187.14 1017.09 1188.98 1017.23 1190.78C1020.82 1189.94 1026.27 1190.52 1027.58 1187.88C1029.38 1184.31 1028.03 1178.22 1028.03 1173.23C1026.93 1173.33 1025.81 1173.43 1024.7 1173.55C1022.07 1177.48 1019.44 1181.41 1016.82 1185.34Z" fill="black" fill-opacity="0.9"/>
</svg>
