<svg width="18" height="18" viewBox="0 0 18 18" fill="none" xmlns="http://www.w3.org/2000/svg">
<path d="M9 18C7.76667 18 6.604 17.7627 5.512 17.288C4.42067 16.8127 3.46667 16.1667 2.65 15.35C1.83333 14.5333 1.18733 13.5793 0.712 12.488C0.237333 11.396 0 10.2333 0 9C0 8.26667 0.0833333 7.554 0.25 6.862C0.416667 6.17067 0.658333 5.52067 0.975 4.912C1.29167 4.304 1.671 3.73767 2.113 3.213C2.55433 2.68767 3.05 2.21667 3.6 1.8L10.4 8.6L9 10L3.6 4.6C3.1 5.2 2.70833 5.871 2.425 6.613C2.14167 7.35433 2 8.15 2 9C2 10.9333 2.68333 12.5833 4.05 13.95C5.41667 15.3167 7.06667 16 9 16C10.9333 16 12.5833 15.3167 13.95 13.95C15.3167 12.5833 16 10.9333 16 9C16 7.21667 15.4293 5.679 14.288 4.387C13.146 3.09567 11.7167 2.33333 10 2.1V4H8V0H9C10.2333 0 11.396 0.237333 12.488 0.712C13.5793 1.18733 14.5333 1.83333 15.35 2.65C16.1667 3.46667 16.8127 4.42067 17.288 5.512C17.7627 6.604 18 7.76667 18 9C18 10.2333 17.7627 11.396 17.288 12.488C16.8127 13.5793 16.1667 14.5333 15.35 15.35C14.5333 16.1667 13.5793 16.8127 12.488 17.288C11.396 17.7627 10.2333 18 9 18ZM9 15C8.71667 15 8.47933 14.904 8.288 14.712C8.096 14.5207 8 14.2833 8 14C8 13.7167 8.096 13.4793 8.288 13.288C8.47933 13.096 8.71667 13 9 13C9.28333 13 9.521 13.096 9.713 13.288C9.90433 13.4793 10 13.7167 10 14C10 14.2833 9.90433 14.5207 9.713 14.712C9.521 14.904 9.28333 15 9 15ZM14 10C13.7167 10 13.4793 9.904 13.288 9.712C13.096 9.52067 13 9.28333 13 9C13 8.71667 13.096 8.479 13.288 8.287C13.4793 8.09567 13.7167 8 14 8C14.2833 8 14.5207 8.09567 14.712 8.287C14.904 8.479 15 8.71667 15 9C15 9.28333 14.904 9.52067 14.712 9.712C14.5207 9.904 14.2833 10 14 10ZM4 10C3.71667 10 3.479 9.904 3.287 9.712C3.09567 9.52067 3 9.28333 3 9C3 8.71667 3.09567 8.479 3.287 8.287C3.479 8.09567 3.71667 8 4 8C4.28333 8 4.521 8.09567 4.713 8.287C4.90433 8.479 5 8.71667 5 9C5 9.28333 4.90433 9.52067 4.713 9.712C4.521 9.904 4.28333 10 4 10Z" fill="white"/>
</svg>
