<svg width="65" height="79" viewBox="0 0 65 79" fill="none" xmlns="http://www.w3.org/2000/svg">
<path d="M0 59.0596L30 79V44.4375L0 24.3348V59.0596ZM22.5 45.1429C23.8813 45.1429 25 47.0385 25 49.375C25 51.7115 23.8813 53.6071 22.5 53.6071C21.1187 53.6071 20 51.7115 20 49.375C20 47.0385 21.1187 45.1429 22.5 45.1429ZM7.5 50.7857C8.88125 50.7857 10 52.6814 10 55.0179C10 57.3544 8.88125 59.25 7.5 59.25C6.11875 59.25 5 57.3544 5 55.0179C5 52.6814 6.11875 50.7857 7.5 50.7857ZM35 44.4375V79L65 59.0596V24.3348L35 44.4375ZM42.5 69.125C41.1188 69.125 40 67.2294 40 64.8929C40 62.5564 41.1188 60.6607 42.5 60.6607C43.8812 60.6607 45 62.5564 45 64.8929C45 67.2294 43.8812 69.125 42.5 69.125ZM42.5 53.6071C41.1188 53.6071 40 51.7115 40 49.375C40 47.0385 41.1188 45.1429 42.5 45.1429C43.8812 45.1429 45 47.0385 45 49.375C45 51.7115 43.8812 53.6071 42.5 53.6071ZM57.5 59.25C56.1188 59.25 55 57.3544 55 55.0179C55 52.6814 56.1188 50.7857 57.5 50.7857C58.8812 50.7857 60 52.6814 60 55.0179C60 57.3544 58.8812 59.25 57.5 59.25ZM57.5 43.7321C56.1188 43.7321 55 41.8365 55 39.5C55 37.1635 56.1188 35.2679 57.5 35.2679C58.8812 35.2679 60 37.1635 60 39.5C60 41.8365 58.8812 43.7321 57.5 43.7321ZM32.5 0L2.5 19.75L32.5 39.5L62.5 19.75L32.5 0ZM32.5 21.1607C30.4297 21.1607 28.75 19.8981 28.75 18.3393C28.75 16.7804 30.4297 15.5179 32.5 15.5179C34.5703 15.5179 36.25 16.7804 36.25 18.3393C36.25 19.8981 34.5703 21.1607 32.5 21.1607Z" fill="white"/>
</svg>
