<svg width="121" height="122" viewBox="0 0 121 122" fill="none" xmlns="http://www.w3.org/2000/svg">
<g id="Group">
<g id="OBJECTS">
<path id="Vector" d="M58.0095 8.96312L15.2874 50.6008L30.5112 92.1481L55.7867 117.689L93.2723 90.1436L101.523 47.0952L58.0095 8.96312Z" fill="url(#paint0_linear_2545_479)"/>
<path id="Vector_2" d="M56.5628 23.4315L33.6799 52.1993L43.18 85.8469L58.7711 100.692L80.8516 80.7528L85.0721 47.8912L56.5628 23.4315Z" fill="url(#paint1_linear_2545_479)"/>
<path id="Vector_3" d="M93.2726 90.1436L80.8527 80.7527L58.7722 100.692L55.787 117.689L93.2726 90.1436Z" fill="#F55D05"/>
<path id="Vector_4" d="M15.2885 50.6008L33.6818 52.1992L56.5647 23.4314L58.0106 8.96311L15.2885 50.6008Z" fill="#FFE417"/>
<path id="Vector_5" d="M85.0736 47.891L101.524 47.095L93.2729 90.1434L80.8531 80.7525L85.0736 47.891Z" fill="url(#paint2_linear_2545_479)"/>
<path id="Vector_6" d="M56.564 23.4311L58.0099 8.96286L101.524 47.0949L85.0733 47.8909L56.564 23.4311Z" fill="url(#paint3_linear_2545_479)"/>
<path id="Vector_7" d="M15.2899 50.6006L33.6832 52.1991L43.1833 85.8467L30.5137 92.1479L15.2899 50.6006Z" fill="url(#paint4_linear_2545_479)"/>
<g id="Vector_8" style="mix-blend-mode:overlay">
<path d="M33.6799 52.1988L56.5628 23.431L35.029 52.5179L40.0192 74.6626L33.6799 52.1988Z" fill="white"/>
</g>
<g id="Vector_9" style="mix-blend-mode:overlay">
<path d="M58.7733 100.691L80.8539 80.7526L83.4538 60.5552L80.7761 74.0077L78.9984 77.6791L79.3033 79.9662L58.7733 100.691Z" fill="white"/>
</g>
<path id="Vector_10" style="mix-blend-mode:overlay" opacity="0.4" d="M69.8893 107.321L87.9877 94.0184L26.1117 40.06L15.2887 50.6008L20.1928 64.0042L69.8893 107.321Z" fill="url(#paint5_linear_2545_479)"/>
<path id="Vector_11" style="mix-blend-mode:overlay" opacity="0.4" d="M52.2543 14.5728L38.5483 27.9342L95.6553 77.7352L99.8115 56.0393L52.2543 14.5728Z" fill="url(#paint6_linear_2545_479)"/>
</g>
</g>
<defs>
<linearGradient id="paint0_linear_2545_479" x1="57.789" y1="62.6632" x2="32.9123" y2="118.228" gradientUnits="userSpaceOnUse">
<stop stop-color="#FFAF02"/>
<stop offset="1" stop-color="#F56D05"/>
</linearGradient>
<linearGradient id="paint1_linear_2545_479" x1="50.5886" y1="59.67" x2="127.84" y2="86.1486" gradientUnits="userSpaceOnUse">
<stop stop-color="#F8C316"/>
<stop offset="1" stop-color="#FF8E0F"/>
</linearGradient>
<linearGradient id="paint2_linear_2545_479" x1="83.3456" y1="48.771" x2="105.273" y2="91.7952" gradientUnits="userSpaceOnUse">
<stop stop-color="#FF9E02"/>
<stop offset="1" stop-color="#F56D05"/>
</linearGradient>
<linearGradient id="paint3_linear_2545_479" x1="56.9215" y1="21.7511" x2="105.325" y2="44.1919" gradientUnits="userSpaceOnUse">
<stop stop-color="#FFAB02"/>
<stop offset="1" stop-color="#F56D05"/>
</linearGradient>
<linearGradient id="paint4_linear_2545_479" x1="32.4498" y1="53.1855" x2="23.7215" y2="94.6497" gradientUnits="userSpaceOnUse">
<stop stop-color="#FFAB02"/>
<stop offset="1" stop-color="#F56D05"/>
</linearGradient>
<linearGradient id="paint5_linear_2545_479" x1="55.3891" y1="66.5717" x2="41.0118" y2="88.9499" gradientUnits="userSpaceOnUse">
<stop stop-color="white"/>
<stop offset="1" stop-color="white" stop-opacity="0"/>
</linearGradient>
<linearGradient id="paint6_linear_2545_479" x1="61.8755" y1="22.7582" x2="77.0589" y2="63.3756" gradientUnits="userSpaceOnUse">
<stop stop-color="white"/>
<stop offset="1" stop-color="white" stop-opacity="0"/>
</linearGradient>
</defs>
</svg>
