<svg width="226" height="80" viewBox="0 0 226 80" fill="none" xmlns="http://www.w3.org/2000/svg">
<path id="Vector" d="M196.052 3.95189C197.63 3.90051 199.213 3.84716 200.492 3.80567C201.057 4.36288 201.551 4.84501 202.039 5.32714C202.239 5.23625 202.435 5.14536 202.635 5.05249C203.735 5.21254 205.379 5.25996 205.806 5.56228C206.427 6.00094 206.176 6.62534 206.299 7.16872C206.027 7.20824 205.754 7.24776 205.482 7.28728C206.17 7.35841 206.859 7.42955 207.702 7.51649C206.782 8.67241 209.526 8.63685 211.479 8.89372L211.422 8.87396C211.992 9.15059 212.563 9.42722 213.236 9.75325C212.681 9.85995 212.291 9.93504 211.345 10.1149C214.336 11.0653 217.105 11.9485 219.993 12.8673C220.009 12.8575 219.803 13.0531 219.644 13.0491C217.722 12.9839 216.612 13.4325 215.959 14.0015C215.255 14.618 214.12 14.4955 212.912 14.4323C213.174 14.373 213.683 14.2703 213.668 14.2584C212.845 13.5807 211.982 12.9108 211.026 12.1619C210.05 12.8278 210.821 13.5826 212.989 14.4224C213.442 14.7089 213.889 14.9954 214.387 15.3116C215.394 14.8492 216.669 14.7069 216.746 15.4025C216.879 16.5999 218.185 17.7677 217.388 18.9928C217.28 19.1587 217.717 19.3899 217.974 19.5757C218.709 20.1191 219.793 20.6249 220.163 21.1999C220.636 21.9448 221.134 22.583 223.159 22.9012C224.125 23.0533 224.664 23.3221 223.801 23.7192L223.858 23.6975C223.421 23.8358 222.984 23.9741 222.527 24.1184C222.604 23.8615 222.671 23.6244 222.681 23.5987C221.185 23.3813 220.009 23.2094 218.817 23.0355C218.688 23.5275 218.549 24.069 218.395 24.6657C217.83 24.6301 217.023 24.5788 216.437 24.5412C215.888 25.2269 215.348 25.8947 214.803 26.5725C218.184 26.7088 214.5 28.1394 216.741 28.58C217.023 28.3943 217.193 28.1394 217.486 28.1177C219.094 27.9912 220.744 27.8055 222.306 28.2105C222.604 28.2876 222.984 28.3192 223.323 28.3706C222.953 28.4654 222.609 28.584 222.203 28.6492C219.438 29.0977 216.663 29.5344 213.894 29.9751C213.976 30.0679 214.063 30.1608 214.146 30.2517C215.764 30.1193 217.378 29.9849 219.531 29.8091C218.38 30.1746 217.691 30.392 216.669 30.716C217.501 30.7437 217.974 30.7595 219.176 30.801C217.681 31.3385 216.422 31.7554 215.271 32.2118C214.146 32.6584 213.128 33.1445 212.224 33.6898C214.598 33.4547 215.435 32.0577 218.791 32.5359C218.863 31.5202 220.41 31.2891 222.999 31.4412C222.259 32.1822 221.725 32.8817 220.877 33.5199C220.029 34.1581 218.863 34.7351 217.665 35.4385C217.239 35.1481 216.967 34.9604 216.751 34.8141C216.54 35.2864 216.34 35.7448 216.103 36.2704C219.762 36.468 219.115 37.6951 219.865 38.523C218.349 38.8095 217.013 39.0624 215.579 39.3331C215.888 39.503 216.155 39.6512 216.494 39.839C215.713 40.0425 214.968 40.2361 214.336 40.4021C214.736 40.7617 215.101 41.0878 215.579 41.5146C214.341 41.5146 213.519 41.5146 212.321 41.5146C212.558 42.0935 212.768 42.5974 212.974 43.1012C213.21 43.0914 213.452 43.0835 213.688 43.0736C213.57 42.6428 213.447 42.2101 213.308 41.7141C215.728 42.1054 217.737 42.4294 219.973 42.789C219.053 43.1052 218.411 43.3285 217.707 43.5715C216.576 43.5458 215.245 43.5182 213.93 43.4885C213.806 43.5419 213.58 43.6012 213.601 43.6328C214.706 45.0396 215.487 46.5196 219.464 47.2468C219.824 47.312 220.019 47.5372 220.219 47.6993C220.805 48.1695 220.918 48.6912 222.583 48.9698C223.195 49.0725 222.912 49.9637 223.035 50.4972C222.742 50.515 222.45 50.5347 222.157 50.5525C221.951 50.3115 221.74 50.0704 221.535 49.8293C221.381 49.8214 221.221 49.8135 221.067 49.8056C221 50.0427 220.929 50.2779 220.877 50.4577C219.279 50.7185 217.218 49.7365 215.482 50.7541C218.328 50.9655 221.006 51.1631 224.197 51.3982C221.725 51.9594 219.536 52.4554 217.347 52.9533C217.424 53.0442 217.496 53.1331 217.573 53.224C218.477 53.224 219.382 53.224 220.507 53.224C220.718 53.4413 221.006 53.7358 221.247 53.9828C221.915 53.9037 222.486 53.8346 223.159 53.7555C222.881 54.376 222.64 54.9154 222.372 55.5082C221.71 55.3541 220.78 55.1367 219.988 54.9529C219.921 55.2849 219.86 55.5912 219.798 55.8974C218.837 55.5457 217.881 55.194 216.504 54.6901C216.895 55.5517 217.239 56.3163 217.583 57.081C217.743 57.081 217.902 57.083 218.061 57.083C218.061 56.923 217.984 56.755 218.082 56.6029C218.184 56.4329 218.447 56.2788 218.637 56.1168C219.048 56.2334 219.536 56.3223 219.849 56.4685C220.656 56.836 221.196 57.3636 222.198 57.5711C223.164 57.7706 224.577 57.6501 226 57.6758C226.026 58.2528 224.207 58.1777 223.261 58.1184C222.003 58.0394 220.872 57.6679 219.3 57.3419C218.899 57.5434 218.082 57.9544 217.244 58.3733C216.139 58.4029 214.865 58.4385 213.883 58.4662C214.957 58.9246 216.216 59.3237 216.962 59.8355C217.414 60.1437 217.193 60.6298 217.049 61.025C216.848 61.5546 216.674 62.1217 216.047 62.586C215.06 63.3171 213.2 63.0642 211.566 62.9733C210.477 62.912 209.387 62.8449 207.995 62.9279C213.21 63.084 213.842 64.3861 213.329 65.9846C211.792 65.9846 209.963 65.9846 208.128 65.9846C208.097 66.0716 208.067 66.1565 208.041 66.2435C210.153 66.3601 212.265 66.4747 214.274 66.5853C214.516 66.9469 214.716 67.2453 214.742 67.2848C213.544 67.846 212.542 68.3123 211.566 68.7845C211.54 68.7964 211.71 68.9031 211.823 68.913C211.941 68.9248 212.1 68.8754 212.244 68.8517V68.8498C212.553 69.5097 212.856 70.1677 213.061 70.6083C211.324 70.8494 210.112 71.0174 208.894 71.1853C209.839 72.1535 207.717 73.2857 205.472 73.1356C204.403 73.0644 203.241 72.7127 203.39 73.5308C203.396 73.5643 202.83 73.6671 202.589 73.6454C200.061 73.4142 200.312 74.2263 199.809 74.5701C200.965 74.5029 202.203 74.4357 203.442 74.3567C203.683 74.3409 203.961 74.2994 204.115 74.2342C206.638 73.1771 209.392 73.4853 212.208 73.9991C212.208 74.3547 212.208 74.6906 212.208 75.1846C212.938 74.9238 213.426 74.7499 213.904 74.58C215.667 75.2479 215.389 75.4198 211.587 76.0106C211.494 75.9671 211.355 75.9276 211.314 75.8762C211.17 75.6845 211.222 75.4 210.903 75.3131C209.588 74.9594 208.159 74.6669 206.772 74.3508C206.674 74.4318 206.576 74.5128 206.474 74.5938C207.383 75.0858 208.293 75.5778 209.197 76.0698C208.925 76.1469 208.652 76.224 208.385 76.301C207.445 75.8229 206.504 75.3447 205.502 74.8329C204.644 74.8507 203.565 74.8744 202.486 74.8981C202.419 74.9475 202.358 74.9949 202.291 75.0443C203.74 75.2972 205.184 75.5502 206.633 75.8031C206.546 75.8841 206.463 75.9651 206.376 76.0442C205.924 75.973 205.466 75.9019 205.014 75.8308C204.911 75.8821 204.809 75.9315 204.706 75.9829C205.554 76.2595 206.397 76.5381 206.977 76.7278C209.68 76.2378 211.936 76.9254 214.49 77.0875C212.917 78.0991 211.617 76.8444 209.973 77.2159C210.292 77.4392 210.641 77.6862 211.062 77.9806C209.891 78.2256 208.658 78.4864 207.424 78.7473C207.255 78.6623 207.08 78.5793 206.91 78.4943C207.702 78.1821 208.493 77.8719 209.284 77.5597C209.218 77.4807 209.156 77.4016 209.089 77.3226C208.277 77.4273 207.239 77.4451 206.695 77.6526C205.343 78.1683 204.259 78.0063 202.954 77.6071C203.241 77.3582 203.57 77.1349 203.76 76.8938C204.094 76.4729 204.197 76.1746 202.548 76.4492C202.322 76.4868 201.273 75.7972 200.323 75.2933C199.408 75.2933 197.836 75.2933 196.268 75.2933C196.258 75.2083 196.248 75.1234 196.232 75.0384C194.454 75.564 192.682 76.0896 190.904 76.6132C191.073 76.7259 191.243 76.8405 191.412 76.9531C193.036 76.7654 194.66 76.5777 196.279 76.3899C196.777 76.6033 197.342 76.8464 197.959 77.1112C196.823 77.2831 195.682 77.5617 194.485 77.6032C193.668 77.6308 192.8 77.3028 191.911 77.1823C191.407 77.1151 190.811 77.1487 190.256 77.1349C190.631 76.4532 190.482 75.8229 188.504 75.0977C189.167 75.9434 187.44 76.7575 190.318 77.1072C189.66 77.3957 189.002 77.6842 188.499 77.9055C187.06 77.3661 185.421 76.7515 183.776 76.137C183.581 76.2042 183.386 76.2694 183.185 76.3366C183.375 76.0659 183.571 75.7932 183.761 75.5225C183.632 75.481 183.499 75.4375 183.37 75.396C182.964 75.5857 182.178 75.7833 182.204 75.9612C182.43 77.2673 180.005 76.7812 178.376 76.8405C177.553 76.8701 176.567 76.8108 175.95 76.9669C174.655 77.2949 173.622 77.3601 172.929 77.0045C171.86 77.0341 170.966 76.957 170.431 77.0914C168.016 77.696 165.591 78.1169 162.549 78.1051C161.511 78.1011 160.457 78.7868 159.219 79.2254C158.859 79.1503 158.304 79.0318 157.559 78.8757C157.097 79.2254 156.619 79.5831 156.064 80C155.298 80 154.311 80 153.114 80C154.363 79.4388 155.452 78.9488 156.542 78.4588C158.253 78.5477 159.008 78.2434 159.065 77.6012C157.59 77.5558 156.249 77.5162 154.902 77.4747C154.902 77.1922 154.902 76.9116 154.902 76.6607C153.011 76.4907 151.095 76.3188 149.055 76.137C148.34 77.2396 145.458 76.307 143.567 76.6271C145.53 77.3918 145.524 78.8836 143.978 79.1582C142.467 78.0517 140.961 76.9491 139.456 75.8466C139.235 75.8782 139.014 75.9098 138.788 75.9434C139.142 76.4789 139.502 77.0143 139.99 77.7553C138.978 77.3878 138.305 77.1448 137.534 76.8642C137.369 77.046 137.179 77.2515 136.928 77.5261C134.297 76.712 131.717 75.9137 129.143 75.1174C129.636 76.0778 133.572 76.1785 131.994 77.5281C134.168 77.6071 135.776 77.8541 135.417 78.7295C135.36 78.8638 134.189 78.933 133.803 78.9903C133.706 78.5062 133.644 78.2197 133.551 77.7652C132.637 78.271 132.072 78.5852 131.537 78.8816C130.139 78.5477 129.019 78.2829 127.899 78.0162C127.966 77.7474 128.033 77.4747 128.171 76.9235C127.38 77.4155 126.969 77.6723 126.558 77.9312C126.352 77.9134 126.147 77.8956 125.946 77.8778C125.946 77.37 125.946 76.8602 125.946 76.0284C124.826 77.3582 123.099 76.5698 122.01 76.5658C121.065 77.0104 120.294 77.372 119.523 77.7356C119.343 77.6723 119.163 77.6111 118.983 77.5479C119.379 77.4135 119.77 77.2791 120.371 77.0736C119.42 77.0104 118.737 76.963 118.115 76.9215C117.545 77.2258 116.995 77.5202 116.388 77.8462C115.407 77.5735 114.595 77.3463 113.763 77.1151C114.169 76.7812 114.59 76.4314 115.042 76.058C113.65 76.2852 112.514 76.471 111.255 76.6765C110.818 76.4295 110.397 76.1924 110.022 75.9829C108.958 76.1074 107.941 76.2279 106.728 76.3702C106.656 75.9414 106.61 75.6569 106.543 75.2558C105.001 75.3447 103.588 75.4277 102.17 75.5087C102.216 75.6095 102.262 75.7102 102.309 75.811C103.069 75.7339 103.84 75.5877 104.59 75.6015C105.068 75.6114 105.962 75.9335 105.901 75.9908C105.263 76.5658 104.493 77.1191 103.696 77.6644C103.511 77.7909 103.079 77.864 102.591 78.0122C102.293 77.2455 98.9891 76.8444 101.569 75.9137C101.224 75.8209 101.009 75.7142 100.844 75.7241C97.0056 75.9434 93.388 76.3662 90.7005 77.5261C89.2668 78.1446 89.3336 78.1683 87.4118 77.7573C87.1446 78.686 85.0326 78.9962 80.9063 78.6939C81.117 78.2572 81.3893 77.8205 81.5127 77.3779C81.6103 77.0222 81.5332 76.6607 81.5332 76.0857C81.6 76.0343 81.9751 75.7359 82.3503 75.4395C81.9905 75.3881 81.6308 75.3387 81.266 75.2874C80.8549 75.8485 80.4438 76.4097 79.9968 77.0222C79.6679 77.0479 79.0975 77.0894 78.4809 77.1368C80.7727 77.5202 80.1406 77.9648 78.3832 78.5971C77.5816 77.9865 76.8828 77.453 76.076 76.8345C73.8099 76.8918 72.8695 77.2475 72.2683 78.3639C72.1398 78.601 71.4564 78.7947 70.8295 79.1088C70.6188 78.4548 70.1203 78.0162 68.1985 78.5497C68.3321 78.2572 68.3989 78.109 68.44 78.0221C67.6281 78.0063 66.7854 77.9905 65.9426 77.9747C65.8913 77.8699 65.8399 77.7652 65.7885 77.6605C66.9806 77.4313 68.1728 77.2021 69.365 76.9729C69.329 76.8899 69.293 76.8088 69.2519 76.7259C67.2016 76.8385 65.1513 76.9531 63.101 77.0657C63.0958 77.1131 63.0907 77.1606 63.0856 77.21C63.7022 77.2376 64.3137 77.2653 64.9303 77.293C64.9612 77.368 64.992 77.4431 65.0228 77.5182C63.9334 77.5854 62.7824 77.7692 61.7752 77.6881C60.7218 77.6032 59.8071 77.2613 58.9901 77.0697C58.8 76.6804 58.6098 76.2991 58.4248 75.9157C56.2769 77.1803 54.2882 77.1645 50.3623 76.882C49.3346 76.8069 48.3172 76.714 47.2843 76.6527C45.7838 76.5638 45.1775 75.9197 45.7736 75.1589C46.1384 74.6966 46.3028 74.2085 45.9997 73.6711C45.6913 73.8864 45.1723 74.0939 45.1158 74.3192C44.7869 75.5838 42.5619 75.6391 40.0337 75.5739C39.2013 75.5522 38.3534 75.6213 37.3411 75.6529C37.3411 75.0088 37.3411 74.3942 37.3411 73.7797C37.1253 73.7679 36.9094 73.754 36.6936 73.7422C36.3391 74.3409 36.0513 74.9455 35.6145 75.5363C35.1829 76.1173 34.5971 76.6804 34.0781 77.2534C34.299 77.3048 34.52 77.3562 34.7409 77.4076C33.9856 77.4827 33.2302 77.5577 32.3309 77.6486C31.3083 79.1187 29.7822 79.2867 24.2427 78.2908C25.0033 78.1564 25.5993 78.0517 26.1338 77.9588C25.4503 77.5479 24.8902 77.3127 24.6487 77.0361C24.4432 76.8029 24.6076 76.5204 24.6076 76.2497C25.9231 76.058 27.3311 75.8525 28.739 75.649C28.6517 75.5482 28.5695 75.4454 28.4821 75.3447C26.92 75.402 25.3578 75.4613 24.1194 75.5067C23.5182 74.9277 23.0146 74.4417 22.511 73.9556C22.326 74.0485 22.1411 74.1394 21.9561 74.2322C20.954 74.1196 19.3919 74.1156 19.0784 73.8746C18.4926 73.4181 18.3231 72.8036 18.544 72.2918C18.8009 71.701 18.9037 71.6497 16.8226 71.6734C17.6653 70.5965 15.7949 70.4799 13.0817 70.3159C14.8956 70.7625 16.3087 71.0687 15.0086 71.5943C15.8154 72.0804 16.4732 72.4736 17.1309 72.8668C16.7147 72.934 16.3036 73.0012 16.2111 73.017C15.8874 73.8904 15.5739 74.742 15.2604 75.5857C14.0066 75.4099 12.9224 75.2577 11.8381 75.1056C11.7302 75.1846 11.6223 75.2656 11.5144 75.3447C11.9923 75.5067 12.4702 75.6687 13.3232 75.9552C12.0334 75.9256 11.2009 75.9078 9.8392 75.8762C9.68504 75.728 9.3202 75.3842 8.93994 75.0186C12.1824 75.2083 10.3839 74.0781 11.3962 73.6631C10.4301 73.8094 9.46408 73.9556 8.49802 74.0998C8.36441 74.0149 8.23595 73.9299 8.10234 73.843C9.50519 73.5031 10.908 73.1613 12.2235 72.8431C12.1413 72.4776 12.0539 72.1022 11.9717 71.7267C11.8484 71.703 11.7251 71.6793 11.6017 71.6576C11.1804 72.0271 10.759 72.3985 10.2965 72.8036C8.61621 72.5329 7.48057 72.4796 7.57307 73.4814C7.62959 74.1334 6.70978 74.7954 6.33466 75.4613C6.23703 75.6351 6.54534 75.8406 6.74061 76.1489C5.83107 75.9908 5.11681 75.8643 4.63891 75.7814C4.87529 75.3032 5.06028 74.9317 5.24527 74.5583C4.63378 74.6215 4.01714 74.6867 3.34398 74.7558C0.533158 73.0743 0.533158 73.0743 1.48894 73.0763C2.40362 73.4181 3.31315 73.7619 4.40254 74.171C4.87529 73.9437 5.26069 73.758 5.71802 73.5367C4.94723 73.3747 4.32032 73.2423 3.493 73.0664C4.04797 72.9518 4.42823 72.8708 4.97293 72.7582C4.41282 72.5665 3.89382 72.3887 2.78901 72.0093C4.91126 72.0824 6.30383 72.1318 7.69639 72.1792C7.7375 72.0765 7.77861 71.9757 7.81972 71.8729C7.2185 71.7939 6.61728 71.7149 6.01606 71.6358C5.94412 71.5588 5.87732 71.4817 5.80538 71.4046C7.79403 71.1873 9.78781 70.9699 12.1721 70.7111C12.1721 70.2191 12.1721 69.6619 12.1721 69.1027C12.4342 69.0849 12.6911 69.0691 12.9532 69.0513C11.7302 68.5593 10.5278 68.0594 9.27395 67.5792C8.67787 67.35 7.98416 67.1603 7.33669 66.9509C9.6131 66.8857 11.8844 66.8185 14.1505 66.7513C14.6489 65.8839 12.6192 64.7892 11.1084 64.8761C11.6942 65.3978 12.3211 65.9491 12.9789 66.532C11.8792 66.5023 10.98 66.4747 10.0756 66.4549C8.91938 66.4292 7.55765 66.2534 7.41891 66.9845C6.72519 66.8126 6.03148 66.6426 5.34291 66.4707C5.15792 66.3719 4.97806 66.2731 4.79307 66.1743C4.16102 66.6762 3.52383 67.1761 2.89178 67.678C2.54236 67.5318 2.19293 67.3876 1.84351 67.2413C3.493 66.9133 3.68827 65.8997 6.46312 66.0479C6.94102 66.0735 7.54737 65.5835 8.18456 65.3701C9.18659 65.0362 10.2657 64.7378 11.1958 64.4592C10.7898 64.479 10.8207 63.5424 9.15062 64.1766C8.72925 63.9415 8.01499 63.7202 7.94305 63.4693C7.61931 62.3291 7.50113 61.1811 7.24933 60.039C7.20822 59.8612 6.89991 59.6814 6.63784 59.5233C6.04176 59.1617 5.02431 58.8396 4.83932 58.4543C4.29463 57.3083 2.87637 56.4349 0.348168 55.8145L0.337891 55.8224C2.09016 55.8718 3.84243 55.9192 5.76427 55.9745C6.36035 55.5042 5.43026 54.4234 8.46205 54.5775C9.47949 53.2279 8.52885 51.9218 8.41066 50.4972C5.98009 51.3785 2.6143 51.416 0.918555 50.679C2.56291 50.4537 4.22783 50.2581 5.82594 49.9993C7.44974 49.7365 9.00674 49.4104 10.5946 49.1121C10.5432 49.031 10.4969 48.95 10.4456 48.869C8.85772 49.0073 7.26475 49.1456 5.10653 49.3334C6.22675 48.9599 6.89991 48.7366 7.94305 48.3908C7.0849 48.3671 6.67895 48.3573 6.273 48.3454C6.22675 46.982 11.5298 47.1006 11.5504 45.5751C9.66448 45.9683 8.98619 47.1756 6.7663 46.5137C5.58956 47.0274 4.60294 47.4621 3.38509 47.9937C1.67907 46.3734 3.70882 44.3817 6.54534 44.3461C6.36549 44.1465 6.18564 43.945 5.90815 43.6387C6.74061 43.7296 7.27503 43.7869 7.81972 43.8462C8.10748 43.5083 8.36955 43.202 8.62648 42.8977C5.46623 42.3188 4.37685 41.5047 5.25041 40.4219C8.26164 40.4001 9.04271 40.1018 8.45691 39.1474C9.07354 39.013 9.72101 38.8708 10.3479 38.7324C9.98822 38.3708 9.65935 38.0369 9.24312 37.62C10.3274 37.5726 11.129 37.537 11.9049 37.5014C12.2543 36.221 12.1464 36.1222 10.4301 36.1716L10.4815 36.1933C11.6017 34.4387 9.37672 33.1662 6.29869 32.0518C5.87218 31.8976 4.84446 31.9905 4.85474 31.9905C4.05311 31.3977 3.46217 30.9116 2.75304 30.4513C1.84351 29.8585 0.959664 29.2736 2.13641 28.4635C3.03567 28.5148 4.42309 28.6077 5.8208 28.6709C6.94615 28.7203 8.08179 28.7342 9.25853 28.5425C10.1115 28.6867 10.9594 28.831 11.8124 28.9752C11.9152 28.831 12.0128 28.6887 12.1156 28.5445C8.56996 28.2896 5.02431 28.0347 1.47353 27.7798C2.53722 26.8946 6.82283 27.2977 6.83311 25.9757C5.25041 25.8078 3.7191 25.705 2.30084 25.4857C-0.84913 24.9977 4.64919 24.1737 1.97711 23.5671C2.80443 23.7429 3.63688 23.9188 5.11167 24.231C4.61322 23.4129 4.48989 22.7589 3.79104 22.2155C3.22579 21.7769 1.96169 21.4745 1.33478 20.9766C2.3882 21.0833 3.44676 21.188 4.45906 21.2908C4.50017 21.5062 4.54642 21.7591 4.61322 22.1286C5.69233 21.605 6.63784 21.1465 7.43946 20.7553C8.49802 20.7039 9.48977 20.6545 10.4815 20.6071C6.60701 19.6172 6.12398 17.4634 9.55657 16.6276C9.22256 16.6058 8.87314 16.5841 8.52371 16.5624C8.51343 16.4576 8.50316 16.3529 8.49288 16.2502C9.87517 16.1948 11.2575 16.0802 12.6295 16.102C13.945 16.1217 15.2399 16.2837 16.5451 16.3825C16.6119 16.2936 16.6787 16.2027 16.7455 16.1138C15.1474 15.9221 13.5441 15.7285 11.8946 15.5289C11.6274 14.7662 11.3448 13.9699 11.0211 13.061C12.7682 13.0926 14.613 13.1262 16.4577 13.1578C16.4783 13.0511 16.4937 12.9444 16.5143 12.8397C15.8411 12.8397 15.1474 12.8772 14.4999 12.8318C13.5133 12.7606 12.5267 12.6618 11.5966 12.5176C10.831 12.399 10.1578 12.1955 9.44352 12.0295C7.65528 12.0295 5.67178 12.0295 3.55467 12.0295C6.08287 11.0594 2.67596 10.8321 1.73559 10.5752C-0.191387 10.0496 1.08299 9.61494 1.38103 9.15454C1.53519 8.9115 2.09016 8.70798 2.75818 8.31082C3.50328 8.72774 4.45906 9.26322 5.86704 10.0516C5.43026 8.51829 7.49599 8.57757 9.47949 8.67834C10.204 9.23358 10.8772 9.75325 11.6685 10.3618C10.8001 10.6187 9.56171 10.9862 8.32844 11.3538C8.56482 11.4684 8.79606 11.583 9.03243 11.6956C10.3942 11.3044 11.7559 10.9131 12.4856 10.7057C12.3417 9.67619 12.2287 8.88384 12.1156 8.09149L12.018 8.11717C12.8145 8.17645 13.6726 8.32662 14.3972 8.26339C14.8802 8.2219 15.5174 7.8682 15.502 7.66073C15.4146 6.46726 16.6941 6.06022 19.8698 6.26967C20.3734 6.30326 21.0003 6.05824 21.5707 5.94166C21.473 5.86262 21.3754 5.78161 21.2726 5.70257C22.0948 5.70257 22.917 5.70257 23.8779 5.70257C24.2993 5.31924 24.7052 4.94776 25.3424 4.36486C24.1554 4.73238 23.5542 5.05446 22.7937 5.12757C20.2655 5.37456 17.6807 5.53462 15.1217 5.72628L15.2039 5.74802C14.2019 5.55042 13.1999 5.35283 12.2903 5.17302C12.3725 4.86082 12.4702 4.48144 12.5678 4.10206C12.388 4.08032 12.203 4.06056 12.0231 4.03883C11.7251 4.19888 11.4322 4.36091 10.8926 4.65335C10.4764 4.38462 9.69018 3.9835 9.8135 3.93608C10.7847 3.56855 11.9306 3.27019 13.5955 2.78015C12.6809 4.40042 15.4968 3.6219 16.7866 4.1475C16.319 3.55867 16.0415 3.21288 15.764 2.86709C15.9233 2.8335 16.0878 2.79794 16.2471 2.76434C17.1926 3.27216 18.1432 3.78195 19.063 4.27396C20.1884 4.24433 21.3291 4.21271 23.1482 4.16529C21.1082 3.8274 19.6026 3.57646 18.1021 3.32749C18.1997 3.23659 18.2922 3.1457 18.3899 3.05481C18.7444 3.12792 19.0938 3.20103 19.469 3.28007C19.212 2.6695 14.5051 2.12809 9.97794 2.21701C10.3428 1.96804 10.646 1.75661 10.9389 1.55704C12.1824 1.68746 13.2923 1.80206 14.3972 1.91864C14.4794 1.84948 14.5667 1.78032 14.6489 1.70919C14.2841 1.52938 13.9038 1.34759 13.4928 1.14802C14.6901 0.889174 15.7794 0.652061 16.8688 0.416924C17.023 0.488058 17.1823 0.561168 17.3364 0.632302C16.7301 0.97414 16.1289 1.314 15.5225 1.65584C15.615 1.73093 15.7075 1.80601 15.8 1.8811C17.0538 1.66177 18.3025 1.44244 19.952 1.15197C21.992 1.40292 21.3805 2.16366 21.2778 3.00343C21.7043 2.79003 22.1256 2.57465 22.5984 2.33556C23.03 2.89871 23.436 3.43221 23.9447 4.10008C25.7329 3.98745 27.6188 3.7286 29.4328 3.78986C32.2179 3.88273 32.2847 2.97972 33.6721 2.57268C33.5591 2.49562 33.446 2.41855 33.333 2.34347C32.4029 2.4561 31.4625 2.56082 30.5376 2.68333C28.5129 2.95206 26.9765 2.68135 26.7298 1.94038C26.663 1.7329 27.2437 1.49381 27.5263 1.26856C27.9888 1.41675 28.4513 1.56495 28.9086 1.71314C28.9292 1.67955 28.9446 1.64794 28.9651 1.61435C29.6845 1.75464 30.3937 2.00361 31.1234 2.01349C32.778 2.03522 34.4429 1.9384 36.1027 1.889C36.1541 1.76649 36.2055 1.64398 36.2517 1.52148C35.3165 1.21916 34.3812 0.916838 33.3432 0.580927C35.6762 0.733075 36.3802 1.05713 36.9762 1.88703C37.1612 2.14192 38.2352 2.28617 38.7902 2.5213C39.4376 2.79794 39.9618 3.11804 40.5373 3.41838C39.6894 3.60017 38.857 3.79579 37.9834 3.95979C37.3154 4.08427 36.6011 4.16924 35.9023 4.27396C35.4758 3.64957 37.228 2.80781 34.0729 2.21306C34.5508 3.19905 34.9208 3.95386 35.409 4.96357C38.0348 4.45773 40.7942 3.9262 43.4766 3.4085C43.0244 3.15558 42.4232 2.90266 42.5157 2.85721C42.8959 2.67345 43.4355 2.46598 43.9956 2.42251C46.0305 2.27036 48.0859 2.12809 50.1465 2.0945C50.9122 2.08264 51.7138 2.37706 52.387 2.61615C53.1372 2.76434 51.8937 1.53333 53.9902 2.28814C54.1855 2.3573 55.1002 2.15773 55.6397 2.05103C56.9192 1.79811 58.1525 1.50764 59.4474 1.26856C61.4566 0.899054 63.4812 0.543384 65.547 0.221306C65.9581 0.156099 66.5593 0.270704 67.0731 0.302319V0.298367C66.4822 0.798281 65.8861 1.29819 65.3671 1.73488C67.0218 1.80206 68.4554 1.85936 70.0484 1.92259C69.9405 2.1518 69.812 2.42646 69.7247 2.62405C71.6157 2.82955 73.4502 3.02912 75.4337 3.2445C76.3175 2.05103 79.2671 3.10816 81.1581 2.63986C78.2085 1.78625 80.1098 0.916837 80.5209 0C82.1139 1.1994 83.6092 2.32371 85.0994 3.44802C85.3563 3.41048 85.6133 3.37096 85.8651 3.33342C85.5002 2.83153 85.1354 2.33161 84.5907 1.58471C85.7058 1.95223 86.4303 2.18934 87.3193 2.48178C87.3193 2.22491 87.3193 2.02732 87.3193 1.50369C89.0356 2.13599 90.2432 2.63393 91.5946 3.06074C92.8176 3.44604 94.205 3.75232 95.6901 4.025C94.39 3.3018 91.3223 3.00146 92.571 1.80404C89.3285 1.54519 89.015 1.39699 89.4004 0.0987971C90.0736 0.407044 90.4744 0.590807 90.9729 0.820016C92.9718 0.0810137 94.4363 1.09665 96.2965 1.18754C99.0456 1.31993 99.0713 1.96014 98.9891 2.79201C99.1946 2.63196 99.4002 2.47388 99.5852 2.32766C100.752 2.48376 101.913 2.63986 103.064 2.79398C103.927 1.84948 106.707 1.23101 108.706 1.5274C109.333 1.62027 110.171 1.89098 110.222 2.10438C110.448 3.08445 111.933 2.86907 113.495 2.66357C113.865 2.89476 114.22 3.11606 114.564 3.33144C115.638 3.20498 116.676 3.08247 117.868 2.94415C117.92 3.37096 117.956 3.69106 117.997 4.06451C119.564 3.97165 120.972 3.88866 122.385 3.80567C122.354 3.71082 122.318 3.61795 122.288 3.52311C121.101 3.59622 119.919 3.66933 118.315 3.7701C119.549 2.86314 120.566 2.11821 121.954 1.09862C122.349 1.72105 122.56 2.04905 122.771 2.37508C122.765 2.37508 122.848 2.37311 122.873 2.3573C122.915 2.32964 122.894 2.28814 122.935 2.26245C123.105 2.16959 123.29 2.08067 123.942 1.75266C123.768 2.5055 123.66 2.96984 123.536 3.50335C125.355 3.43221 127.462 3.51718 129.153 3.23462C130.972 2.93032 132.406 2.28024 134.153 1.73685C134.009 1.59261 133.783 1.36538 133.449 1.03539C134.898 1.15 136.1 1.24484 137.298 1.33969C137.786 0.713315 142.421 -0.0573024 143.171 0.412972C143.752 0.776546 143.135 1.41873 143.084 1.9384C143.048 2.27629 143.078 2.61615 143.577 2.94613C143.156 3.24252 142.729 3.53891 142.308 3.83333C142.657 3.89063 143.007 3.94596 143.356 4.00326C144.091 2.92044 144.831 1.83565 145.566 0.752834C145.941 0.735051 146.316 0.717267 146.686 0.699484C147.364 1.24682 148.047 1.79613 148.726 2.34149C149.157 2.08067 151.264 2.60034 151.372 1.68943C151.418 1.29622 152.287 0.916837 152.991 0.369501C153.469 0.476202 154.183 0.636254 154.712 0.75481C155.385 0.683676 156.197 0.598711 157.528 0.460395C156.747 0.908934 156.331 1.14802 156.059 1.30215C156.896 1.37526 157.657 1.44046 158.417 1.50567C157.518 1.80996 156.614 2.11426 155.262 2.5707C157.446 2.46202 159.332 2.36916 161.213 2.27629C161.233 2.2091 161.249 2.14192 161.269 2.07474C160.647 2.03917 160.026 2.00163 159.049 1.94433C162.061 0.654037 163.628 2.32964 165.781 2.17947C165.781 2.81177 165.781 3.37886 165.781 3.94596C167.04 2.7841 169.075 2.10833 172.348 2.2506C174.357 2.33754 176.5 2.48178 178.196 2.85919C178.91 3.01924 178.72 3.84519 178.746 4.37079C178.761 4.73041 178.437 5.092 178.268 5.45163C178.514 5.47336 178.766 5.4951 179.013 5.51486C179.465 5.00111 179.922 4.48737 180.375 3.97362C181.418 3.87482 182.456 3.77405 183.262 3.69699C183.262 3.2445 183.262 2.84536 183.262 2.45215C178.098 2.65172 177.862 2.61615 178.016 1.82182C178.715 1.89295 179.64 2.11228 180.071 2.01349C182.723 1.40687 183.668 1.47208 184.927 2.49364C185.189 2.70507 185.318 2.9402 185.534 3.19708C185.123 3.29982 184.66 3.41838 184.198 3.53496C184.239 3.60017 184.28 3.66735 184.321 3.73256C185.267 3.69304 186.212 3.65154 187.291 3.6061C187.394 3.89063 187.533 4.28187 187.671 4.6731C187.815 4.67508 187.959 4.67508 188.103 4.67706C188.9 3.83728 189.696 2.99751 190.498 2.15773C190.179 2.09845 189.866 2.03917 189.547 1.97989C191.659 1.74673 192.789 1.16976 193.905 0.517697C194.958 -0.0987971 196.762 0.250945 198.221 0.397165C198.951 0.470274 199.588 0.683676 200.698 0.928693C199.12 1.21323 197.738 1.46022 196.351 1.70919C196.381 1.76254 196.412 1.81589 196.443 1.86924C197.527 1.86924 198.611 1.86924 199.696 1.86924L199.691 1.87122C199.876 2.26641 200.055 2.66357 200.22 3.01726C198.812 3.42826 196.397 3.00936 196.104 3.96769C195.318 3.70687 194.547 3.44012 193.745 3.1872C193.175 3.00541 192.568 2.83745 191.978 2.66357C191.787 2.74854 191.597 2.83548 191.407 2.92044C192.404 3.33737 193.344 3.77998 194.444 4.15146C194.66 4.23049 195.503 4.02697 196.052 3.95189ZM189.86 74.8171C187.276 74.4614 184.429 75.0819 184.378 75.6766C186.171 75.396 188.016 75.1076 189.86 74.8171ZM32.8653 76.5184C33.0914 76.4176 33.3124 76.3149 33.5385 76.2141C32.1511 75.7893 30.7637 75.3644 29.3762 74.9396C29.258 74.9752 29.1399 75.0107 29.0217 75.0463C29.7925 75.5601 30.5581 76.0738 31.3546 76.6073C31.6372 76.5915 32.2539 76.554 32.8653 76.5184ZM212.46 12.324C212.481 12.4405 212.501 12.5551 212.522 12.6717C214.038 12.6263 215.554 12.5808 217.064 12.5334C217.013 12.3655 216.962 12.1955 216.91 12.0276C215.425 12.1264 213.94 12.2252 212.46 12.324Z" fill="url(#paint0_linear_2544_424)"/>
<defs>
<linearGradient id="paint0_linear_2544_424" x1="-30.4322" y1="50.5141" x2="264.191" y2="71.5403" gradientUnits="userSpaceOnUse">
<stop stop-color="#1E1700"/>
<stop offset="0.1875" stop-color="#6A581D"/>
<stop offset="0.515124" stop-color="#1E1700"/>
<stop offset="0.756211" stop-color="#6A581D"/>
<stop offset="1" stop-color="#1E1700"/>
</linearGradient>
</defs>
</svg>
