<?xml version="1.0" standalone="no"?>
<!DOCTYPE svg PUBLIC "-//W3C//DTD SVG 20010904//EN"
 "http://www.w3.org/TR/2001/REC-SVG-20010904/DTD/svg10.dtd">
<svg version="1.0" xmlns="http://www.w3.org/2000/svg"
 width="428.000000pt" height="180.000000pt" viewBox="0 0 428.000000 180.000000"
 preserveAspectRatio="xMidYMid meet">

<g transform="translate(0.000000,180.000000) scale(0.100000,-0.100000)"
fill="#000000" stroke="none">
<path d="M0 900 l0 -900 2140 0 2140 0 0 900 0 900 -2140 0 -2140 0 0 -900z
m3195 324 c119 -30 201 -98 256 -210 32 -65 34 -75 34 -174 0 -96 -3 -110 -29
-160 -43 -82 -72 -116 -136 -159 -114 -75 -63 -72 -1185 -69 l-1000 3 -65 31
c-177 84 -266 272 -218 461 32 130 144 241 278 277 85 23 1978 23 2065 0z"/>
<path d="M2154 950 c-636 -4 -741 -7 -699 -18 72 -18 279 -73 516 -137 113
-30 216 -55 229 -55 18 0 573 144 765 199 29 8 28 8 -16 12 -26 2 -384 2 -795
-1z"/>
</g>
</svg>
