<?xml version="1.0" standalone="no"?>
<!DOCTYPE svg PUBLIC "-//W3C//DTD SVG 20010904//EN"
 "http://www.w3.org/TR/2001/REC-SVG-20010904/DTD/svg10.dtd">
<svg version="1.0" xmlns="http://www.w3.org/2000/svg"
 width="356.000000pt" height="166.000000pt" viewBox="0 0 356.000000 166.000000"
 preserveAspectRatio="xMidYMid meet">

<g transform="translate(0.000000,166.000000) scale(0.100000,-0.100000)"
fill="#000000" stroke="none">
<path d="M0 830 l0 -830 1780 0 1780 0 0 830 0 830 -1780 0 -1780 0 0 -830z
m2802 349 c123 -26 233 -113 286 -227 24 -50 27 -69 27 -162 0 -97 -2 -110
-30 -164 -45 -90 -96 -140 -183 -183 l-76 -38 -1010 -3 c-986 -2 -1013 -2
-1076 18 -118 36 -217 136 -255 255 -13 42 -16 78 -13 140 6 110 44 191 126
266 63 57 99 76 182 95 75 17 1943 19 2022 3z"/>
<path d="M1665 931 c-77 -21 -248 -66 -380 -101 -132 -35 -244 -67 -249 -72
-6 -4 352 -8 794 -8 442 0 800 4 795 8 -6 5 -64 23 -130 40 -66 18 -238 64
-383 102 -145 39 -273 70 -285 69 -12 0 -85 -17 -162 -38z"/>
</g>
</svg>
