<svg width="33" height="36" viewBox="0 0 33 36" fill="none" xmlns="http://www.w3.org/2000/svg">
<path d="M3.3 9.81818V32.7273H26.4V36H3.3C1.485 36 0 34.5273 0 32.7273V9.81818H3.3ZM29.7 3.27273C31.515 3.27273 33 4.74545 33 6.54545V26.1818C33 27.9818 31.515 29.4545 29.7 29.4545H9.9C8.085 29.4545 6.6 27.9818 6.6 26.1818V6.54545C6.6 4.74545 8.085 3.27273 9.9 3.27273H15.147C15.84 1.37455 17.655 0 19.8 0C21.945 0 23.76 1.37455 24.453 3.27273H29.7ZM19.8 3.27273C18.8925 3.27273 18.15 4.00909 18.15 4.90909C18.15 5.80909 18.8925 6.54545 19.8 6.54545C20.7075 6.54545 21.45 5.80909 21.45 4.90909C21.45 4.00909 20.7075 3.27273 19.8 3.27273ZM13.2 9.81818V6.54545H9.9V26.1818H29.7V6.54545H26.4V9.81818M21.45 22.9091H13.2V19.6364H21.45M26.4 16.3636H13.2V13.0909H26.4V16.3636Z" fill="black"/>
</svg>
