<svg width="337" height="201" viewBox="0 0 337 201" fill="none" xmlns="http://www.w3.org/2000/svg">
<g filter="url(#filter0_i_861_15)">
<path d="M292.276 9.92911C294.632 9.80003 296.996 9.66599 298.906 9.56174C299.75 10.9617 300.487 12.1731 301.216 13.3844C301.515 13.1561 301.807 12.9277 302.106 12.6944C303.749 13.0965 306.204 13.2156 306.841 13.9752C307.77 15.0774 307.394 16.6462 307.578 18.0114C307.171 18.1107 306.764 18.21 306.358 18.3093C307.386 18.488 308.414 18.6667 309.673 18.8852C308.299 21.7894 312.397 21.7001 315.313 22.3455L315.229 22.2958C316.081 22.9909 316.932 23.6859 317.938 24.5051C317.109 24.7731 316.526 24.9618 315.114 25.4136C319.58 27.8015 323.716 30.0207 328.029 32.3292C328.052 32.3044 327.745 32.7959 327.507 32.7859C324.637 32.6221 322.979 33.7491 322.005 35.1788C320.953 36.7278 319.258 36.42 317.454 36.2611C317.846 36.1122 318.605 35.854 318.582 35.8242C317.354 34.1214 316.065 32.4384 314.638 30.5568C313.18 32.2299 314.331 34.1264 317.569 36.2363C318.245 36.9562 318.912 37.676 319.657 38.4703C321.161 37.3086 323.064 36.9512 323.179 38.6987C323.378 41.7072 325.328 44.6413 324.138 47.7193C323.977 48.1363 324.629 48.7172 325.013 49.1839C326.11 50.5491 327.73 51.82 328.282 53.2647C328.988 55.1364 329.732 56.7399 332.756 57.5392C334.199 57.9215 335.004 58.5967 333.715 59.5945L333.8 59.5399C333.147 59.8874 332.495 60.235 331.812 60.5974C331.927 59.952 332.027 59.3562 332.042 59.2917C329.809 58.7456 328.052 58.3137 326.272 57.8768C326.08 59.113 325.872 60.4733 325.642 61.9726C324.798 61.8832 323.593 61.7541 322.718 61.6598C321.897 63.3825 321.092 65.0605 320.278 66.7634C325.328 67.1059 319.825 70.7002 323.171 71.8074C323.593 71.3407 323.847 70.7003 324.284 70.6456C326.686 70.3279 329.149 69.8612 331.482 70.879C331.927 71.0726 332.495 71.152 333.001 71.2811C332.449 71.5194 331.935 71.8173 331.329 71.9811C327.2 73.1081 323.056 74.2052 318.92 75.3123C319.043 75.5457 319.173 75.779 319.296 76.0074C321.713 75.6747 324.123 75.3372 327.338 74.8953C325.619 75.8137 324.591 76.3598 323.064 77.174C324.307 77.2435 325.013 77.2833 326.809 77.3875C324.576 78.7379 322.695 79.7854 320.977 80.9322C319.296 82.0542 317.776 83.2755 316.426 84.6457C319.971 84.0549 321.222 80.545 326.233 81.7464C326.341 79.1946 328.65 78.6138 332.518 78.996C331.413 80.8577 330.615 82.6152 329.349 84.2187C328.083 85.8223 326.341 87.2719 324.553 89.0393C323.916 88.3095 323.509 87.8379 323.187 87.4705C322.872 88.6571 322.573 89.8088 322.22 91.1294C327.684 91.6259 326.717 94.7089 327.837 96.789C325.573 97.5089 323.578 98.1443 321.437 98.8245C321.897 99.2514 322.296 99.6238 322.803 100.095C321.636 100.607 320.524 101.093 319.58 101.51C320.178 102.414 320.723 103.233 321.437 104.305C319.588 104.305 318.36 104.305 316.572 104.305C316.925 105.76 317.239 107.026 317.546 108.292C317.899 108.267 318.26 108.247 318.613 108.222C318.436 107.14 318.252 106.053 318.045 104.807C321.659 105.79 324.66 106.604 327.998 107.507C326.625 108.302 325.665 108.863 324.614 109.473C322.926 109.409 320.938 109.339 318.974 109.265C318.789 109.399 318.452 109.548 318.482 109.627C320.132 113.162 321.299 116.881 327.238 118.708C327.776 118.871 328.067 119.437 328.366 119.844C329.241 121.026 329.41 122.337 331.896 123.037C332.81 123.295 332.388 125.534 332.572 126.874C332.134 126.919 331.697 126.969 331.26 127.013C330.953 126.408 330.638 125.802 330.331 125.196C330.101 125.176 329.863 125.156 329.633 125.137C329.533 125.732 329.425 126.323 329.349 126.775C326.962 127.43 323.885 124.963 321.291 127.52C325.542 128.051 329.541 128.547 334.306 129.138C330.615 130.548 327.346 131.794 324.077 133.045C324.192 133.274 324.299 133.497 324.414 133.725C325.765 133.725 327.116 133.725 328.796 133.725C329.111 134.271 329.541 135.011 329.901 135.632C330.899 135.433 331.751 135.259 332.756 135.061C332.342 136.62 331.981 137.975 331.582 139.464C330.592 139.077 329.203 138.531 328.021 138.069C327.921 138.903 327.829 139.673 327.737 140.442C326.302 139.559 324.875 138.675 322.818 137.409C323.401 139.574 323.916 141.495 324.43 143.416C324.668 143.416 324.906 143.421 325.143 143.421C325.143 143.019 325.028 142.597 325.174 142.215C325.328 141.788 325.719 141.4 326.003 140.993C326.617 141.286 327.346 141.51 327.814 141.877C329.019 142.801 329.825 144.126 331.321 144.647C332.764 145.149 334.874 144.846 337 144.91C337.038 146.36 334.321 146.171 332.909 146.022C331.029 145.824 329.341 144.891 326.993 144.071C326.394 144.578 325.174 145.61 323.923 146.663C322.273 146.737 320.37 146.827 318.905 146.896C320.508 148.048 322.388 149.051 323.501 150.337C324.177 151.111 323.847 152.332 323.632 153.325C323.332 154.656 323.071 156.081 322.135 157.247C320.662 159.084 317.884 158.449 315.444 158.22C313.817 158.067 312.19 157.898 310.11 158.106C317.899 158.498 318.843 161.77 318.076 165.786C315.781 165.786 313.049 165.786 310.31 165.786C310.264 166.005 310.218 166.218 310.179 166.437C313.333 166.73 316.487 167.018 319.488 167.296C319.848 168.204 320.148 168.954 320.186 169.053C318.398 170.463 316.902 171.635 315.444 172.821C315.405 172.851 315.658 173.119 315.827 173.144C316.004 173.174 316.242 173.05 316.457 172.99V172.985C316.917 174.643 317.37 176.296 317.677 177.403C315.083 178.009 313.272 178.431 311.453 178.853C312.865 181.286 309.696 184.13 306.342 183.753C304.746 183.574 303.012 182.691 303.234 184.746C303.242 184.83 302.398 185.089 302.037 185.034C298.262 184.453 298.638 186.494 297.886 187.357C299.612 187.189 301.462 187.02 303.311 186.821C303.672 186.782 304.086 186.677 304.316 186.513C308.084 183.857 312.198 184.632 316.403 185.923C316.403 186.816 316.403 187.66 316.403 188.901C317.493 188.246 318.222 187.809 318.935 187.382C321.567 189.06 321.153 189.492 315.474 190.977C315.336 190.867 315.129 190.768 315.068 190.639C314.853 190.157 314.929 189.443 314.454 189.224C312.489 188.335 310.356 187.601 308.284 186.806C308.138 187.01 307.992 187.213 307.839 187.417C309.197 188.653 310.555 189.889 311.906 191.125C311.499 191.319 311.092 191.513 310.693 191.706C309.289 190.505 307.885 189.304 306.388 188.018C305.107 188.062 303.495 188.122 301.884 188.182C301.784 188.306 301.692 188.425 301.592 188.549C303.756 189.184 305.913 189.82 308.077 190.455C307.946 190.659 307.823 190.862 307.693 191.061C307.018 190.882 306.335 190.704 305.659 190.525C305.506 190.654 305.352 190.778 305.199 190.907C306.465 191.602 307.724 192.302 308.591 192.779C312.627 191.547 315.996 193.275 319.81 193.682C317.462 196.224 315.52 193.072 313.065 194.005C313.54 194.566 314.062 195.187 314.692 195.926C312.942 196.542 311.1 197.197 309.258 197.852C309.005 197.639 308.744 197.43 308.491 197.217C309.673 196.433 310.855 195.653 312.036 194.869C311.937 194.67 311.845 194.472 311.745 194.273C310.532 194.536 308.982 194.581 308.169 195.102C306.15 196.398 304.531 195.991 302.582 194.988C303.012 194.362 303.503 193.801 303.787 193.196C304.286 192.138 304.439 191.389 301.976 192.079C301.638 192.173 300.073 190.44 298.653 189.174C297.287 189.174 294.939 189.174 292.598 189.174C292.583 188.961 292.568 188.747 292.545 188.534C289.889 189.855 287.242 191.175 284.587 192.491C284.84 192.774 285.093 193.062 285.347 193.345C287.771 192.873 290.196 192.401 292.614 191.93C293.358 192.466 294.202 193.077 295.123 193.742C293.427 194.174 291.724 194.874 289.936 194.978C288.715 195.048 287.418 194.223 286.091 193.921C285.339 193.752 284.449 193.836 283.62 193.801C284.18 192.089 283.958 190.505 281.003 188.683C281.993 190.808 279.415 192.853 283.712 193.732C282.73 194.457 281.747 195.182 280.995 195.738C278.847 194.382 276.399 192.838 273.943 191.294C273.652 191.463 273.36 191.627 273.061 191.796C273.345 191.116 273.636 190.43 273.92 189.75C273.728 189.646 273.529 189.537 273.337 189.433C272.731 189.909 271.557 190.406 271.595 190.852C271.933 194.134 268.31 192.913 265.878 193.062C264.65 193.136 263.177 192.987 262.256 193.379C260.322 194.204 258.779 194.367 257.743 193.474C256.147 193.548 254.812 193.355 254.014 193.692C250.407 195.211 246.785 196.269 242.242 196.239C240.692 196.229 239.119 197.952 237.27 199.054C236.732 198.865 235.904 198.567 234.791 198.175C234.1 199.054 233.387 199.952 232.558 201C231.414 201 229.941 201 228.153 201C230.018 199.59 231.645 198.359 233.271 197.128C235.827 197.351 236.955 196.587 237.039 194.973C234.837 194.859 232.834 194.76 230.823 194.655C230.823 193.945 230.823 193.24 230.823 192.61C227.999 192.183 225.137 191.751 222.091 191.294C221.024 194.065 216.719 191.721 213.895 192.525C216.826 194.447 216.819 198.195 214.509 198.885C212.253 196.105 210.004 193.335 207.756 190.564C207.426 190.644 207.096 190.723 206.758 190.808C207.288 192.153 207.825 193.499 208.554 195.36C207.042 194.437 206.037 193.826 204.886 193.121C204.64 193.578 204.356 194.094 203.98 194.784C200.051 192.739 196.199 190.733 192.354 188.733C193.091 191.145 198.969 191.399 196.613 194.789C199.859 194.988 202.261 195.609 201.724 197.808C201.64 198.145 199.89 198.319 199.314 198.463C199.169 197.247 199.076 196.527 198.938 195.385C197.572 196.656 196.728 197.445 195.93 198.19C193.843 197.351 192.17 196.686 190.497 196.016C190.597 195.34 190.697 194.655 190.904 193.27C189.722 194.506 189.108 195.152 188.494 195.802C188.187 195.757 187.88 195.713 187.581 195.668C187.581 194.392 187.581 193.111 187.581 191.021C185.908 194.362 183.33 192.382 181.703 192.372C180.291 193.489 179.14 194.397 177.989 195.311C177.72 195.152 177.451 194.998 177.183 194.839C177.774 194.501 178.357 194.164 179.255 193.647C177.835 193.489 176.814 193.369 175.886 193.265C175.034 194.03 174.213 194.769 173.308 195.589C171.842 194.904 170.629 194.333 169.386 193.752C169.992 192.913 170.622 192.034 171.297 191.096C169.217 191.667 167.521 192.133 165.641 192.65C164.989 192.029 164.36 191.433 163.8 190.907C162.211 191.22 160.692 191.523 158.881 191.88C158.773 190.803 158.704 190.088 158.604 189.08C156.302 189.303 154.192 189.512 152.074 189.716C152.143 189.969 152.212 190.222 152.281 190.475C153.417 190.282 154.568 189.914 155.688 189.949C156.402 189.974 157.737 190.783 157.645 190.927C156.693 192.372 155.542 193.762 154.353 195.132C154.077 195.45 153.432 195.633 152.703 196.006C152.258 194.079 147.324 193.072 151.176 190.733C150.662 190.5 150.34 190.232 150.094 190.257C144.362 190.808 138.959 191.87 134.946 194.784C132.805 196.338 132.904 196.398 130.034 195.365C129.635 197.699 126.481 198.478 120.319 197.718C120.634 196.621 121.041 195.524 121.225 194.412C121.371 193.518 121.255 192.61 121.255 191.165C121.355 191.036 121.915 190.286 122.476 189.542C121.938 189.413 121.401 189.289 120.856 189.16C120.242 190.569 119.629 191.979 118.961 193.518C118.47 193.583 117.618 193.687 116.697 193.806C120.12 194.769 119.176 195.887 116.551 197.475C115.354 195.941 114.311 194.601 113.106 193.047C109.722 193.191 108.317 194.084 107.419 196.889C107.227 197.485 106.207 197.972 105.271 198.761C104.956 197.118 104.212 196.016 101.342 197.356C101.541 196.621 101.641 196.249 101.702 196.03C100.49 195.991 99.2313 195.951 97.9728 195.911C97.896 195.648 97.8193 195.385 97.7426 195.122C99.5229 194.546 101.303 193.97 103.084 193.394C103.03 193.186 102.976 192.982 102.915 192.774C99.8529 193.057 96.791 193.345 93.7291 193.628C93.7214 193.747 93.7137 193.866 93.7061 193.99C94.6269 194.06 95.5401 194.129 96.461 194.199C96.507 194.387 96.5531 194.576 96.5991 194.765C94.9723 194.933 93.2533 195.395 91.7492 195.191C90.1761 194.978 88.8101 194.119 87.59 193.638C87.306 192.66 87.0221 191.701 86.7458 190.738C83.5381 193.916 80.5683 193.876 74.7055 193.166C73.1707 192.977 71.6513 192.744 70.1088 192.59C67.868 192.367 66.9625 190.748 67.8527 188.837C68.3975 187.675 68.6431 186.449 68.1903 185.099C67.7299 185.64 66.9548 186.161 66.8704 186.727C66.3793 189.904 63.0565 190.043 59.2809 189.879C58.0378 189.825 56.7716 189.999 55.2598 190.078C55.2598 188.46 55.2598 186.916 55.2598 185.372C54.9375 185.342 54.6152 185.307 54.2929 185.277C53.7634 186.782 53.3337 188.301 52.6814 189.785C52.0368 191.245 51.1619 192.66 50.3869 194.099C50.7169 194.228 51.0468 194.357 51.3768 194.487C50.2487 194.675 49.1207 194.864 47.7777 195.092C46.2506 198.786 43.9715 199.208 35.699 196.706C36.8348 196.368 37.7249 196.105 38.523 195.872C37.5024 194.839 36.6659 194.248 36.3053 193.553C35.9983 192.967 36.2439 192.257 36.2439 191.577C38.2084 191.096 40.311 190.579 42.4137 190.068C42.2832 189.815 42.1604 189.557 42.03 189.304C39.6971 189.447 37.3643 189.596 35.5148 189.711C34.617 188.256 33.865 187.035 33.1129 185.813C32.8366 186.047 32.5604 186.275 32.2841 186.508C30.7877 186.225 28.4548 186.216 27.9867 185.61C27.1119 184.463 26.8587 182.919 27.1887 181.633C27.5723 180.149 27.7258 180.02 24.6179 180.079C25.8764 177.374 23.0831 177.081 19.0313 176.669C21.7402 177.791 23.8505 178.56 21.909 179.881C23.1138 181.102 24.0961 182.09 25.0783 183.078C24.4567 183.247 23.8428 183.416 23.7047 183.455C23.2212 185.65 22.7531 187.789 22.285 189.909C20.4126 189.467 18.7934 189.085 17.1742 188.703C17.0131 188.901 16.8519 189.105 16.6907 189.304C17.4044 189.711 18.1181 190.118 19.392 190.838C17.4658 190.763 16.2226 190.718 14.1891 190.639C13.9588 190.267 13.414 189.403 12.8461 188.484C17.6884 188.961 15.0025 186.121 16.5142 185.079C15.0716 185.446 13.6289 185.813 12.1862 186.176C11.9866 185.962 11.7948 185.749 11.5953 185.53C13.6902 184.677 15.7852 183.818 17.7497 183.018C17.627 182.1 17.4965 181.157 17.3737 180.213C17.1896 180.154 17.0054 180.094 16.8212 180.04C16.1919 180.968 15.5627 181.901 14.872 182.919C12.3627 182.239 10.6667 182.105 10.8049 184.622C10.8893 186.26 9.51564 187.923 8.95545 189.596C8.80964 190.033 9.27008 190.55 9.56169 191.324C8.20341 190.927 7.13673 190.609 6.42306 190.401C6.77606 189.199 7.05232 188.266 7.32858 187.328C6.41539 187.486 5.49452 187.65 4.48924 187.824C0.291609 183.599 0.291608 183.599 1.71896 183.604C3.08491 184.463 4.44319 185.327 6.07006 186.355C6.77606 185.784 7.3516 185.317 8.03458 184.761C6.88349 184.354 5.94728 184.021 4.71178 183.579C5.54056 183.291 6.10843 183.088 6.92186 182.805C6.08541 182.323 5.31034 181.877 3.66045 180.923C6.82978 181.107 8.90941 181.231 10.989 181.35C11.0504 181.092 11.1118 180.839 11.1732 180.581C10.2754 180.382 9.37751 180.184 8.47967 179.985C8.37223 179.791 8.27247 179.598 8.16504 179.404C11.1348 178.858 14.1123 178.312 17.673 177.662C17.673 176.425 17.673 175.025 17.673 173.62C18.0644 173.576 18.4481 173.536 18.8394 173.491C17.0131 172.255 15.2174 170.999 13.3449 169.793C12.4548 169.217 11.4188 168.74 10.4519 168.214C13.8514 168.05 17.2433 167.881 20.6275 167.713C21.3718 165.533 18.3406 162.783 16.0845 163.001C16.9593 164.312 17.8955 165.697 18.8778 167.162C17.2356 167.087 15.8927 167.018 14.5421 166.968C12.8154 166.903 10.7818 166.462 10.5746 168.298C9.53867 167.867 8.50269 167.44 7.47438 167.008C7.19812 166.759 6.92954 166.511 6.65328 166.263C5.70939 167.524 4.75782 168.78 3.81393 170.041C3.29211 169.674 2.77028 169.311 2.24845 168.944C4.71178 168.12 5.00339 165.573 9.1473 165.945C9.86097 166.01 10.7665 164.779 11.7181 164.242C13.2145 163.403 14.826 162.654 16.215 161.954C15.6087 162.003 15.6548 159.65 13.1607 161.244C12.5315 160.653 11.4648 160.097 11.3574 159.467C10.8739 156.602 10.6974 153.718 10.3214 150.848C10.26 150.401 9.79958 149.949 9.40821 149.552C8.51804 148.644 6.9986 147.835 6.72234 146.866C5.90891 143.987 3.79091 141.793 0.0153478 140.234L0 140.254C2.6168 140.378 5.2336 140.497 8.10365 140.636C8.99382 139.454 7.60484 136.739 12.1324 137.126C13.6519 133.735 12.2322 130.454 12.0557 126.874C8.42595 129.088 3.39954 129.183 0.867151 127.331C3.3228 126.765 5.80915 126.274 8.19573 125.623C10.6207 124.963 12.9459 124.144 15.3171 123.394C15.2404 123.191 15.1713 122.987 15.0946 122.783C12.7233 123.131 10.3444 123.478 7.12139 123.95C8.7943 123.012 9.79958 122.451 11.3574 121.582C10.0758 121.522 9.4696 121.498 8.86336 121.468C8.7943 118.042 16.7138 118.34 16.7445 114.508C13.9281 115.495 12.9152 118.529 9.60006 116.866C7.84273 118.156 6.36934 119.249 4.55063 120.584C2.00289 116.513 5.03408 111.509 9.27008 111.42C9.00149 110.918 8.73291 110.412 8.31851 109.642C9.56169 109.871 10.3598 110.015 11.1732 110.164C11.6029 109.315 11.9943 108.545 12.378 107.781C7.65856 106.326 6.03169 104.281 7.33626 101.56C11.8332 101.505 12.9996 100.756 12.1248 98.3578C13.0456 98.0202 14.0126 97.6628 14.9488 97.3152C14.4116 96.4067 13.9205 95.5677 13.2989 94.5202C14.9181 94.401 16.1152 94.3117 17.274 94.2223C17.7958 91.0053 17.6346 90.7571 15.0716 90.8812L15.1483 90.9358C16.8212 86.5273 13.4984 83.3301 8.90173 80.5301C8.2648 80.1428 6.73002 80.3762 6.74536 80.3762C5.54823 78.8868 4.66574 77.6655 3.60674 76.5088C2.24845 75.0194 0.928543 73.5499 2.68587 71.5144C4.0288 71.6435 6.10076 71.8769 8.18806 72.0357C9.86864 72.1598 11.5646 72.1946 13.3219 71.713C14.5958 72.0754 15.862 72.4378 17.1358 72.8003C17.2893 72.4378 17.4351 72.0804 17.5886 71.718C12.2936 71.0776 6.9986 70.4371 1.69593 69.7967C3.28443 67.5726 9.68447 68.5854 9.69982 65.2641C7.33626 64.8421 5.04943 64.5839 2.93143 64.0329C-1.77267 62.8066 6.43841 60.7364 2.44798 59.2123C3.68348 59.6541 4.92665 60.096 7.12906 60.8804C6.38469 58.825 6.20052 57.1818 5.15687 55.8165C4.31274 54.7144 2.42495 53.9548 1.48874 52.7037C3.06189 52.9718 4.64271 53.2349 6.15447 53.4931C6.21586 54.0342 6.28493 54.6697 6.38469 55.5981C7.99621 54.2825 9.40821 53.1307 10.6053 52.1477C12.1862 52.0186 13.6672 51.8945 15.1483 51.7754C9.36217 49.2881 8.64082 43.8768 13.767 41.7767C13.2682 41.7221 12.7464 41.6675 12.2245 41.6129C12.2092 41.3498 12.1938 41.0867 12.1785 40.8285C14.2428 40.6895 16.3071 40.4016 18.356 40.4562C20.3205 40.5058 22.2543 40.9129 24.2035 41.1611C24.3033 40.9377 24.403 40.7094 24.5028 40.486C22.1162 40.0044 19.7219 39.5179 17.2586 39.0164C16.8596 37.1001 16.4375 35.0994 15.9541 32.8157C18.5632 32.8952 21.3181 32.9795 24.073 33.059C24.1037 32.7909 24.1268 32.5228 24.1575 32.2597C23.1522 32.2597 22.1162 32.354 21.1493 32.2398C19.6759 32.0611 18.2025 31.8129 16.8135 31.4505C15.6701 31.1526 14.6648 30.6412 13.5982 30.2242C10.9276 30.2242 7.96552 30.2242 4.80387 30.2242C8.57943 27.7866 3.49163 27.2157 2.0873 26.5703C-0.790412 25.2497 1.11272 24.1575 1.5578 23.0008C1.78802 22.3902 2.6168 21.8788 3.61441 20.8809C4.72713 21.9284 6.15447 23.2738 8.25712 25.2547C7.60484 21.4022 10.6898 21.5511 13.6519 21.8043C14.7339 23.1994 15.7392 24.5051 16.921 26.0341C15.6241 26.6795 13.7747 27.6029 11.9329 28.5263C12.2859 28.8143 12.6313 29.1022 12.9843 29.3852C15.0178 28.4022 17.0514 27.4192 18.1411 26.898C17.9262 24.3114 17.7574 22.3206 17.5886 20.3299L17.4428 20.3944C18.6322 20.5433 19.9138 20.9206 20.9958 20.7618C21.7172 20.6575 22.6687 19.7689 22.6457 19.2476C22.5152 16.249 24.426 15.2263 29.1685 15.7525C29.9206 15.8369 30.8568 15.2213 31.7086 14.9284C31.5628 14.7298 31.417 14.5263 31.2635 14.3277C32.4913 14.3277 33.7191 14.3277 35.1542 14.3277C35.7834 13.3646 36.3897 12.4312 37.3412 10.9667C35.5686 11.8901 34.6707 12.6993 33.535 12.883C29.7594 13.5036 25.8994 13.9057 22.0778 14.3873L22.2006 14.4419C20.7042 13.9454 19.2078 13.449 17.8495 12.9972C17.9723 12.2128 18.1181 11.2596 18.2639 10.3064C17.9953 10.2518 17.719 10.2022 17.4505 10.1476C17.0054 10.5497 16.568 10.9568 15.7622 11.6915C15.1406 11.0164 13.9665 10.0085 14.1507 9.8894C15.6011 8.96599 17.3123 8.21634 19.7987 6.98513C18.4327 11.0561 22.638 9.10003 24.5642 10.4206C23.8658 8.94117 23.4515 8.07237 23.0371 7.20357C23.275 7.11917 23.5205 7.02981 23.7584 6.94542C25.1704 8.22131 26.5901 9.50216 27.9637 10.7383C29.6443 10.6639 31.3479 10.5844 34.0645 10.4653C31.0179 9.61635 28.7695 8.98585 26.5287 8.36031C26.6745 8.13194 26.8126 7.90357 26.9584 7.6752C27.4879 7.85889 28.0098 8.04258 28.57 8.24116C28.1863 6.70712 21.157 5.34683 14.3962 5.57023C14.9411 4.9447 15.3939 4.41349 15.8313 3.91207C17.6884 4.23973 19.3459 4.52768 20.9958 4.82058C21.1186 4.64683 21.249 4.47307 21.3718 4.29434C20.827 3.84257 20.2591 3.38583 19.6452 2.88441C21.4332 2.23405 23.0601 1.6383 24.687 1.04752C24.9172 1.22625 25.1551 1.40993 25.3853 1.58866C24.4798 2.44753 23.5819 3.30143 22.6764 4.1603C22.8145 4.34895 22.9527 4.53761 23.0908 4.72626C24.9632 4.17519 26.828 3.62413 29.2913 2.89434C32.3378 3.52484 31.4246 5.43619 31.2712 7.54613C31.9081 7.00995 32.5374 6.46882 33.2434 5.86811C33.888 7.283 34.4942 8.62344 35.2539 10.3015C37.9244 10.0185 40.7408 9.36812 43.4497 9.52202C47.6089 9.75535 47.7087 7.48655 49.7806 6.46385C49.6118 6.27024 49.443 6.07662 49.2742 5.88796C47.8852 6.17094 46.4809 6.43407 45.0995 6.74187C42.076 7.41705 39.7815 6.7369 39.4132 4.8752C39.3134 4.35392 40.1806 3.7532 40.6026 3.18725C41.2933 3.55959 41.9839 3.93193 42.6669 4.30427C42.6976 4.21987 42.7206 4.14044 42.7513 4.05604C43.8257 4.40853 44.8847 5.03406 45.9744 5.05888C48.4454 5.11349 50.9317 4.87023 53.4104 4.74612C53.4871 4.43831 53.5639 4.13051 53.6329 3.82271C52.2363 3.06313 50.8396 2.30355 49.2895 1.45958C52.7735 1.84185 53.8248 2.65604 54.715 4.74115C54.9912 5.38158 56.5951 5.74399 57.4238 6.33477C58.3908 7.02981 59.1735 7.83407 60.033 8.58868C58.7668 9.04542 57.5236 9.53691 56.219 9.94897C55.2214 10.2617 54.1548 10.4752 53.1111 10.7383C52.4742 9.16954 55.091 7.05464 50.3792 5.5603C51.0929 8.03762 51.6454 9.93408 52.3744 12.471C56.2958 11.2 60.4167 9.86457 64.4224 8.56386C63.7471 7.9284 62.8493 7.29293 62.9874 7.17875C63.5553 6.71705 64.3611 6.19577 65.1975 6.08655C68.2364 5.70428 71.3059 5.34683 74.3832 5.26243C75.5266 5.23264 76.7237 5.97236 77.729 6.57307C78.8494 6.94542 76.9923 3.8525 80.1233 5.74896C80.4149 5.92272 81.7808 5.4213 82.5866 5.15321C84.4974 4.51775 86.3391 3.78796 88.2729 3.18725C91.2734 2.25887 94.297 1.36525 97.3819 0.55603C97.9958 0.3922 98.8936 0.680144 99.661 0.759577V0.749648C98.7785 2.00568 97.8884 3.26171 97.1133 4.35888C99.5843 4.52768 101.725 4.67165 104.104 4.83051C103.943 5.4064 103.751 6.09648 103.621 6.59293C106.445 7.10925 109.184 7.61067 112.146 8.1518C113.466 5.15321 117.871 7.80925 120.695 6.63265C116.29 4.48796 119.13 2.30355 119.744 0C122.123 3.01349 124.356 5.83832 126.581 8.66315C126.965 8.56882 127.348 8.46953 127.725 8.37521C127.18 7.11421 126.635 5.85818 125.821 3.98157C127.487 4.90498 128.569 5.50073 129.896 6.23548C129.896 5.59009 129.896 5.09364 129.896 3.77803C132.459 5.36669 134.263 6.61775 136.281 7.6901C138.107 8.65819 140.179 9.42769 142.397 10.1128C140.456 8.29577 135.874 7.54116 137.739 4.53264C132.897 3.88228 132.429 3.50994 133.004 0.248228C134.009 1.0227 134.608 1.4844 135.352 2.06029C138.338 0.203547 140.525 2.75533 143.303 2.9837C147.408 3.31632 147.446 4.92484 147.324 7.01492C147.631 6.61279 147.938 6.21563 148.214 5.84825C149.956 6.24045 151.69 6.63265 153.409 7.01988C154.698 4.64683 158.85 3.09292 161.835 3.8376C162.771 4.07094 164.022 4.75108 164.099 5.28725C164.436 7.74967 166.654 7.20854 168.987 6.69222C169.54 7.27308 170.069 7.82911 170.583 8.37024C172.187 8.05251 173.737 7.74471 175.518 7.39719C175.594 8.46953 175.648 9.27379 175.709 10.2121C178.05 9.97876 180.153 9.77025 182.263 9.56174C182.217 9.32344 182.163 9.0901 182.117 8.8518C180.344 9.03549 178.579 9.21918 176.185 9.47237C178.027 7.19364 179.546 5.322 181.618 2.76029C182.209 4.32413 182.524 5.14825 182.839 5.9674C182.831 5.9674 182.954 5.96243 182.992 5.92272C183.053 5.85321 183.023 5.74896 183.084 5.68442C183.337 5.45108 183.614 5.22768 184.588 4.40356C184.327 6.29506 184.166 7.46173 183.982 8.80216C186.698 8.62344 189.845 8.83691 192.369 8.12698C195.086 7.36244 197.227 5.7291 199.836 4.36385C199.621 4.00143 199.284 3.43051 198.785 2.60143C200.949 2.88937 202.745 3.12767 204.533 3.36597C205.262 1.7922 212.184 -0.143972 213.304 1.03759C214.171 1.95107 213.25 3.56455 213.173 4.87023C213.12 5.71917 213.166 6.57307 213.91 7.40215C213.281 8.14684 212.644 8.89152 212.015 9.63124C212.537 9.77521 213.058 9.91422 213.58 10.0582C214.678 7.33762 215.783 4.61207 216.88 1.8915C217.44 1.84682 218 1.80213 218.553 1.75745C219.566 3.13264 220.586 4.51278 221.599 5.883C222.244 5.22768 225.39 6.53336 225.551 4.2447C225.621 3.25675 226.917 2.30355 227.969 0.928372C228.682 1.19646 229.749 1.59859 230.54 1.89646C231.545 1.71774 232.757 1.50426 234.745 1.15674C233.578 2.2837 232.957 2.88441 232.55 3.27164C233.801 3.45533 234.937 3.61916 236.072 3.78299C234.729 4.54753 233.379 5.31208 231.361 6.45889C234.622 6.18584 237.438 5.9525 240.247 5.71917C240.278 5.55037 240.301 5.38158 240.331 5.21278C239.403 5.12342 238.474 5.0291 237.016 4.88512C241.513 1.64327 243.854 5.85321 247.069 5.47591C247.069 7.06456 247.069 8.48939 247.069 9.91422C248.949 6.99506 251.988 5.29718 256.876 5.65463C259.877 5.87307 263.077 6.23548 265.609 7.18371C266.676 7.58584 266.392 9.66103 266.43 10.9816C266.453 11.8851 265.97 12.7937 265.717 13.6972C266.085 13.7518 266.461 13.8064 266.829 13.8561C267.505 12.5653 268.188 11.2745 268.863 9.98372C270.421 9.7355 271.971 9.4823 273.176 9.28869C273.176 8.1518 273.176 7.14896 273.176 6.16102C265.463 6.66244 265.11 6.57307 265.341 4.57732C266.384 4.75605 267.766 5.30711 268.41 5.05888C272.37 3.53476 273.782 3.6986 275.662 6.26527C276.053 6.79648 276.245 7.38726 276.568 8.03265C275.954 8.29081 275.263 8.58868 274.572 8.88159C274.634 9.04542 274.695 9.21422 274.757 9.37805C276.169 9.27876 277.581 9.1745 279.192 9.06032C279.346 9.77521 279.553 10.7582 279.76 11.7412C279.975 11.7461 280.19 11.7461 280.405 11.7511C281.594 9.64117 282.783 7.53123 283.981 5.4213C283.505 5.27236 283.037 5.12342 282.561 4.97449C285.715 4.38867 287.403 2.93902 289.068 1.30071C290.642 -0.248228 293.335 0.630499 295.514 0.997876C296.604 1.18156 297.556 1.71774 299.213 2.33334C296.857 3.04824 294.793 3.66881 292.721 4.29434C292.767 4.42838 292.813 4.56243 292.859 4.69647C294.478 4.69647 296.098 4.69647 297.717 4.69647L297.709 4.70144C297.985 5.69435 298.254 6.69222 298.5 7.58088C296.397 8.61351 292.79 7.56102 292.353 9.96883C291.179 9.31351 290.028 8.64329 288.831 8.00783C287.979 7.55109 287.073 7.1291 286.191 6.69222C285.907 6.9057 285.623 7.12414 285.339 7.33762C286.828 8.38514 288.232 9.4972 289.874 10.4305C290.196 10.6291 291.455 10.1178 292.276 9.92911ZM283.029 187.978C279.169 187.084 274.918 188.643 274.841 190.138C277.519 189.433 280.274 188.708 283.029 187.978ZM48.5758 192.252C48.9135 191.999 49.2435 191.741 49.5811 191.488C47.5092 190.421 45.4372 189.353 43.3652 188.286C43.1887 188.375 43.0122 188.464 42.8357 188.554C43.9868 189.845 45.1302 191.135 46.3197 192.476C46.7418 192.436 47.6626 192.342 48.5758 192.252ZM316.779 30.9639C316.81 31.2568 316.84 31.5448 316.871 31.8377C319.135 31.7235 321.399 31.6093 323.655 31.4902C323.578 31.0682 323.501 30.6412 323.424 30.2193C321.207 30.4675 318.989 30.7157 316.779 30.9639Z" fill="#CDFFF9"/>
</g>
<defs>
<filter id="filter0_i_861_15" x="0" y="0" width="337" height="205" filterUnits="userSpaceOnUse" color-interpolation-filters="sRGB">
<feFlood flood-opacity="0" result="BackgroundImageFix"/>
<feBlend mode="normal" in="SourceGraphic" in2="BackgroundImageFix" result="shape"/>
<feColorMatrix in="SourceAlpha" type="matrix" values="0 0 0 0 0 0 0 0 0 0 0 0 0 0 0 0 0 0 127 0" result="hardAlpha"/>
<feOffset dy="4"/>
<feGaussianBlur stdDeviation="2"/>
<feComposite in2="hardAlpha" operator="arithmetic" k2="-1" k3="1"/>
<feColorMatrix type="matrix" values="0 0 0 0 0 0 0 0 0 0 0 0 0 0 0 0 0 0 0.25 0"/>
<feBlend mode="normal" in2="shape" result="effect1_innerShadow_861_15"/>
</filter>
</defs>
</svg>
