<svg width="37" height="39" viewBox="0 0 37 39" fill="none" xmlns="http://www.w3.org/2000/svg">
<path d="M18.5 0.265625C16.1878 0.268346 13.971 1.18808 12.336 2.82308C10.701 4.45808 9.78128 6.67483 9.77856 8.98706C9.77856 11.8438 11.1107 13.8692 12.2123 15.4128C13.3138 16.955 14.0938 18.0169 14.0938 19.543V24.2253L2.02209 26.8853L0.875 27.1173V34.1849H2.34375V35.6537C2.34375 36.4967 2.71681 37.2943 3.30725 37.8113C3.89916 38.3268 4.65556 38.5912 5.41931 38.5912H31.5807C32.3444 38.5912 33.1008 38.3268 33.6927 37.8113C33.9961 37.5397 34.2388 37.2071 34.4048 36.8353C34.5708 36.4635 34.6565 36.0609 34.6562 35.6537V34.1849H36.125V27.1158L34.9779 26.8867L22.9062 24.2268V19.5415C22.9062 18.0155 23.6862 16.955 24.7877 15.4114C25.8893 13.8677 27.2214 11.8423 27.2214 8.98559C27.2183 6.67361 26.2984 4.45724 24.6635 2.82256C23.0285 1.18788 20.812 0.268345 18.5 0.265625ZM18.5 3.20313C19.261 3.19785 20.0155 3.34386 20.7196 3.63266C21.4238 3.92146 22.0635 4.34731 22.6016 4.88545C23.1398 5.42359 23.5656 6.0633 23.8544 6.76742C24.1432 7.47154 24.2892 8.22603 24.2839 8.98706C24.2839 10.9713 23.4688 12.2168 22.401 13.715C21.3347 15.2116 19.9688 16.9771 19.9688 19.5415V23.9037H17.0312V19.543C17.0312 16.9785 15.6653 15.2116 14.599 13.715C13.5312 12.2168 12.7175 10.9713 12.7175 8.98559C12.7127 8.22494 12.8589 7.47088 13.1478 6.7672C13.4367 6.06352 13.8624 5.42422 14.4004 4.88641C14.9383 4.3486 15.5777 3.92299 16.2815 3.63429C16.9853 3.34558 17.7393 3.19805 18.5 3.20313ZM15.5625 26.8412H21.4375L33.1875 29.457V31.2474H3.8125V29.457L15.5625 26.8412ZM5.28125 34.1849H31.7188V35.6082C31.7011 35.6199 31.6791 35.6537 31.5807 35.6537H5.41931C5.32091 35.6537 5.29887 35.6199 5.28125 35.6082V34.1849Z" fill="black"/>
</svg>
