<svg width="334" height="201" viewBox="0 0 334 201" fill="none" xmlns="http://www.w3.org/2000/svg">
<g filter="url(#filter0_i_454_61)">
<path d="M289.674 9.92911C292.009 9.80003 294.352 9.66599 296.245 9.56174C297.082 10.9617 297.812 12.1731 298.535 13.3844C298.831 13.1561 299.12 12.9277 299.417 12.6944C301.045 13.0965 303.478 13.2156 304.11 13.9752C305.03 15.0774 304.657 16.6462 304.84 18.0114C304.437 18.1107 304.034 18.21 303.63 18.3093C304.65 18.488 305.669 18.6667 306.916 18.8852C305.555 21.7894 309.616 21.7001 312.506 22.3455L312.423 22.2958C313.267 22.9909 314.111 23.6859 315.107 24.5051C314.286 24.7731 313.708 24.9618 312.308 25.4136C316.735 27.8015 320.834 30.0207 325.109 32.3292C325.131 32.3044 324.827 32.7959 324.591 32.7859C321.747 32.6221 320.104 33.7491 319.138 35.1788C318.096 36.7278 316.415 36.42 314.628 36.2611C315.016 36.1122 315.769 35.854 315.746 35.8242C314.529 34.1214 313.252 32.4384 311.837 30.5568C310.392 32.2299 311.533 34.1264 314.742 36.2363C315.412 36.9562 316.073 37.676 316.811 38.4703C318.302 37.3086 320.188 36.9512 320.302 38.6987C320.5 41.7072 322.432 44.6413 321.253 47.7193C321.093 48.1363 321.739 48.7172 322.12 49.1839C323.207 50.5491 324.812 51.82 325.36 53.2647C326.059 55.1364 326.797 56.7399 329.794 57.5392C331.224 57.9215 332.022 58.5967 330.744 59.5945L330.828 59.5399C330.182 59.8874 329.535 60.235 328.858 60.5974C328.972 59.952 329.071 59.3562 329.086 59.2917C326.873 58.7456 325.132 58.3137 323.367 57.8768C323.177 59.113 322.971 60.4733 322.743 61.9726C321.907 61.8832 320.713 61.7541 319.846 61.6598C319.032 63.3825 318.233 65.0605 317.427 66.7634C322.431 67.1059 316.978 70.7002 320.294 71.8074C320.713 71.3407 320.964 70.7003 321.397 70.6456C323.778 70.3279 326.219 69.8612 328.531 70.879C328.972 71.0726 329.535 71.152 330.037 71.2811C329.489 71.5194 328.98 71.8173 328.379 71.9811C324.287 73.1081 320.18 74.2052 316.081 75.3123C316.203 75.5457 316.332 75.779 316.453 76.0074C318.849 75.6747 321.237 75.3372 324.424 74.8953C322.72 75.8137 321.701 76.3598 320.188 77.174C321.42 77.2435 322.12 77.2833 323.899 77.3875C321.686 78.7379 319.823 79.7854 318.119 80.9322C316.453 82.0542 314.948 83.2755 313.609 84.6457C317.123 84.0549 318.362 80.545 323.329 81.7464C323.435 79.1946 325.725 78.6138 329.558 78.996C328.463 80.8577 327.672 82.6152 326.417 84.2187C325.162 85.8223 323.435 87.2719 321.663 89.0393C321.032 88.3095 320.629 87.8379 320.31 87.4705C319.998 88.6571 319.701 89.8088 319.351 91.1294C324.766 91.6259 323.808 94.7089 324.919 96.789C322.675 97.5089 320.697 98.1443 318.575 98.8245C319.032 99.2514 319.427 99.6238 319.929 100.095C318.773 100.607 317.67 101.093 316.735 101.51C317.328 102.414 317.868 103.233 318.575 104.305C316.742 104.305 315.526 104.305 313.754 104.305C314.103 105.76 314.415 107.026 314.719 108.292C315.069 108.267 315.427 108.247 315.777 108.222C315.602 107.14 315.419 106.053 315.214 104.807C318.796 105.79 321.77 106.604 325.078 107.507C323.717 108.302 322.766 108.863 321.724 109.473C320.051 109.409 318.081 109.339 316.134 109.265C315.952 109.399 315.617 109.548 315.647 109.627C317.283 113.162 318.439 116.881 324.325 118.708C324.858 118.871 325.147 119.437 325.443 119.844C326.31 121.026 326.478 122.337 328.942 123.037C329.847 123.295 329.429 125.534 329.611 126.874C329.178 126.919 328.744 126.969 328.311 127.013C328.006 126.408 327.695 125.802 327.39 125.196C327.162 125.176 326.926 125.156 326.698 125.137C326.599 125.732 326.493 126.323 326.417 126.775C324.051 127.43 321.002 124.963 318.431 127.52C322.644 128.051 326.607 128.547 331.33 129.138C327.672 130.548 324.432 131.794 321.192 133.045C321.306 133.274 321.412 133.497 321.526 133.725C322.865 133.725 324.204 133.725 325.869 133.725C326.181 134.271 326.607 135.011 326.964 135.632C327.953 135.433 328.797 135.259 329.794 135.061C329.383 136.62 329.026 137.975 328.63 139.464C327.649 139.077 326.272 138.531 325.101 138.069C325.002 138.903 324.911 139.673 324.82 140.442C323.397 139.559 321.983 138.675 319.944 137.409C320.522 139.574 321.032 141.495 321.542 143.416C321.777 143.416 322.013 143.421 322.249 143.421C322.249 143.019 322.135 142.597 322.279 142.215C322.431 141.788 322.819 141.4 323.101 140.993C323.709 141.286 324.432 141.51 324.896 141.877C326.09 142.801 326.888 144.126 328.371 144.647C329.801 145.149 331.893 144.846 334 144.91C334.038 146.36 331.345 146.171 329.946 146.022C328.082 145.824 326.409 144.891 324.082 144.071C323.489 144.578 322.279 145.61 321.04 146.663C319.404 146.737 317.518 146.827 316.066 146.896C317.655 148.048 319.519 149.051 320.621 150.337C321.291 151.111 320.964 152.332 320.751 153.325C320.454 154.656 320.195 156.081 319.268 157.247C317.807 159.084 315.054 158.449 312.635 158.22C311.023 158.067 309.411 157.898 307.35 158.106C315.069 158.498 316.005 161.77 315.244 165.786C312.97 165.786 310.263 165.786 307.547 165.786C307.502 166.005 307.456 166.218 307.418 166.437C310.544 166.73 313.67 167.018 316.644 167.296C317.001 168.204 317.298 168.954 317.336 169.053C315.564 170.463 314.081 171.635 312.635 172.821C312.597 172.851 312.848 173.119 313.016 173.144C313.191 173.174 313.426 173.05 313.639 172.99V172.985C314.096 174.643 314.544 176.296 314.849 177.403C312.278 178.009 310.483 178.431 308.681 178.853C310.08 181.286 306.939 184.13 303.615 183.753C302.033 183.574 300.314 182.691 300.535 184.746C300.543 184.83 299.706 185.089 299.349 185.034C295.607 184.453 295.979 186.494 295.234 187.357C296.945 187.189 298.778 187.02 300.611 186.821C300.969 186.782 301.379 186.677 301.607 186.513C305.342 183.857 309.418 184.632 313.586 185.923C313.586 186.816 313.586 187.66 313.586 188.901C314.666 188.246 315.389 187.809 316.096 187.382C318.705 189.06 318.294 189.492 312.666 190.977C312.529 190.867 312.324 190.768 312.263 190.639C312.05 190.157 312.126 189.443 311.654 189.224C309.707 188.335 307.593 187.601 305.539 186.806C305.395 187.01 305.25 187.213 305.098 187.417C306.445 188.653 307.791 189.889 309.129 191.125C308.726 191.319 308.323 191.513 307.928 191.706C306.536 190.505 305.144 189.304 303.661 188.018C302.391 188.062 300.794 188.122 299.196 188.182C299.098 188.306 299.006 188.425 298.907 188.549C301.052 189.184 303.189 189.82 305.334 190.455C305.205 190.659 305.083 190.862 304.954 191.061C304.285 190.882 303.608 190.704 302.938 190.525C302.786 190.654 302.634 190.778 302.482 190.907C303.737 191.602 304.984 192.302 305.844 192.779C309.844 191.547 313.183 193.275 316.963 193.682C314.636 196.224 312.712 193.072 310.278 194.005C310.749 194.566 311.266 195.187 311.89 195.926C310.156 196.542 308.331 197.197 306.505 197.852C306.254 197.639 305.996 197.43 305.745 197.217C306.916 196.433 308.087 195.653 309.259 194.869C309.16 194.67 309.068 194.472 308.97 194.273C307.768 194.536 306.232 194.581 305.425 195.102C303.425 196.398 301.82 195.991 299.889 194.988C300.314 194.362 300.801 193.801 301.083 193.196C301.577 192.138 301.729 191.389 299.288 192.079C298.953 192.173 297.401 190.44 295.994 189.174C294.641 189.174 292.313 189.174 289.994 189.174C289.978 188.961 289.963 188.747 289.94 188.534C287.309 189.855 284.685 191.175 282.053 192.491C282.304 192.774 282.555 193.062 282.806 193.345C285.21 192.873 287.613 192.401 290.009 191.93C290.747 192.466 291.583 193.077 292.496 193.742C290.815 194.174 289.127 194.874 287.354 194.978C286.145 195.048 284.86 194.223 283.544 193.921C282.799 193.752 281.917 193.836 281.095 193.801C281.65 192.089 281.43 190.505 278.502 188.683C279.483 190.808 276.927 192.853 281.186 193.732C280.213 194.457 279.239 195.182 278.494 195.738C276.364 194.382 273.938 192.838 271.504 191.294C271.215 191.463 270.926 191.627 270.63 191.796C270.911 191.116 271.2 190.43 271.482 189.75C271.292 189.646 271.094 189.537 270.904 189.433C270.303 189.909 269.139 190.406 269.177 190.852C269.512 194.134 265.922 192.913 263.511 193.062C262.294 193.136 260.834 192.987 259.921 193.379C258.005 194.204 256.476 194.367 255.449 193.474C253.867 193.548 252.544 193.355 251.753 193.692C248.178 195.211 244.588 196.269 240.086 196.239C238.549 196.229 236.99 197.952 235.157 199.054C234.625 198.865 233.804 198.567 232.701 198.175C232.016 199.054 231.309 199.952 230.487 201C229.354 201 227.894 201 226.122 201C227.97 199.59 229.582 198.359 231.195 197.128C233.727 197.351 234.846 196.587 234.929 194.973C232.746 194.859 230.761 194.76 228.769 194.655C228.769 193.945 228.769 193.24 228.769 192.61C225.97 192.183 223.133 191.751 220.113 191.294C219.056 194.065 214.79 191.721 211.991 192.525C214.896 194.447 214.888 198.195 212.599 198.885C210.363 196.105 208.135 193.335 205.906 190.564C205.579 190.644 205.252 190.723 204.917 190.808C205.442 192.153 205.975 193.499 206.697 195.36C205.199 194.437 204.203 193.826 203.062 193.121C202.818 193.578 202.537 194.094 202.164 194.784C198.27 192.739 194.452 190.733 190.642 188.733C191.372 191.145 197.198 191.399 194.863 194.789C198.08 194.988 200.461 195.609 199.928 197.808C199.845 198.145 198.11 198.319 197.54 198.463C197.396 197.247 197.304 196.527 197.167 195.385C195.814 196.656 194.977 197.445 194.186 198.19C192.117 197.351 190.459 196.686 188.801 196.016C188.9 195.34 188.999 194.655 189.204 193.27C188.033 194.506 187.425 195.152 186.816 195.802C186.512 195.757 186.208 195.713 185.911 195.668C185.911 194.392 185.911 193.111 185.911 191.021C184.253 194.362 181.698 192.382 180.085 192.372C178.686 193.489 177.545 194.397 176.404 195.311C176.138 195.152 175.872 194.998 175.606 194.839C176.191 194.501 176.769 194.164 177.659 193.647C176.252 193.489 175.24 193.369 174.32 193.265C173.476 194.03 172.662 194.769 171.765 195.589C170.312 194.904 169.11 194.333 167.878 193.752C168.479 192.913 169.103 192.034 169.772 191.096C167.711 191.667 166.03 192.133 164.167 192.65C163.52 192.029 162.897 191.433 162.341 190.907C160.767 191.22 159.261 191.523 157.466 191.88C157.36 190.803 157.291 190.088 157.192 189.08C154.911 189.303 152.819 189.512 150.72 189.716C150.788 189.969 150.857 190.222 150.925 190.475C152.051 190.282 153.192 189.914 154.302 189.949C155.01 189.974 156.333 190.783 156.242 190.927C155.299 192.372 154.158 193.762 152.979 195.132C152.705 195.45 152.066 195.633 151.344 196.006C150.903 194.079 146.012 193.072 149.83 190.733C149.321 190.5 149.001 190.232 148.758 190.257C143.076 190.808 137.722 191.87 133.744 194.784C131.622 196.338 131.721 196.398 128.877 195.365C128.481 197.699 125.355 198.478 119.248 197.718C119.56 196.621 119.963 195.524 120.146 194.412C120.29 193.518 120.176 192.61 120.176 191.165C120.275 191.036 120.83 190.286 121.385 189.542C120.853 189.413 120.32 189.289 119.78 189.16C119.172 190.569 118.564 191.979 117.902 193.518C117.415 193.583 116.571 193.687 115.658 193.806C119.05 194.769 118.115 195.887 115.514 197.475C114.327 195.941 113.293 194.601 112.099 193.047C108.745 193.191 107.353 194.084 106.463 196.889C106.273 197.485 105.261 197.972 104.334 198.761C104.022 197.118 103.284 196.016 100.439 197.356C100.637 196.621 100.736 196.249 100.797 196.03C99.5952 195.991 98.3479 195.951 97.1006 195.911C97.0245 195.648 96.9485 195.385 96.8724 195.122C98.6369 194.546 100.401 193.97 102.166 193.394C102.113 193.186 102.059 192.982 101.999 192.774C98.964 193.057 95.9293 193.345 92.8947 193.628C92.8871 193.747 92.8795 193.866 92.8719 193.99C93.7846 194.06 94.6896 194.129 95.6023 194.199C95.6479 194.387 95.6936 194.576 95.7392 194.765C94.1268 194.933 92.4232 195.395 90.9325 195.191C89.3733 194.978 88.0195 194.119 86.8102 193.638C86.5288 192.66 86.2474 191.701 85.9736 190.738C82.7945 193.916 79.8511 193.876 74.0404 193.166C72.5193 192.977 71.0134 192.744 69.4847 192.59C67.2639 192.367 66.3664 190.748 67.2486 188.837C67.7886 187.675 68.032 186.449 67.5833 185.099C67.127 185.64 66.3588 186.161 66.2751 186.727C65.7884 189.904 62.4952 190.043 58.7532 189.879C57.5211 189.825 56.2662 189.999 54.7679 190.078C54.7679 188.46 54.7679 186.916 54.7679 185.372C54.4484 185.342 54.129 185.307 53.8096 185.277C53.2848 186.782 52.8589 188.301 52.2124 189.785C51.5735 191.245 50.7065 192.66 49.9383 194.099C50.2654 194.228 50.5924 194.357 50.9194 194.487C49.8014 194.675 48.6834 194.864 47.3524 195.092C45.8389 198.786 43.58 199.208 35.3812 196.706C36.5068 196.368 37.3891 196.105 38.1801 195.872C37.1685 194.839 36.3395 194.248 35.9821 193.553C35.6778 192.967 35.9212 192.257 35.9212 191.577C37.8682 191.096 39.9522 190.579 42.0361 190.068C41.9068 189.815 41.7851 189.557 41.6558 189.304C39.3437 189.447 37.0316 189.596 35.1987 189.711C34.3088 188.256 33.5635 187.035 32.8181 185.813C32.5443 186.047 32.2705 186.275 31.9967 186.508C30.5136 186.225 28.2015 186.216 27.7376 185.61C26.8706 184.463 26.6196 182.919 26.9466 181.633C27.3269 180.149 27.479 180.02 24.3987 180.079C25.6461 177.374 22.8776 177.081 18.8619 176.669C21.5466 177.791 23.6382 178.56 21.714 179.881C22.908 181.102 23.8816 182.09 24.8551 183.078C24.239 183.247 23.6306 183.416 23.4937 183.455C23.0145 185.65 22.5506 187.789 22.0866 189.909C20.2309 189.467 18.6261 189.085 17.0213 188.703C16.8616 188.901 16.7019 189.105 16.5422 189.304C17.2495 189.711 17.9568 190.118 19.2193 190.838C17.3103 190.763 16.0782 190.718 14.0627 190.639C13.8346 190.267 13.2946 189.403 12.7318 188.484C17.5309 188.961 14.8689 186.121 16.3672 185.079C14.9374 185.446 13.5075 185.813 12.0777 186.176C11.8799 185.962 11.6898 185.749 11.4921 185.53C13.5684 184.677 15.6447 183.818 17.5917 183.018C17.47 182.1 17.3407 181.157 17.2191 180.213C17.0365 180.154 16.854 180.094 16.6715 180.04C16.0478 180.968 15.4241 181.901 14.7396 182.919C12.2526 182.239 10.5718 182.105 10.7087 184.622C10.7923 186.26 9.43093 187.923 8.87573 189.596C8.73122 190.033 9.18756 190.55 9.47657 191.324C8.13038 190.927 7.0732 190.609 6.36588 190.401C6.71574 189.199 6.98954 188.266 7.26334 187.328C6.35828 187.486 5.4456 187.65 4.44927 187.824C0.289013 183.599 0.289013 183.599 1.70365 183.604C3.05745 184.463 4.40364 185.327 6.01602 186.355C6.71574 185.784 7.28616 185.317 7.96306 184.761C6.82222 184.354 5.89433 184.021 4.66983 183.579C5.49124 183.291 6.05405 183.088 6.86024 182.805C6.03124 182.323 5.26307 181.877 3.62787 180.923C6.76898 181.107 8.83009 181.231 10.8912 181.35C10.9521 181.092 11.0129 180.839 11.0737 180.581C10.1839 180.382 9.29403 180.184 8.40418 179.985C8.2977 179.791 8.19883 179.598 8.09235 179.404C11.0357 178.858 13.9867 178.312 17.5157 177.662C17.5157 176.425 17.5157 175.025 17.5157 173.62C17.9036 173.576 18.2838 173.536 18.6717 173.491C16.8616 172.255 15.0819 170.999 13.2261 169.793C12.3439 169.217 11.3171 168.74 10.3588 168.214C13.7281 168.05 17.0898 167.881 20.4438 167.713C21.1816 165.533 18.1774 162.783 15.9413 163.001C16.8084 164.312 17.7362 165.697 18.7098 167.162C17.0822 167.087 15.7512 167.018 14.4126 166.968C12.7013 166.903 10.6859 166.462 10.4805 168.298C9.45375 167.867 8.427 167.44 7.40785 167.008C7.13405 166.759 6.86785 166.511 6.59405 166.263C5.65856 167.524 4.71547 168.78 3.77998 170.041C3.2628 169.674 2.74562 169.311 2.22844 168.944C4.66983 168.12 4.95885 165.573 9.06587 165.945C9.77319 166.01 10.6706 164.779 11.6137 164.242C13.0968 163.403 14.694 162.654 16.0706 161.954C15.4698 162.003 15.5154 159.65 13.0436 161.244C12.4199 160.653 11.3628 160.097 11.2563 159.467C10.7771 156.602 10.6022 153.718 10.2295 150.848C10.1687 150.401 9.71234 149.949 9.32446 149.552C8.44221 148.644 6.9363 147.835 6.6625 146.866C5.85631 143.987 3.75716 141.793 0.0152112 140.234L0 140.254C2.59351 140.378 5.18701 140.497 8.03151 140.636C8.91375 139.454 7.53714 136.739 12.0244 137.126C13.5303 133.735 12.1233 130.454 11.9484 126.874C8.35094 129.088 3.36928 129.183 0.859432 127.331C3.29322 126.765 5.75743 126.274 8.12277 125.623C10.5261 124.963 12.8306 124.144 15.1808 123.394C15.1047 123.191 15.0363 122.987 14.9602 122.783C12.6101 123.131 10.2523 123.478 7.05799 123.95C8.71601 123.012 9.71234 122.451 11.2563 121.582C9.98614 121.522 9.3853 121.498 8.78446 121.468C8.71601 118.042 16.565 118.34 16.5954 114.508C13.8042 115.495 12.8002 118.529 9.5146 116.866C7.77292 118.156 6.31264 119.249 4.51012 120.584C1.98506 116.513 4.98927 111.509 9.18756 111.42C8.92136 110.918 8.65516 110.412 8.24446 109.642C9.47657 109.871 10.2676 110.015 11.0737 110.164C11.4997 109.315 11.8875 108.545 12.2678 107.781C7.59038 106.326 5.978 104.281 7.27095 101.56C11.7278 101.505 12.8839 100.756 12.0168 98.3578C12.9295 98.0202 13.8878 97.6628 14.8157 97.3152C14.2833 96.4067 13.7965 95.5677 13.1805 94.5202C14.7853 94.401 15.9717 94.3117 17.1202 94.2223C17.6374 91.0053 17.4777 90.7571 14.9374 90.8812L15.0134 90.9358C16.6715 86.5273 13.3782 83.3301 8.82249 80.5301C8.19122 80.1428 6.6701 80.3762 6.68532 80.3762C5.49884 78.8868 4.6242 77.6655 3.57463 76.5088C2.22844 75.0194 0.920277 73.5499 2.66196 71.5144C3.99294 71.6435 6.04645 71.8769 8.11517 72.0357C9.78079 72.1598 11.4616 72.1946 13.2033 71.713C14.4658 72.0754 15.7208 72.4378 16.9833 72.8003C17.1354 72.4378 17.2799 72.0804 17.432 71.718C12.1842 71.0776 6.9363 70.4371 1.68084 69.7967C3.25519 67.5726 9.59826 68.5854 9.61347 65.2641C7.27095 64.8421 5.00448 64.5839 2.90534 64.0329C-1.75689 62.8066 6.38109 60.7364 2.42618 59.2123C3.65068 59.6541 4.88279 60.096 7.0656 60.8804C6.32785 58.825 6.14532 57.1818 5.11096 55.8165C4.27434 54.7144 2.40337 53.9548 1.47548 52.7037C3.03463 52.9718 4.60138 53.2349 6.09969 53.4931C6.16053 54.0342 6.22898 54.6697 6.32785 55.5981C7.92503 54.2825 9.32446 53.1307 10.5109 52.1477C12.0777 52.0186 13.5456 51.8945 15.0134 51.7754C9.27882 49.2881 8.5639 43.8768 13.6444 41.7767C13.1501 41.7221 12.6329 41.6675 12.1157 41.6129C12.1005 41.3498 12.0853 41.0867 12.0701 40.8285C14.116 40.6895 16.1619 40.4016 18.1926 40.4562C20.1396 40.5058 22.0562 40.9129 23.988 41.1611C24.0869 40.9377 24.1858 40.7094 24.2847 40.486C21.9193 40.0044 19.5464 39.5179 17.105 39.0164C16.7095 37.1001 16.2912 35.0994 15.812 32.8157C18.3979 32.8952 21.1283 32.9795 23.8587 33.059C23.8892 32.7909 23.912 32.5228 23.9424 32.2597C22.9461 32.2597 21.9193 32.354 20.961 32.2398C19.5007 32.0611 18.0405 31.8129 16.6639 31.4505C15.5306 31.1526 14.5343 30.6412 13.4771 30.2242C10.8304 30.2242 7.89461 30.2242 4.7611 30.2242C8.50305 27.7866 3.46054 27.2157 2.06872 26.5703C-0.783376 25.2497 1.10281 24.1575 1.54394 23.0008C1.7721 22.3902 2.59351 21.8788 3.58223 20.8809C4.68505 21.9284 6.09969 23.2738 8.18362 25.2547C7.53714 21.4022 10.5946 21.5511 13.5303 21.8043C14.6027 23.1994 15.5991 24.5051 16.7703 26.0341C15.485 26.6795 13.652 27.6029 11.8267 28.5263C12.1766 28.8143 12.5188 29.1022 12.8687 29.3852C14.8841 28.4022 16.8996 27.4192 17.9796 26.898C17.7667 24.3114 17.5993 22.3206 17.432 20.3299L17.2875 20.3944C18.4664 20.5433 19.7365 20.9206 20.8089 20.7618C21.5238 20.6575 22.4669 19.7689 22.4441 19.2476C22.3148 16.249 24.2086 15.2263 28.9089 15.7525C29.6542 15.8369 30.5821 15.2213 31.4263 14.9284C31.2818 14.7298 31.1373 14.5263 30.9852 14.3277C32.2021 14.3277 33.419 14.3277 34.8412 14.3277C35.4649 13.3646 36.0657 12.4312 37.0088 10.9667C35.2519 11.8901 34.3621 12.6993 33.2364 12.883C29.4945 13.5036 25.6689 13.9057 21.8813 14.3873L22.003 14.4419C20.5199 13.9454 19.0368 13.449 17.6906 12.9972C17.8123 12.2128 17.9568 11.2596 18.1013 10.3064C17.8351 10.2518 17.5613 10.2022 17.2951 10.1476C16.854 10.5497 16.4205 10.9568 15.6219 11.6915C15.0058 11.0164 13.8422 10.0085 14.0247 9.8894C15.4622 8.96599 17.1582 8.21634 19.6224 6.98513C18.2686 11.0561 22.4365 9.10003 24.3455 10.4206C23.6534 8.94117 23.2427 8.07237 22.832 7.20357C23.0678 7.11917 23.3111 7.02981 23.5469 6.94542C24.9463 8.22131 26.3534 9.50216 27.7148 10.7383C29.3804 10.6639 31.0688 10.5844 33.7612 10.4653C30.7418 9.61635 28.5134 8.98585 26.2925 8.36031C26.437 8.13194 26.5739 7.90357 26.7184 7.6752C27.2432 7.85889 27.7604 8.04258 28.3156 8.24116C27.9353 6.70712 20.9686 5.34683 14.2681 5.57023C14.8081 4.9447 15.2568 4.41349 15.6903 3.91207C17.5309 4.23973 19.1737 4.52768 20.8089 4.82058C20.9306 4.64683 21.0599 4.47307 21.1816 4.29434C20.6416 3.84257 20.0788 3.38583 19.4703 2.88441C21.2424 2.23405 22.8548 1.6383 24.4672 1.04752C24.6954 1.22625 24.9311 1.40993 25.1593 1.58866C24.2618 2.44753 23.372 3.30143 22.4745 4.1603C22.6114 4.34895 22.7483 4.53761 22.8852 4.72626C24.741 4.17519 26.5891 3.62413 29.0305 2.89434C32.05 3.52484 31.1449 5.43619 30.9928 7.54613C31.6241 7.00995 32.2477 6.46882 32.9474 5.86811C33.5863 7.283 34.1871 8.62344 34.9401 10.3015C37.5868 10.0185 40.3781 9.36812 43.0629 9.52202C47.1851 9.75535 47.284 7.48655 49.3375 6.46385C49.1702 6.27024 49.0028 6.07662 48.8355 5.88796C47.4589 6.17094 46.0671 6.43407 44.6981 6.74187C41.7015 7.41705 39.4274 6.7369 39.0623 4.8752C38.9635 4.35392 39.8229 3.7532 40.2412 3.18725C40.9257 3.55959 41.6102 3.93193 42.2871 4.30427C42.3175 4.21987 42.3403 4.14044 42.3708 4.05604C43.4355 4.40853 44.4851 5.03406 45.5651 5.05888C48.0141 5.11349 50.4783 4.87023 52.9349 4.74612C53.011 4.43831 53.087 4.13051 53.1555 3.82271C51.7713 3.06313 50.3871 2.30355 48.8507 1.45958C52.3037 1.84185 53.3456 2.65604 54.2279 4.74115C54.5017 5.38158 56.0912 5.74399 56.9127 6.33477C57.871 7.02981 58.6467 7.83407 59.4986 8.58868C58.2436 9.04542 57.0115 9.53691 55.7186 9.94897C54.7298 10.2617 53.6727 10.4752 52.6383 10.7383C52.007 9.16954 54.6006 7.05464 49.9307 5.5603C50.638 8.03762 51.1856 9.93408 51.9082 12.471C55.7946 11.2 59.8788 9.86457 63.8489 8.56386C63.1797 7.9284 62.2898 7.29293 62.4267 7.17875C62.9895 6.71705 63.7881 6.19577 64.6171 6.08655C67.6289 5.70428 70.6712 5.34683 73.721 5.26243C74.8542 5.23264 76.0407 5.97236 77.037 6.57307C78.1475 6.94542 76.3069 3.8525 79.41 5.74896C79.699 5.92272 81.0528 5.4213 81.8514 5.15321C83.7452 4.51775 85.5705 3.78796 87.4871 3.18725C90.4609 2.25887 93.4575 1.36525 96.515 0.55603C97.1234 0.3922 98.0133 0.680144 98.7738 0.759577V0.749648C97.8992 2.00568 97.0169 3.26171 96.2488 4.35888C98.6978 4.52768 100.82 4.67165 103.177 4.83051C103.018 5.4064 102.828 6.09648 102.698 6.59293C105.497 7.10925 108.212 7.61067 111.148 8.1518C112.456 5.15321 116.822 7.80925 119.621 6.63265C115.255 4.48796 118.069 2.30355 118.678 0C121.035 3.01349 123.249 5.83832 125.454 8.66315C125.835 8.56882 126.215 8.46953 126.587 8.37521C126.047 7.11421 125.507 5.85818 124.701 3.98157C126.352 4.90498 127.424 5.50073 128.74 6.23548C128.74 5.59009 128.74 5.09364 128.74 3.77803C131.28 5.36669 133.067 6.61775 135.068 7.6901C136.878 8.65819 138.931 9.42769 141.129 10.1128C139.205 8.29577 134.665 7.54116 136.513 4.53264C131.714 3.88228 131.25 3.50994 131.82 0.248228C132.816 1.0227 133.41 1.4844 134.147 2.06029C137.106 0.203547 139.274 2.75533 142.027 2.9837C146.096 3.31632 146.134 4.92484 146.012 7.01492C146.316 6.61279 146.621 6.21563 146.894 5.84825C148.621 6.24045 150.34 6.63265 152.043 7.01988C153.321 4.64683 157.436 3.09292 160.394 3.8376C161.322 4.07094 162.562 4.75108 162.638 5.28725C162.973 7.74967 165.171 7.20854 167.483 6.69222C168.03 7.27308 168.555 7.82911 169.065 8.37024C170.654 8.05251 172.191 7.74471 173.955 7.39719C174.031 8.46953 174.084 9.27379 174.145 10.2121C176.465 9.97876 178.549 9.77025 180.64 9.56174C180.595 9.32344 180.542 9.0901 180.496 8.8518C178.739 9.03549 176.99 9.21918 174.617 9.47237C176.442 7.19364 177.948 5.322 180.002 2.76029C180.587 4.32413 180.899 5.14825 181.211 5.9674C181.203 5.9674 181.325 5.96243 181.363 5.92272C181.424 5.85321 181.393 5.74896 181.454 5.68442C181.705 5.45108 181.979 5.22768 182.945 4.40356C182.686 6.29506 182.527 7.46173 182.344 8.80216C185.036 8.62344 188.155 8.83691 190.657 8.12698C193.349 7.36244 195.471 5.7291 198.057 4.36385C197.844 4.00143 197.51 3.43051 197.015 2.60143C199.16 2.88937 200.94 3.12767 202.712 3.36597C203.434 1.7922 210.295 -0.143972 211.405 1.03759C212.264 1.95107 211.352 3.56455 211.276 4.87023C211.223 5.71917 211.268 6.57307 212.006 7.40215C211.382 8.14684 210.751 8.89152 210.127 9.63124C210.644 9.77521 211.162 9.91422 211.679 10.0582C212.766 7.33762 213.862 4.61207 214.949 1.8915C215.504 1.84682 216.06 1.80213 216.607 1.75745C217.611 3.13264 218.623 4.51278 219.627 5.883C220.266 5.22768 223.384 6.53336 223.544 4.2447C223.612 3.25675 224.897 2.30355 225.939 0.928372C226.647 1.19646 227.704 1.59859 228.487 1.89646C229.484 1.71774 230.685 1.50426 232.655 1.15674C231.499 2.2837 230.883 2.88441 230.48 3.27164C231.72 3.45533 232.845 3.61916 233.971 3.78299C232.64 4.54753 231.301 5.31208 229.301 6.45889C232.533 6.18584 235.325 5.9525 238.108 5.71917C238.139 5.55037 238.162 5.38158 238.192 5.21278C237.272 5.12342 236.351 5.0291 234.906 4.88512C239.363 1.64327 241.683 5.85321 244.87 5.47591C244.87 7.06456 244.87 8.48939 244.87 9.91422C246.733 6.99506 249.745 5.29718 254.59 5.65463C257.563 5.87307 260.735 6.23548 263.245 7.18371C264.302 7.58584 264.021 9.66103 264.059 10.9816C264.081 11.8851 263.602 12.7937 263.351 13.6972C263.716 13.7518 264.089 13.8064 264.454 13.8561C265.123 12.5653 265.8 11.2745 266.47 9.98372C268.013 9.7355 269.55 9.4823 270.744 9.28869C270.744 8.1518 270.744 7.14896 270.744 6.16102C263.1 6.66244 262.75 6.57307 262.979 4.57732C264.013 4.75605 265.382 5.30711 266.021 5.05888C269.945 3.53476 271.345 3.6986 273.208 6.26527C273.596 6.79648 273.786 7.38726 274.106 8.03265C273.497 8.29081 272.813 8.58868 272.128 8.88159C272.189 9.04542 272.25 9.21422 272.311 9.37805C273.71 9.27876 275.109 9.1745 276.707 9.06032C276.859 9.77521 277.064 10.7582 277.269 11.7412C277.482 11.7461 277.695 11.7461 277.908 11.7511C279.087 9.64117 280.266 7.53123 281.453 5.4213C280.981 5.27236 280.517 5.12342 280.046 4.97449C283.171 4.38867 284.845 2.93902 286.495 1.30071C288.054 -0.248228 290.724 0.630499 292.884 0.997876C293.964 1.18156 294.907 1.71774 296.55 2.33334C294.215 3.04824 292.169 3.66881 290.115 4.29434C290.161 4.42838 290.207 4.56243 290.252 4.69647C291.857 4.69647 293.462 4.69647 295.067 4.69647L295.059 4.70144C295.333 5.69435 295.599 6.69222 295.842 7.58088C293.758 8.61351 290.184 7.56102 289.75 9.96883C288.587 9.31351 287.446 8.64329 286.259 8.00783C285.415 7.55109 284.518 7.1291 283.643 6.69222C283.362 6.9057 283.08 7.12414 282.799 7.33762C284.274 8.38514 285.666 9.4972 287.294 10.4305C287.613 10.6291 288.86 10.1178 289.674 9.92911ZM280.509 187.978C276.684 187.084 272.47 188.643 272.394 190.138C275.049 189.433 277.779 188.708 280.509 187.978ZM48.1434 192.252C48.478 191.999 48.8051 191.741 49.1397 191.488C47.0862 190.421 45.0327 189.353 42.9792 188.286C42.8043 188.375 42.6293 188.464 42.4544 188.554C43.5953 189.845 44.7285 191.135 45.9074 192.476C46.3257 192.436 47.2383 192.342 48.1434 192.252ZM313.959 30.9639C313.989 31.2568 314.02 31.5448 314.05 31.8377C316.294 31.7235 318.537 31.6093 320.773 31.4902C320.697 31.0682 320.621 30.6412 320.545 30.2193C318.347 30.4675 316.149 30.7157 313.959 30.9639Z" fill="#C4B3E2"/>
</g>
<defs>
<filter id="filter0_i_454_61" x="0" y="0" width="334" height="205" filterUnits="userSpaceOnUse" color-interpolation-filters="sRGB">
<feFlood flood-opacity="0" result="BackgroundImageFix"/>
<feBlend mode="normal" in="SourceGraphic" in2="BackgroundImageFix" result="shape"/>
<feColorMatrix in="SourceAlpha" type="matrix" values="0 0 0 0 0 0 0 0 0 0 0 0 0 0 0 0 0 0 127 0" result="hardAlpha"/>
<feOffset dy="4"/>
<feGaussianBlur stdDeviation="2"/>
<feComposite in2="hardAlpha" operator="arithmetic" k2="-1" k3="1"/>
<feColorMatrix type="matrix" values="0 0 0 0 0 0 0 0 0 0 0 0 0 0 0 0 0 0 0.25 0"/>
<feBlend mode="normal" in2="shape" result="effect1_innerShadow_454_61"/>
</filter>
</defs>
</svg>
