<svg width="226" height="80" viewBox="0 0 226 80" fill="none" xmlns="http://www.w3.org/2000/svg">
<path id="Vector" d="M195.883 3.95189C197.46 3.90051 199.043 3.84716 200.322 3.80567C200.888 4.36288 201.381 4.84501 201.869 5.32714C202.069 5.23625 202.265 5.14536 202.465 5.05249C203.565 5.21254 205.209 5.25996 205.636 5.56228C206.257 6.00094 206.006 6.62534 206.129 7.16872C205.857 7.20824 205.584 7.24776 205.312 7.28728C206 7.35841 206.689 7.42955 207.532 7.51649C206.612 8.67241 209.356 8.63685 211.309 8.89372L211.252 8.87396C211.823 9.15059 212.393 9.42722 213.066 9.75325C212.511 9.85995 212.121 9.93504 211.175 10.1149C214.166 11.0653 216.935 11.9485 219.823 12.8673C219.839 12.8575 219.633 13.0531 219.474 13.0491C217.552 12.9839 216.442 13.4325 215.79 14.0015C215.086 14.618 213.95 14.4955 212.742 14.4323C213.004 14.373 213.513 14.2703 213.498 14.2584C212.676 13.5807 211.812 12.9108 210.856 12.1619C209.88 12.8278 210.651 13.5826 212.819 14.4224C213.272 14.7089 213.719 14.9954 214.217 15.3116C215.224 14.8492 216.499 14.7069 216.576 15.4025C216.709 16.5999 218.015 17.7677 217.218 18.9928C217.11 19.1587 217.547 19.3899 217.804 19.5757C218.539 20.1191 219.623 20.6249 219.993 21.1999C220.466 21.9448 220.964 22.583 222.989 22.9012C223.955 23.0533 224.494 23.3221 223.631 23.7192L223.688 23.6975C223.251 23.8358 222.814 23.9741 222.357 24.1184C222.434 23.8615 222.501 23.6244 222.511 23.5987C221.016 23.3813 219.839 23.2094 218.647 23.0355C218.518 23.5275 218.379 24.069 218.225 24.6657C217.66 24.6301 216.853 24.5788 216.267 24.5412C215.718 25.2269 215.178 25.8947 214.633 26.5725C218.015 26.7088 214.33 28.1394 216.571 28.58C216.853 28.3943 217.023 28.1394 217.316 28.1177C218.924 27.9912 220.574 27.8055 222.136 28.2105C222.434 28.2876 222.814 28.3192 223.153 28.3706C222.783 28.4654 222.439 28.584 222.033 28.6492C219.268 29.0977 216.494 29.5344 213.724 29.9751C213.806 30.0679 213.893 30.1608 213.976 30.2517C215.594 30.1193 217.208 29.9849 219.361 29.8091C218.21 30.1746 217.521 30.392 216.499 30.716C217.331 30.7437 217.804 30.7595 219.006 30.801C217.511 31.3385 216.252 31.7554 215.101 32.2118C213.976 32.6584 212.958 33.1445 212.054 33.6898C214.428 33.4547 215.265 32.0577 218.621 32.5359C218.693 31.5202 220.24 31.2891 222.829 31.4412C222.09 32.1822 221.555 32.8817 220.707 33.5199C219.859 34.1581 218.693 34.7351 217.496 35.4385C217.069 35.1481 216.797 34.9604 216.581 34.8141C216.37 35.2864 216.17 35.7448 215.933 36.2704C219.592 36.468 218.945 37.6951 219.695 38.523C218.179 38.8095 216.843 39.0624 215.409 39.3331C215.718 39.503 215.985 39.6512 216.324 39.839C215.543 40.0425 214.798 40.2361 214.166 40.4021C214.567 40.7617 214.931 41.0878 215.409 41.5146C214.171 41.5146 213.349 41.5146 212.151 41.5146C212.388 42.0935 212.598 42.5974 212.804 43.1012C213.04 43.0914 213.282 43.0835 213.518 43.0736C213.4 42.6428 213.277 42.2101 213.138 41.7141C215.558 42.1054 217.568 42.4294 219.803 42.789C218.883 43.1052 218.241 43.3285 217.537 43.5715C216.406 43.5458 215.075 43.5182 213.76 43.4885C213.636 43.5419 213.41 43.6012 213.431 43.6328C214.536 45.0396 215.317 46.5196 219.294 47.2468C219.654 47.312 219.849 47.5372 220.049 47.6993C220.635 48.1695 220.748 48.6912 222.413 48.9698C223.025 49.0725 222.742 49.9637 222.865 50.4972C222.573 50.515 222.28 50.5347 221.987 50.5525C221.781 50.3115 221.57 50.0704 221.365 49.8293C221.211 49.8214 221.051 49.8135 220.897 49.8056C220.831 50.0427 220.759 50.2779 220.707 50.4577C219.109 50.7185 217.049 49.7365 215.312 50.7541C218.158 50.9655 220.836 51.1631 224.027 51.3982C221.555 51.9594 219.366 52.4554 217.177 52.9533C217.254 53.0442 217.326 53.1331 217.403 53.224C218.307 53.224 219.212 53.224 220.337 53.224C220.548 53.4413 220.836 53.7358 221.077 53.9828C221.745 53.9037 222.316 53.8346 222.989 53.7555C222.711 54.376 222.47 54.9154 222.203 55.5082C221.54 55.3541 220.61 55.1367 219.818 54.9529C219.751 55.2849 219.69 55.5912 219.628 55.8974C218.667 55.5457 217.711 55.194 216.334 54.6901C216.725 55.5517 217.069 56.3163 217.413 57.081C217.573 57.081 217.732 57.083 217.891 57.083C217.891 56.923 217.814 56.755 217.912 56.6029C218.015 56.4329 218.277 56.2788 218.467 56.1168C218.878 56.2334 219.366 56.3223 219.679 56.4685C220.486 56.836 221.026 57.3636 222.028 57.5711C222.994 57.7706 224.407 57.6501 225.83 57.6758C225.856 58.2528 224.037 58.1777 223.092 58.1184C221.833 58.0394 220.702 57.6679 219.13 57.3419C218.729 57.5434 217.912 57.9544 217.074 58.3733C215.969 58.4029 214.695 58.4385 213.714 58.4662C214.788 58.9246 216.046 59.3237 216.792 59.8355C217.244 60.1437 217.023 60.6298 216.879 61.025C216.679 61.5546 216.504 62.1217 215.877 62.586C214.89 63.3171 213.03 63.0642 211.396 62.9733C210.307 62.912 209.217 62.8449 207.825 62.9279C213.04 63.084 213.672 64.3861 213.159 65.9846C211.622 65.9846 209.793 65.9846 207.958 65.9846C207.927 66.0716 207.897 66.1565 207.871 66.2435C209.983 66.3601 212.095 66.4747 214.104 66.5853C214.346 66.9469 214.546 67.2453 214.572 67.2848C213.374 67.846 212.372 68.3123 211.396 68.7845C211.37 68.7964 211.54 68.9031 211.653 68.913C211.771 68.9248 211.93 68.8754 212.074 68.8517V68.8498C212.383 69.5097 212.686 70.1677 212.891 70.6083C211.155 70.8494 209.942 71.0174 208.724 71.1853C209.669 72.1535 207.547 73.2857 205.302 73.1356C204.233 73.0644 203.071 72.7127 203.22 73.5308C203.226 73.5643 202.66 73.6671 202.419 73.6454C199.891 73.4142 200.142 74.2263 199.639 74.5701C200.795 74.5029 202.033 74.4357 203.272 74.3567C203.513 74.3409 203.791 74.2994 203.945 74.2342C206.468 73.1771 209.222 73.4853 212.038 73.9991C212.038 74.3547 212.038 74.6906 212.038 75.1846C212.768 74.9238 213.256 74.7499 213.734 74.58C215.497 75.2479 215.219 75.4198 211.417 76.0106C211.324 75.9671 211.185 75.9276 211.144 75.8762C211 75.6845 211.052 75.4 210.733 75.3131C209.418 74.9594 207.989 74.6669 206.602 74.3508C206.504 74.4318 206.406 74.5128 206.304 74.5938C207.213 75.0858 208.123 75.5778 209.027 76.0698C208.755 76.1469 208.482 76.224 208.215 76.301C207.275 75.8229 206.335 75.3447 205.332 74.8329C204.474 74.8507 203.395 74.8744 202.316 74.8981C202.249 74.9475 202.188 74.9949 202.121 75.0443C203.57 75.2972 205.014 75.5502 206.463 75.8031C206.376 75.8841 206.293 75.9651 206.206 76.0442C205.754 75.973 205.296 75.9019 204.844 75.8308C204.742 75.8821 204.639 75.9315 204.536 75.9829C205.384 76.2595 206.227 76.5381 206.807 76.7278C209.51 76.2378 211.766 76.9254 214.32 77.0875C212.747 78.0991 211.447 76.8444 209.803 77.2159C210.122 77.4392 210.471 77.6862 210.892 77.9806C209.721 78.2256 208.488 78.4864 207.254 78.7473C207.085 78.6623 206.91 78.5793 206.74 78.4943C207.532 78.1821 208.323 77.8719 209.114 77.5597C209.048 77.4807 208.986 77.4016 208.919 77.3226C208.107 77.4273 207.069 77.4451 206.525 77.6526C205.173 78.1683 204.089 78.0063 202.784 77.6071C203.071 77.3582 203.4 77.1349 203.59 76.8938C203.924 76.4729 204.027 76.1746 202.378 76.4492C202.152 76.4868 201.103 75.7972 200.153 75.2933C199.238 75.2933 197.666 75.2933 196.098 75.2933C196.088 75.2083 196.078 75.1234 196.062 75.0384C194.284 75.564 192.512 76.0896 190.734 76.6132C190.903 76.7259 191.073 76.8405 191.242 76.9531C192.866 76.7654 194.49 76.5777 196.109 76.3899C196.607 76.6033 197.172 76.8464 197.789 77.1112C196.653 77.2831 195.513 77.5617 194.315 77.6032C193.498 77.6308 192.63 77.3028 191.741 77.1823C191.237 77.1151 190.641 77.1487 190.086 77.1349C190.461 76.4532 190.312 75.8229 188.334 75.0977C188.997 75.9434 187.27 76.7575 190.148 77.1072C189.49 77.3957 188.832 77.6842 188.329 77.9055C186.89 77.3661 185.251 76.7515 183.606 76.137C183.411 76.2042 183.216 76.2694 183.015 76.3366C183.206 76.0659 183.401 75.7932 183.591 75.5225C183.463 75.481 183.329 75.4375 183.2 75.396C182.794 75.5857 182.008 75.7833 182.034 75.9612C182.26 77.2673 179.835 76.7812 178.206 76.8405C177.384 76.8701 176.397 76.8108 175.78 76.9669C174.485 77.2949 173.452 77.3601 172.759 77.0045C171.69 77.0341 170.796 76.957 170.261 77.0914C167.846 77.696 165.421 78.1169 162.379 78.1051C161.341 78.1011 160.287 78.7868 159.049 79.2254C158.689 79.1503 158.134 79.0318 157.389 78.8757C156.927 79.2254 156.449 79.5831 155.894 80C155.128 80 154.142 80 152.944 80C154.193 79.4388 155.282 78.9488 156.372 78.4588C158.083 78.5477 158.838 78.2434 158.895 77.6012C157.42 77.5558 156.079 77.5162 154.732 77.4747C154.732 77.1922 154.732 76.9116 154.732 76.6607C152.841 76.4907 150.925 76.3188 148.885 76.137C148.17 77.2396 145.288 76.307 143.397 76.6271C145.36 77.3918 145.355 78.8836 143.808 79.1582C142.297 78.0517 140.791 76.9491 139.286 75.8466C139.065 75.8782 138.844 75.9098 138.618 75.9434C138.972 76.4789 139.332 77.0143 139.82 77.7553C138.808 77.3878 138.135 77.1448 137.364 76.8642C137.2 77.046 137.009 77.2515 136.758 77.5261C134.127 76.712 131.547 75.9137 128.973 75.1174C129.466 76.0778 133.402 76.1785 131.825 77.5281C133.998 77.6071 135.607 77.8541 135.247 78.7295C135.19 78.8638 134.019 78.933 133.633 78.9903C133.536 78.5062 133.474 78.2197 133.382 77.7652C132.467 78.271 131.902 78.5852 131.367 78.8816C129.969 78.5477 128.849 78.2829 127.729 78.0162C127.796 77.7474 127.863 77.4747 128.001 76.9235C127.21 77.4155 126.799 77.6723 126.388 77.9312C126.182 77.9134 125.977 77.8956 125.776 77.8778C125.776 77.37 125.776 76.8602 125.776 76.0284C124.656 77.3582 122.93 76.5698 121.84 76.5658C120.895 77.0104 120.124 77.372 119.353 77.7356C119.173 77.6723 118.993 77.6111 118.814 77.5479C119.209 77.4135 119.6 77.2791 120.201 77.0736C119.25 77.0104 118.567 76.963 117.945 76.9215C117.375 77.2258 116.825 77.5202 116.219 77.8462C115.237 77.5735 114.425 77.3463 113.593 77.1151C113.999 76.7812 114.42 76.4314 114.872 76.058C113.48 76.2852 112.344 76.471 111.085 76.6765C110.648 76.4295 110.227 76.1924 109.852 75.9829C108.788 76.1074 107.771 76.2279 106.558 76.3702C106.486 75.9414 106.44 75.6569 106.373 75.2558C104.831 75.3447 103.418 75.4277 102 75.5087C102.046 75.6095 102.092 75.7102 102.139 75.811C102.899 75.7339 103.67 75.5877 104.42 75.6015C104.898 75.6114 105.792 75.9335 105.731 75.9908C105.093 76.5658 104.323 77.1191 103.526 77.6644C103.341 77.7909 102.91 77.864 102.421 78.0122C102.123 77.2455 98.8192 76.8444 101.399 75.9137C101.054 75.8209 100.839 75.7142 100.674 75.7241C96.8357 75.9434 93.2181 76.3662 90.5306 77.5261C89.0969 78.1446 89.1637 78.1683 87.2419 77.7573C86.9747 78.686 84.8627 78.9962 80.7364 78.6939C80.9471 78.2572 81.2194 77.8205 81.3427 77.3779C81.4404 77.0222 81.3633 76.6607 81.3633 76.0857C81.4301 76.0343 81.8052 75.7359 82.1803 75.4395C81.8206 75.3881 81.4609 75.3387 81.0961 75.2874C80.685 75.8485 80.2739 76.4097 79.8268 77.0222C79.498 77.0479 78.9276 77.0894 78.311 77.1368C80.6028 77.5202 79.9707 77.9648 78.2133 78.5971C77.4117 77.9865 76.7128 77.453 75.9061 76.8345C73.6399 76.8918 72.6996 77.2475 72.0984 78.3639C71.9699 78.601 71.2865 78.7947 70.6595 79.1088C70.4489 78.4548 69.9504 78.0162 68.0286 78.5497C68.1622 78.2572 68.229 78.109 68.2701 78.0221C67.4582 78.0063 66.6154 77.9905 65.7727 77.9747C65.7213 77.8699 65.6699 77.7652 65.6186 77.6605C66.8107 77.4313 68.0029 77.2021 69.195 76.9729C69.1591 76.8899 69.1231 76.8088 69.082 76.7259C67.0317 76.8385 64.9814 76.9531 62.9311 77.0657C62.9259 77.1131 62.9208 77.1606 62.9156 77.21C63.5323 77.2376 64.1438 77.2653 64.7604 77.293C64.7912 77.368 64.8221 77.4431 64.8529 77.5182C63.7635 77.5854 62.6125 77.7692 61.6053 77.6881C60.5519 77.6032 59.6372 77.2613 58.8202 77.0697C58.63 76.6804 58.4399 76.2991 58.2549 75.9157C56.107 77.1803 54.1183 77.1645 50.1924 76.882C49.1647 76.8069 48.1473 76.714 47.1144 76.6527C45.6139 76.5638 45.0076 75.9197 45.6036 75.1589C45.9685 74.6966 46.1329 74.2085 45.8297 73.6711C45.5214 73.8864 45.0024 74.0939 44.9459 74.3192C44.617 75.5838 42.392 75.6391 39.8638 75.5739C39.0313 75.5522 38.1835 75.6213 37.1712 75.6529C37.1712 75.0088 37.1712 74.3942 37.1712 73.7797C36.9553 73.7679 36.7395 73.754 36.5237 73.7422C36.1691 74.3409 35.8814 74.9455 35.4446 75.5363C35.0129 76.1173 34.4271 76.6804 33.9081 77.2534C34.1291 77.3048 34.3501 77.3562 34.571 77.4076C33.8156 77.4827 33.0603 77.5577 32.161 77.6486C31.1384 79.1187 29.6123 79.2867 24.0728 78.2908C24.8333 78.1564 25.4294 78.0517 25.9638 77.9588C25.2804 77.5479 24.7203 77.3127 24.4788 77.0361C24.2732 76.8029 24.4377 76.5204 24.4377 76.2497C25.7532 76.058 27.1611 75.8525 28.5691 75.649C28.4818 75.5482 28.3995 75.4454 28.3122 75.3447C26.75 75.402 25.1879 75.4613 23.9495 75.5067C23.3483 74.9277 22.8447 74.4417 22.3411 73.9556C22.1561 74.0485 21.9711 74.1394 21.7861 74.2322C20.7841 74.1196 19.222 74.1156 18.9085 73.8746C18.3227 73.4181 18.1531 72.8036 18.3741 72.2918C18.631 71.701 18.7338 71.6497 16.6527 71.6734C17.4954 70.5965 15.6249 70.4799 12.9117 70.3159C14.7257 70.7625 16.1388 71.0687 14.8387 71.5943C15.6455 72.0804 16.3032 72.4736 16.961 72.8668C16.5447 72.934 16.1337 73.0012 16.0412 73.017C15.7174 73.8904 15.404 74.742 15.0905 75.5857C13.8367 75.4099 12.7524 75.2577 11.6682 75.1056C11.5603 75.1846 11.4524 75.2656 11.3445 75.3447C11.8224 75.5067 12.3002 75.6687 13.1533 75.9552C11.8635 75.9256 11.031 75.9078 9.66928 75.8762C9.51512 75.728 9.15027 75.3842 8.77002 75.0186C12.0125 75.2083 10.214 74.0781 11.2263 73.6631C10.2602 73.8094 9.29416 73.9556 8.3281 74.0998C8.19449 74.0149 8.06603 73.9299 7.93242 73.843C9.33527 73.5031 10.7381 73.1613 12.0536 72.8431C11.9714 72.4776 11.884 72.1022 11.8018 71.7267C11.6785 71.703 11.5551 71.6793 11.4318 71.6576C11.0105 72.0271 10.5891 72.3985 10.1266 72.8036C8.44628 72.5329 7.31065 72.4796 7.40314 73.4814C7.45967 74.1334 6.53986 74.7954 6.16474 75.4613C6.0671 75.6351 6.37542 75.8406 6.57069 76.1489C5.66115 75.9908 4.94688 75.8643 4.46899 75.7814C4.70537 75.3032 4.89036 74.9317 5.07535 74.5583C4.46385 74.6215 3.84722 74.6867 3.17406 74.7558C0.363236 73.0743 0.363236 73.0743 1.31902 73.0763C2.23369 73.4181 3.14323 73.7619 4.23262 74.171C4.70537 73.9437 5.09077 73.758 5.5481 73.5367C4.77731 73.3747 4.1504 73.2423 3.32308 73.0664C3.87805 72.9518 4.25831 72.8708 4.803 72.7582C4.24289 72.5665 3.72389 72.3887 2.61909 72.0093C4.74134 72.0824 6.1339 72.1318 7.52647 72.1792C7.56758 72.0765 7.60869 71.9757 7.6498 71.8729C7.04858 71.7939 6.44736 71.7149 5.84614 71.6358C5.7742 71.5588 5.7074 71.4817 5.63546 71.4046C7.6241 71.1873 9.61789 70.9699 12.0022 70.7111C12.0022 70.2191 12.0022 69.6619 12.0022 69.1027C12.2643 69.0849 12.5212 69.0691 12.7833 69.0513C11.5603 68.5593 10.3579 68.0594 9.10403 67.5792C8.50795 67.35 7.81423 67.1603 7.16677 66.9509C9.44318 66.8857 11.7144 66.8185 13.9806 66.7513C14.479 65.8839 12.4493 64.7892 10.9385 64.8761C11.5243 65.3978 12.1512 65.9491 12.809 66.532C11.7093 66.5023 10.81 66.4747 9.90565 66.4549C8.74946 66.4292 7.38773 66.2534 7.24899 66.9845C6.55527 66.8126 5.86156 66.6426 5.17298 66.4707C4.98799 66.3719 4.80814 66.2731 4.62315 66.1743C3.9911 66.6762 3.35391 67.1761 2.72186 67.678C2.37244 67.5318 2.02301 67.3876 1.67358 67.2413C3.32308 66.9133 3.51835 65.8997 6.2932 66.0479C6.77109 66.0735 7.37745 65.5835 8.01464 65.3701C9.01667 65.0362 10.0958 64.7378 11.0259 64.4592C10.6199 64.479 10.6508 63.5424 8.9807 64.1766C8.55933 63.9415 7.84507 63.7202 7.77312 63.4693C7.44939 62.3291 7.3312 61.1811 7.07941 60.039C7.0383 59.8612 6.72999 59.6814 6.46792 59.5233C5.87184 59.1617 4.85439 58.8396 4.6694 58.4543C4.12471 57.3083 2.70645 56.4349 0.178246 55.8145L0.167969 55.8224C1.92024 55.8718 3.67251 55.9192 5.59435 55.9745C6.19043 55.5042 5.26034 54.4234 8.29213 54.5775C9.30957 53.2279 8.35893 51.9218 8.24074 50.4972C5.81017 51.3785 2.44438 51.416 0.748633 50.679C2.39299 50.4537 4.0579 50.2581 5.65601 49.9993C7.27982 49.7365 8.83682 49.4104 10.4247 49.1121C10.3733 49.031 10.327 48.95 10.2756 48.869C8.6878 49.0073 7.09483 49.1456 4.93661 49.3334C6.05683 48.9599 6.72999 48.7366 7.77312 48.3908C6.91498 48.3671 6.50902 48.3573 6.10307 48.3454C6.05683 46.982 11.3599 47.1006 11.3804 45.5751C9.49456 45.9683 8.81627 47.1756 6.59638 46.5137C5.41964 47.0274 4.43302 47.4621 3.21517 47.9937C1.50915 46.3734 3.5389 44.3817 6.37542 44.3461C6.19557 44.1465 6.01572 43.945 5.73823 43.6387C6.57069 43.7296 7.1051 43.7869 7.6498 43.8462C7.93756 43.5083 8.19963 43.202 8.45656 42.8977C5.29631 42.3188 4.20692 41.5047 5.08049 40.4219C8.09172 40.4001 8.87279 40.1018 8.28699 39.1474C8.90362 39.013 9.55109 38.8708 10.178 38.7324C9.81829 38.3708 9.48942 38.0369 9.0732 37.62C10.1574 37.5726 10.9591 37.537 11.735 37.5014C12.0844 36.221 11.9765 36.1222 10.2602 36.1716L10.3116 36.1933C11.4318 34.4387 9.2068 33.1662 6.12877 32.0518C5.70226 31.8976 4.67454 31.9905 4.68481 31.9905C3.88319 31.3977 3.29225 30.9116 2.58312 30.4513C1.67358 29.8585 0.789742 29.2736 1.96649 28.4635C2.86574 28.5148 4.25317 28.6077 5.65088 28.6709C6.77623 28.7203 7.91187 28.7342 9.08861 28.5425C9.94162 28.6867 10.7895 28.831 11.6425 28.9752C11.7453 28.831 11.8429 28.6887 11.9457 28.5445C8.40004 28.2896 4.85439 28.0347 1.3036 27.7798C2.3673 26.8946 6.65291 27.2977 6.66318 25.9757C5.08049 25.8078 3.54918 25.705 2.13092 25.4857C-1.01905 24.9977 4.47927 24.1737 1.80719 23.5671C2.63451 23.7429 3.46696 23.9188 4.94175 24.231C4.4433 23.4129 4.31997 22.7589 3.62112 22.2155C3.05587 21.7769 1.79177 21.4745 1.16486 20.9766C2.21828 21.0833 3.27683 21.188 4.28914 21.2908C4.33025 21.5062 4.3765 21.7591 4.4433 22.1286C5.52241 21.605 6.46792 21.1465 7.26954 20.7553C8.3281 20.7039 9.31985 20.6545 10.3116 20.6071C6.43708 19.6172 5.95405 17.4634 9.38665 16.6276C9.05264 16.6058 8.70321 16.5841 8.35379 16.5624C8.34351 16.4576 8.33323 16.3529 8.32296 16.2502C9.70525 16.1948 11.0875 16.0802 12.4595 16.102C13.775 16.1217 15.07 16.2837 16.3752 16.3825C16.442 16.2936 16.5088 16.2027 16.5756 16.1138C14.9775 15.9221 13.3742 15.7285 11.7247 15.5289C11.4575 14.7662 11.1749 13.9699 10.8512 13.061C12.5983 13.0926 14.4431 13.1262 16.2878 13.1578C16.3084 13.0511 16.3238 12.9444 16.3443 12.8397C15.6712 12.8397 14.9775 12.8772 14.33 12.8318C13.3434 12.7606 12.3568 12.6618 11.4267 12.5176C10.661 12.399 9.98787 12.1955 9.2736 12.0295C7.48536 12.0295 5.50186 12.0295 3.38474 12.0295C5.91294 11.0594 2.50604 10.8321 1.56567 10.5752C-0.361309 10.0496 0.913068 9.61494 1.21111 9.15454C1.36527 8.9115 1.92024 8.70798 2.58826 8.31082C3.33336 8.72774 4.28914 9.26322 5.69712 10.0516C5.26034 8.51829 7.32607 8.57757 9.30957 8.67834C10.0341 9.23358 10.7073 9.75325 11.4986 10.3618C10.6302 10.6187 9.39179 10.9862 8.15852 11.3538C8.3949 11.4684 8.62614 11.583 8.86251 11.6956C10.2242 11.3044 11.586 10.9131 12.3157 10.7057C12.1718 9.67619 12.0587 8.88384 11.9457 8.09149L11.848 8.11717C12.6445 8.17645 13.5027 8.32662 14.2272 8.26339C14.7103 8.2219 15.3474 7.8682 15.332 7.66073C15.2447 6.46726 16.5242 6.06022 19.6999 6.26967C20.2034 6.30326 20.8304 6.05824 21.4007 5.94166C21.3031 5.86262 21.2055 5.78161 21.1027 5.70257C21.9249 5.70257 22.7471 5.70257 23.708 5.70257C24.1293 5.31924 24.5353 4.94776 25.1725 4.36486C23.9855 4.73238 23.3842 5.05446 22.6237 5.12757C20.0955 5.37456 17.5108 5.53462 14.9518 5.72628L15.034 5.74802C14.032 5.55042 13.0299 5.35283 12.1204 5.17302C12.2026 4.86082 12.3002 4.48144 12.3979 4.10206C12.218 4.08032 12.033 4.06056 11.8532 4.03883C11.5551 4.19888 11.2622 4.36091 10.7227 4.65335C10.3065 4.38462 9.52026 3.9835 9.64358 3.93608C10.6148 3.56855 11.7607 3.27019 13.4256 2.78015C12.5109 4.40042 15.3269 3.6219 16.6167 4.1475C16.1491 3.55867 15.8716 3.21288 15.5941 2.86709C15.7534 2.8335 15.9178 2.79794 16.0771 2.76434C17.0226 3.27216 17.9733 3.78195 18.8931 4.27396C20.0185 4.24433 21.1592 4.21271 22.9783 4.16529C20.9383 3.8274 19.4327 3.57646 17.9322 3.32749C18.0298 3.23659 18.1223 3.1457 18.2199 3.05481C18.5745 3.12792 18.9239 3.20103 19.299 3.28007C19.0421 2.6695 14.3351 2.12809 9.80802 2.21701C10.1729 1.96804 10.476 1.75661 10.7689 1.55704C12.0125 1.68746 13.1224 1.80206 14.2272 1.91864C14.3094 1.84948 14.3968 1.78032 14.479 1.70919C14.1142 1.52938 13.7339 1.34759 13.3228 1.14802C14.5201 0.889174 15.6095 0.652061 16.6989 0.416924C16.8531 0.488058 17.0124 0.561168 17.1665 0.632302C16.5602 0.97414 15.9589 1.314 15.3526 1.65584C15.4451 1.73093 15.5376 1.80601 15.6301 1.8811C16.8839 1.66177 18.1326 1.44244 19.7821 1.15197C21.8221 1.40292 21.2106 2.16366 21.1078 3.00343C21.5343 2.79003 21.9557 2.57465 22.4285 2.33556C22.8601 2.89871 23.2661 3.43221 23.7748 4.10008C25.563 3.98745 27.4489 3.7286 29.2628 3.78986C32.048 3.88273 32.1148 2.97972 33.5022 2.57268C33.3891 2.49562 33.2761 2.41855 33.163 2.34347C32.233 2.4561 31.2926 2.56082 30.3676 2.68333C28.343 2.95206 26.8066 2.68135 26.5599 1.94038C26.4931 1.7329 27.0738 1.49381 27.3564 1.26856C27.8189 1.41675 28.2814 1.56495 28.7387 1.71314C28.7592 1.67955 28.7747 1.64794 28.7952 1.61435C29.5146 1.75464 30.2238 2.00361 30.9534 2.01349C32.6081 2.03522 34.273 1.9384 35.9328 1.889C35.9841 1.76649 36.0355 1.64398 36.0818 1.52148C35.1465 1.21916 34.2113 0.916838 33.1733 0.580927C35.5063 0.733075 36.2102 1.05713 36.8063 1.88703C36.9913 2.14192 38.0653 2.28617 38.6203 2.5213C39.2677 2.79794 39.7919 3.11804 40.3674 3.41838C39.5195 3.60017 38.6871 3.79579 37.8135 3.95979C37.1455 4.08427 36.4312 4.16924 35.7323 4.27396C35.3058 3.64957 37.0581 2.80781 33.903 2.21306C34.3809 3.19905 34.7509 3.95386 35.239 4.96357C37.8649 4.45773 40.6243 3.9262 43.3067 3.4085C42.8545 3.15558 42.2533 2.90266 42.3458 2.85721C42.726 2.67345 43.2656 2.46598 43.8257 2.42251C45.8606 2.27036 47.916 2.12809 49.9766 2.0945C50.7423 2.08264 51.5439 2.37706 52.217 2.61615C52.9673 2.76434 51.7237 1.53333 53.8203 2.28814C54.0156 2.3573 54.9302 2.15773 55.4698 2.05103C56.7493 1.79811 57.9826 1.50764 59.2775 1.26856C61.2867 0.899054 63.3113 0.543384 65.377 0.221306C65.7881 0.156099 66.3894 0.270704 66.9032 0.302319V0.298367C66.3123 0.798281 65.7162 1.29819 65.1972 1.73488C66.8518 1.80206 68.2855 1.85936 69.8785 1.92259C69.7706 2.1518 69.6421 2.42646 69.5547 2.62405C71.4458 2.82955 73.2802 3.02912 75.2637 3.2445C76.1476 2.05103 79.0972 3.10816 80.9882 2.63986C78.0386 1.78625 79.9399 0.916837 80.351 0C81.9439 1.1994 83.4393 2.32371 84.9295 3.44802C85.1864 3.41048 85.4434 3.37096 85.6951 3.33342C85.3303 2.83153 84.9655 2.33161 84.4208 1.58471C85.5359 1.95223 86.2604 2.18934 87.1494 2.48178C87.1494 2.22491 87.1494 2.02732 87.1494 1.50369C88.8657 2.13599 90.0732 2.63393 91.4247 3.06074C92.6477 3.44604 94.0351 3.75232 95.5202 4.025C94.2201 3.3018 91.1524 3.00146 92.401 1.80404C89.1586 1.54519 88.8451 1.39699 89.2305 0.0987971C89.9037 0.407044 90.3045 0.590807 90.8029 0.820016C92.8019 0.0810137 94.2664 1.09665 96.1265 1.18754C98.8757 1.31993 98.9014 1.96014 98.8192 2.79201C99.0247 2.63196 99.2303 2.47388 99.4153 2.32766C100.582 2.48376 101.743 2.63986 102.894 2.79398C103.757 1.84948 106.537 1.23101 108.536 1.5274C109.163 1.62027 110.001 1.89098 110.052 2.10438C110.278 3.08445 111.763 2.86907 113.326 2.66357C113.695 2.89476 114.05 3.11606 114.394 3.33144C115.468 3.20498 116.506 3.08247 117.698 2.94415C117.75 3.37096 117.786 3.69106 117.827 4.06451C119.394 3.97165 120.802 3.88866 122.215 3.80567C122.184 3.71082 122.149 3.61795 122.118 3.52311C120.931 3.59622 119.749 3.66933 118.146 3.7701C119.379 2.86314 120.396 2.11821 121.784 1.09862C122.179 1.72105 122.39 2.04905 122.601 2.37508C122.596 2.37508 122.678 2.37311 122.703 2.3573C122.745 2.32964 122.724 2.28814 122.765 2.26245C122.935 2.16959 123.12 2.08067 123.772 1.75266C123.598 2.5055 123.49 2.96984 123.366 3.50335C125.185 3.43221 127.292 3.51718 128.983 3.23462C130.802 2.93032 132.236 2.28024 133.983 1.73685C133.839 1.59261 133.613 1.36538 133.279 1.03539C134.728 1.15 135.93 1.24484 137.128 1.33969C137.616 0.713315 142.251 -0.0573024 143.001 0.412972C143.582 0.776546 142.965 1.41873 142.914 1.9384C142.878 2.27629 142.909 2.61615 143.407 2.94613C142.986 3.24252 142.559 3.53891 142.138 3.83333C142.487 3.89063 142.837 3.94596 143.186 4.00326C143.921 2.92044 144.661 1.83565 145.396 0.752834C145.771 0.735051 146.146 0.717267 146.516 0.699484C147.194 1.24682 147.878 1.79613 148.556 2.34149C148.988 2.08067 151.094 2.60034 151.202 1.68943C151.249 1.29622 152.117 0.916837 152.821 0.369501C153.299 0.476202 154.013 0.636254 154.542 0.75481C155.216 0.683676 156.027 0.598711 157.358 0.460395C156.577 0.908934 156.161 1.14802 155.889 1.30215C156.726 1.37526 157.487 1.44046 158.247 1.50567C157.348 1.80996 156.444 2.11426 155.092 2.5707C157.276 2.46202 159.162 2.36916 161.043 2.27629C161.063 2.2091 161.079 2.14192 161.099 2.07474C160.477 2.03917 159.856 2.00163 158.879 1.94433C161.891 0.654037 163.458 2.32964 165.611 2.17947C165.611 2.81177 165.611 3.37886 165.611 3.94596C166.87 2.7841 168.905 2.10833 172.178 2.2506C174.187 2.33754 176.33 2.48178 178.026 2.85919C178.74 3.01924 178.55 3.84519 178.576 4.37079C178.591 4.73041 178.267 5.092 178.098 5.45163C178.344 5.47336 178.596 5.4951 178.843 5.51486C179.295 5.00111 179.752 4.48737 180.205 3.97362C181.248 3.87482 182.286 3.77405 183.093 3.69699C183.093 3.2445 183.093 2.84536 183.093 2.45215C177.928 2.65172 177.692 2.61615 177.846 1.82182C178.545 1.89295 179.47 2.11228 179.901 2.01349C182.553 1.40687 183.498 1.47208 184.757 2.49364C185.02 2.70507 185.148 2.9402 185.364 3.19708C184.953 3.29982 184.49 3.41838 184.028 3.53496C184.069 3.60017 184.11 3.66735 184.151 3.73256C185.097 3.69304 186.042 3.65154 187.121 3.6061C187.224 3.89063 187.363 4.28187 187.501 4.6731C187.645 4.67508 187.789 4.67508 187.933 4.67706C188.73 3.83728 189.526 2.99751 190.328 2.15773C190.009 2.09845 189.696 2.03917 189.377 1.97989C191.489 1.74673 192.62 1.16976 193.735 0.517697C194.788 -0.0987971 196.592 0.250945 198.051 0.397165C198.781 0.470274 199.418 0.683676 200.528 0.928693C198.95 1.21323 197.568 1.46022 196.181 1.70919C196.211 1.76254 196.242 1.81589 196.273 1.86924C197.357 1.86924 198.442 1.86924 199.526 1.86924L199.521 1.87122C199.706 2.26641 199.886 2.66357 200.05 3.01726C198.642 3.42826 196.227 3.00936 195.934 3.96769C195.148 3.70687 194.377 3.44012 193.575 3.1872C193.005 3.00541 192.399 2.83745 191.808 2.66357C191.617 2.74854 191.427 2.83548 191.237 2.92044C192.234 3.33737 193.174 3.77998 194.274 4.15146C194.49 4.23049 195.333 4.02697 195.883 3.95189ZM189.691 74.8171C187.106 74.4614 184.259 75.0819 184.208 75.6766C186.001 75.396 187.846 75.1076 189.691 74.8171ZM32.6954 76.5184C32.9215 76.4176 33.1425 76.3149 33.3686 76.2141C31.9812 75.7893 30.5937 75.3644 29.2063 74.9396C29.0881 74.9752 28.9699 75.0107 28.8517 75.0463C29.6225 75.5601 30.3882 76.0738 31.1847 76.6073C31.4673 76.5915 32.0839 76.554 32.6954 76.5184ZM212.29 12.324C212.311 12.4405 212.331 12.5551 212.352 12.6717C213.868 12.6263 215.384 12.5808 216.894 12.5334C216.843 12.3655 216.792 12.1955 216.74 12.0276C215.255 12.1264 213.77 12.2252 212.29 12.324Z" fill="url(#paint0_linear_2523_470)"/>
<defs>
<linearGradient id="paint0_linear_2523_470" x1="-30.6021" y1="50.5141" x2="264.021" y2="71.5403" gradientUnits="userSpaceOnUse">
<stop stop-color="#F8C522"/>
<stop offset="0.1875" stop-color="#FFEFBA"/>
<stop offset="0.515124" stop-color="#FFD653"/>
<stop offset="0.756211" stop-color="#FFEEB7"/>
<stop offset="1" stop-color="#FFC200"/>
</linearGradient>
</defs>
</svg>
