<?xml version="1.0" standalone="no"?>
<!DOCTYPE svg PUBLIC "-//W3C//DTD SVG 20010904//EN"
 "http://www.w3.org/TR/2001/REC-SVG-20010904/DTD/svg10.dtd">
<svg version="1.0" xmlns="http://www.w3.org/2000/svg"
 width="1226.000000pt" height="1162.000000pt" viewBox="0 0 1226.000000 1162.000000"
 preserveAspectRatio="xMidYMid meet">

<g transform="translate(0.000000,1162.000000) scale(0.100000,-0.100000)"
fill="#000000" stroke="none">
<path d="M0 5810 l0 -5810 6130 0 6130 0 0 5810 0 5810 -6130 0 -6130 0 0
-5810z m4943 4906 c18 -8 83 -48 145 -89 127 -85 180 -103 276 -94 33 3 94 20
135 37 95 39 245 80 294 80 58 0 104 -25 166 -89 114 -118 136 -115 382 51
201 137 241 138 494 14 183 -91 360 -161 441 -175 72 -13 136 -4 220 34 51 23
68 26 130 22 45 -3 95 -15 135 -32 139 -58 144 -58 178 20 21 47 45 65 88 65
15 0 48 12 73 26 l45 26 290 -6 c160 -3 319 -10 355 -16 305 -50 605 -235 767
-476 84 -124 170 -313 207 -456 62 -238 74 -609 27 -842 -29 -142 -81 -314
-138 -451 -67 -164 -67 -158 -39 -255 81 -280 106 -418 145 -795 68 -646 77
-979 60 -2285 -11 -940 -11 -1039 5 -1340 26 -471 35 -529 85 -545 35 -11 69
-63 96 -149 15 -46 37 -95 49 -109 19 -22 194 -164 456 -367 52 -41 114 -95
137 -120 51 -57 112 -90 228 -125 269 -82 418 -180 528 -351 184 -284 146
-597 -102 -845 -93 -93 -164 -133 -342 -193 -220 -75 -446 -111 -547 -86 -64
15 -131 -3 -247 -65 -177 -96 -331 -128 -620 -129 -171 0 -214 3 -299 22 -203
45 -429 133 -542 210 -73 49 -187 166 -243 250 -71 105 -19 98 -595 83 -906
-23 -1192 -18 -1641 29 -224 24 -197 19 -455 80 -378 91 -383 91 -1150 80
-366 -6 -694 -12 -730 -15 -36 -3 -213 -15 -393 -26 -181 -11 -334 -22 -341
-25 -19 -7 -32 -40 -47 -113 -65 -330 -441 -574 -984 -637 -392 -46 -647 31
-1105 334 -298 197 -464 459 -463 732 0 183 67 372 204 581 99 150 240 295
619 634 161 144 390 364 500 481 57 60 294 330 386 439 81 96 281 371 320 440
6 11 37 65 69 120 68 118 204 388 216 427 4 15 -2 197 -13 405 -17 300 -21
510 -22 1013 -1 701 -1 697 69 1130 87 529 90 562 76 753 -16 219 -17 587 -2
697 36 264 88 501 143 644 62 163 184 372 295 506 117 143 303 304 472 409 71
45 351 191 365 191 3 0 37 15 78 34 126 58 452 204 468 209 30 11 111 7 143
-7z"/>
<path d="M8450 10465 c0 -3 67 -126 148 -273 82 -147 167 -301 189 -342 23
-41 64 -118 93 -170 29 -52 116 -225 195 -385 143 -290 164 -335 298 -625 39
-85 87 -188 107 -228 l36 -74 41 99 c41 98 86 257 119 428 37 184 8 550 -61
797 -45 161 -141 339 -232 433 -85 88 -196 167 -317 226 -121 60 -197 83 -339
103 -102 15 -277 22 -277 11z"/>
<path d="M3910 10132 c-333 -201 -567 -502 -699 -897 -76 -229 -110 -438 -110
-680 0 -149 5 -155 33 -35 49 208 127 440 221 655 145 334 319 603 623 963 24
28 41 52 36 52 -5 0 -52 -26 -104 -58z"/>
<path d="M4108 10075 c-190 -148 -609 -815 -718 -1143 -51 -152 -35 -150 59 5
47 76 99 161 117 188 28 44 148 241 193 317 9 15 103 170 210 343 106 174 191
318 189 321 -3 2 -25 -12 -50 -31z"/>
<path d="M2823 4328 c-12 -13 -51 -77 -88 -142 -94 -169 -489 -694 -654 -869
-120 -129 -354 -360 -447 -442 -43 -39 -105 -95 -139 -125 -33 -30 -92 -82
-130 -115 -37 -33 -73 -65 -79 -71 -6 -5 -43 -38 -82 -72 -122 -104 -374 -424
-444 -561 -60 -119 -91 -304 -71 -416 6 -33 28 -96 50 -140 108 -219 306 -394
616 -545 258 -125 390 -156 630 -146 285 12 425 44 639 145 120 56 174 91 234
152 83 84 149 264 109 297 -22 18 -107 30 -276 38 -171 8 -182 5 -241 -74 -69
-91 -162 -182 -250 -242 -131 -89 -158 -100 -265 -100 -169 0 -253 39 -401
185 -157 154 -212 342 -174 585 27 168 130 421 278 685 117 208 293 461 461
660 76 91 351 370 492 500 l76 70 6 91 c7 102 34 195 76 269 15 28 40 71 55
98 16 26 34 71 42 100 15 56 19 207 6 207 -5 0 -18 -10 -29 -22z"/>
<path d="M2422 3155 c-252 -254 -340 -363 -540 -660 -109 -163 -225 -386 -307
-590 -85 -213 -110 -360 -81 -495 41 -193 148 -295 352 -337 166 -34 311 27
449 188 69 81 63 108 -40 159 -71 35 -142 108 -151 155 -17 93 20 257 171 745
129 420 155 482 222 525 104 69 163 163 184 295 13 84 7 226 -11 244 -8 8 -71
-50 -248 -229z"/>
<path d="M9995 2666 c-9 -87 6 -141 46 -162 49 -25 211 -82 298 -104 149 -38
155 -45 -154 193 -44 34 -84 65 -90 69 -35 28 -88 68 -90 68 -2 0 -6 -29 -10
-64z"/>
<path d="M10300 2252 c0 -2 20 -31 44 -65 24 -34 55 -84 69 -112 69 -138 125
-369 111 -463 -19 -134 -110 -233 -251 -271 -23 -6 -174 -27 -335 -46 -412
-49 -394 -44 -357 -84 56 -60 305 -151 525 -191 127 -24 205 -25 242 -6 22 12
126 119 218 226 12 14 39 45 61 70 156 180 207 296 206 470 0 79 -5 109 -30
182 -31 90 -96 203 -123 214 -21 8 -380 81 -380 76z"/>
<path d="M10890 2115 c0 -3 16 -52 35 -110 32 -94 36 -118 36 -209 0 -142 -30
-264 -97 -399 -29 -58 -108 -172 -127 -184 -25 -16 -187 -206 -187 -219 0 -27
205 -10 367 31 265 67 453 267 470 500 11 148 -46 286 -168 407 -66 66 -94 85
-192 133 -106 51 -137 62 -137 50z"/>
<path d="M2463 1921 c-47 -22 -90 -79 -104 -138 -11 -47 10 -125 45 -167 l24
-29 28 44 c43 68 85 109 111 109 13 0 49 -9 80 -20 31 -11 60 -17 64 -14 15 9
9 88 -10 129 -22 48 -44 69 -94 90 -48 20 -93 19 -144 -4z"/>
<path d="M10045 1925 c-37 -17 -65 -39 -65 -51 1 -5 25 -26 55 -47 78 -54 72
-83 -25 -125 -67 -29 -77 -44 -51 -81 48 -67 149 -94 219 -57 138 72 138 288
0 355 -51 24 -90 26 -133 6z"/>
<path d="M8850 1218 c-107 -5 -213 -12 -235 -16 -71 -13 -61 -35 77 -166 186
-177 192 -179 643 -252 255 -40 379 -43 522 -9 82 19 210 66 215 79 2 7 -184
75 -366 133 -46 15 -135 64 -181 99 -28 21 -81 62 -120 91 l-70 53 -145 -2
c-80 0 -233 -5 -340 -10z"/>
</g>
</svg>
