<?xml version="1.0" standalone="no"?>
<!DOCTYPE svg PUBLIC "-//W3C//DTD SVG 20010904//EN"
 "http://www.w3.org/TR/2001/REC-SVG-20010904/DTD/svg10.dtd">
<svg version="1.0" xmlns="http://www.w3.org/2000/svg"
 width="602.000000pt" height="818.000000pt" viewBox="0 0 602.000000 818.000000"
 preserveAspectRatio="xMidYMid meet">

<g transform="translate(0.000000,818.000000) scale(0.100000,-0.100000)"
fill="#000000" stroke="none">
<path d="M4854 8093 c-12 -34 -27 -59 -37 -61 -14 -3 -15 4 -10 48 l6 51 -37
-22 c-37 -22 -39 -22 -91 -5 -41 13 -72 15 -133 10 -50 -4 -92 -3 -111 4 -56
20 -67 6 -44 -54 7 -19 -28 -26 -42 -8 -9 13 -16 14 -33 5 -11 -6 -32 -11 -46
-11 -22 0 -26 5 -26 29 0 42 -12 44 -56 11 l-39 -29 -36 35 -35 34 -153 -20
c-85 -12 -169 -21 -187 -22 -23 -1 -35 -7 -43 -25 -14 -30 -38 -29 -98 2 -28
16 -60 25 -78 23 -25 -3 -32 -10 -49 -53 -11 -27 -21 -51 -22 -53 -1 -2 -22
17 -46 41 -72 71 -143 84 -209 36 l-30 -21 -20 26 c-24 30 -59 34 -81 9 -12
-14 -38 -58 -55 -91 -1 -2 -11 1 -22 8 -17 9 -30 7 -66 -9 -44 -19 -45 -21
-46 -68 0 -26 -4 -69 -7 -95 l-7 -48 -52 30 -52 30 16 37 c17 42 14 123 -7
148 -7 8 -23 15 -36 15 -19 0 -26 7 -31 31 -6 31 -6 31 -60 27 -36 -3 -60 -11
-76 -26 -29 -28 -50 -28 -88 0 l-30 22 -48 -27 c-63 -35 -76 -34 -116 6 l-33
33 -11 -38 c-14 -45 -27 -56 -36 -28 -4 12 -15 20 -29 20 -34 0 -55 21 -58 60
l-3 35 -67 -68 c-61 -64 -69 -68 -98 -62 -37 8 -72 -12 -100 -58 -19 -31 -20
-31 -20 -7 0 44 -13 54 -60 46 -23 -4 -47 -2 -54 3 -7 6 -32 1 -71 -14 -33
-13 -80 -30 -105 -38 -25 -8 -65 -23 -90 -33 -48 -18 -81 -15 -115 9 -19 14
-17 17 28 58 34 32 49 52 50 74 3 44 -25 43 -75 -3 -25 -24 -56 -42 -73 -44
-24 -2 -31 -10 -40 -38 -16 -56 -25 -65 -40 -42 -14 19 -117 48 -134 38 -5 -4
-15 -22 -21 -41 -6 -19 -15 -35 -19 -35 -5 0 -23 32 -40 72 l-33 72 -29 -50
c-15 -27 -34 -61 -40 -76 -12 -28 -27 -35 -44 -20 -6 5 -28 19 -49 32 l-39 24
6 -47 c5 -36 3 -47 -7 -47 -31 0 -65 42 -86 106 -22 65 -23 66 -52 60 -17 -3
-46 -6 -65 -6 -23 0 -42 -8 -59 -25 l-26 -26 -54 31 c-30 18 -54 30 -54 28 0
-2 9 -36 19 -75 l19 -73 -43 0 c-47 0 -55 9 -55 65 0 44 -12 50 -39 21 -21
-22 -24 -23 -51 -9 -25 12 -33 12 -62 -1 -18 -7 -42 -21 -53 -30 -19 -15 -19
-15 12 -16 l31 0 -28 -67 c-26 -62 -27 -69 -13 -85 14 -16 14 -22 -6 -71 -35
-85 -51 -156 -57 -252 -8 -110 3 -265 19 -270 7 -2 32 -9 56 -15 l44 -12 -57
-57 c-54 -55 -56 -58 -56 -111 0 -40 7 -67 25 -99 14 -24 22 -47 17 -50 -4 -3
-19 -14 -32 -23 l-24 -18 33 -34 33 -34 -26 -65 c-33 -84 -33 -118 4 -194 l29
-63 34 20 c42 25 65 12 74 -43 l6 -37 -37 0 -36 0 15 -36 c8 -20 15 -38 15
-40 0 -3 -23 7 -50 21 l-51 26 5 -23 c3 -13 13 -88 21 -168 9 -80 20 -156 24
-169 7 -23 9 -20 21 23 12 46 14 47 44 40 60 -12 60 -16 1 -94 -30 -40 -55
-76 -55 -79 0 -3 9 -34 20 -68 26 -85 36 -183 20 -213 -11 -20 -8 -27 32 -67
l43 -44 -29 -25 c-30 -27 -49 -21 -61 17 -10 30 -24 22 -45 -23 -28 -61 -25
-107 14 -201 44 -106 56 -180 55 -342 l-1 -130 -33 70 -34 70 0 -77 c-1 -66 2
-78 15 -78 15 0 16 -9 10 -72 -4 -40 -9 -123 -13 -184 -6 -111 -6 -111 26
-171 28 -51 30 -63 21 -88 -14 -37 -7 -55 19 -48 19 5 21 1 21 -39 0 -43 2
-46 40 -63 23 -10 43 -22 46 -26 4 -7 -23 -118 -31 -127 -2 -2 -17 4 -33 12
-30 15 -31 15 -38 -7 -12 -37 -6 -69 25 -146 17 -41 31 -78 31 -83 0 -4 -12
-14 -26 -20 -18 -9 -24 -17 -20 -32 3 -12 8 -33 11 -48 6 -24 3 -29 -27 -44
-31 -14 -36 -22 -48 -82 -8 -37 -14 -99 -14 -139 -1 -60 3 -77 22 -103 l23
-31 -18 -52 c-27 -79 -25 -232 5 -319 22 -62 22 -69 8 -90 -23 -32 -20 -57 15
-108 l30 -45 -26 -21 c-22 -18 -25 -25 -17 -41 19 -34 36 -42 138 -59 54 -10
102 -20 107 -24 4 -3 0 -28 -8 -56 -8 -27 -15 -50 -15 -51 0 -1 10 -7 21 -14
15 -8 24 -8 28 -1 4 6 27 20 51 31 42 19 45 19 52 3 4 -9 7 -29 7 -44 1 -15 6
-48 13 -72 17 -66 3 -90 -77 -128 -60 -28 -72 -30 -133 -24 -37 4 -92 9 -123
12 l-56 6 -6 -93 c-16 -225 -8 -280 49 -324 17 -14 18 -16 3 -28 -11 -8 -16
-28 -16 -62 0 -28 -3 -68 -8 -91 -6 -37 -4 -44 24 -77 l32 -36 -28 -15 c-57
-31 -56 -27 -17 -110 36 -75 37 -80 31 -162 l-6 -84 34 0 c28 0 40 8 71 45 20
25 39 45 43 45 8 0 52 -122 47 -128 -3 -2 -30 4 -61 13 -50 14 -58 14 -68 1
-7 -8 -32 -40 -56 -70 l-44 -56 -5 -114 -5 -114 42 -7 c22 -4 44 -11 47 -17 4
-5 -4 -32 -16 -59 l-23 -49 27 -50 c24 -44 26 -54 16 -83 -17 -50 -38 -73 -52
-59 -24 24 -28 11 -7 -29 l21 -42 24 29 23 29 1 -39 c0 -29 3 -37 14 -33 8 3
30 9 49 12 33 7 35 9 41 62 6 53 39 133 54 133 4 0 24 -16 45 -36 l38 -35 -25
-20 c-15 -11 -26 -28 -26 -38 0 -35 31 -122 46 -128 8 -3 32 6 54 21 22 14 43
26 48 26 5 0 6 -22 2 -50 l-6 -50 38 0 c29 0 41 6 54 25 21 32 38 32 76 0 34
-29 54 -31 78 -10 15 13 24 12 88 -9 l71 -24 17 51 c17 51 17 51 27 24 7 -22
14 -27 35 -25 24 3 28 -2 41 -42 8 -25 15 -46 17 -48 1 -2 34 14 72 35 l70 38
-19 35 c-22 42 -24 99 -5 126 14 19 15 18 41 -6 15 -14 41 -52 57 -85 63 -125
90 -132 200 -53 14 10 22 10 37 1 31 -19 61 17 61 72 0 25 2 45 4 45 2 0 37
-34 77 -75 l73 -76 13 26 c17 31 16 31 60 1 38 -26 49 -25 103 11 19 13 38 23
42 23 4 0 21 -20 38 -45 17 -25 37 -45 45 -45 8 0 34 17 59 39 l44 39 -25 11
c-15 7 -23 18 -21 29 4 23 121 53 211 54 37 1 67 5 67 9 0 5 0 12 0 17 0 4
-21 14 -48 23 l-47 16 -3 57 c-2 36 1 57 7 55 5 -2 46 -37 90 -76 44 -40 83
-73 87 -73 3 0 29 16 56 36 28 19 52 34 54 32 2 -3 7 -29 12 -59 l8 -54 12 78
c7 43 12 89 12 102 0 38 15 30 29 -15 8 -28 22 -47 44 -60 18 -11 34 -20 37
-20 3 0 23 23 44 51 l39 50 33 -32 c19 -18 34 -36 34 -40 0 -4 -20 -15 -45
-25 -25 -9 -45 -20 -45 -23 0 -4 20 -26 44 -50 29 -29 46 -39 51 -31 5 7 17 9
34 4 43 -12 62 -7 116 31 96 65 153 64 229 -4 22 -20 66 -49 97 -64 30 -15 61
-38 68 -51 13 -24 15 -24 58 -11 50 15 115 57 143 92 24 30 28 29 32 -9 2 -24
9 -34 32 -41 21 -7 30 -6 37 4 11 19 16 11 29 -46 17 -72 33 -100 58 -103 33
-5 48 12 61 65 24 95 82 133 149 99 29 -15 31 -15 49 7 10 13 28 29 39 35 21
11 26 10 95 -35 49 -33 92 -29 177 14 69 36 74 37 84 20 9 -17 11 -17 28 -2
10 9 36 19 58 22 38 5 41 3 57 -27 12 -23 16 -49 13 -85 l-4 -52 41 -10 c29
-7 42 -6 42 1 0 12 78 141 98 164 9 10 25 -6 75 -73 36 -47 71 -85 78 -85 7 0
18 11 24 25 15 32 24 32 58 -5 15 -16 35 -30 44 -30 23 0 146 148 146 176 0
18 7 25 28 30 15 3 52 12 83 20 73 18 69 19 69 -16 l0 -30 63 0 c73 0 109 16
117 50 6 23 9 20 30 -28 22 -50 24 -52 35 -33 6 12 21 28 33 37 27 19 28 39 2
87 -23 43 -26 84 -6 112 10 16 11 35 4 89 -5 37 -8 79 -6 93 3 24 4 24 63 -21
l60 -45 8 36 c4 20 3 41 -2 47 -4 6 -19 42 -31 81 -18 55 -34 80 -75 121 l-51
52 33 26 c48 39 51 66 13 126 -28 44 -32 57 -28 101 3 27 8 52 11 56 10 9 157
-47 157 -60 0 -6 6 -2 14 9 20 27 24 17 17 -49 -7 -55 3 -81 14 -34 16 75 26
152 18 154 -4 2 -23 12 -40 23 -28 17 -33 26 -33 58 0 42 14 61 71 95 l36 22
-25 88 c-25 86 -27 89 -53 83 -14 -3 -50 -8 -79 -12 l-53 -7 19 32 c10 17 43
62 72 99 30 37 61 83 69 102 24 55 19 121 -12 179 -20 37 -26 58 -22 80 6 28
4 31 -28 37 -18 3 -39 3 -44 -1 -22 -13 -50 6 -56 38 -10 47 -32 67 -75 67
-67 0 -88 34 -82 138 2 30 4 32 42 32 32 0 43 -5 62 -30 12 -16 27 -30 34 -30
7 0 29 25 49 55 21 30 41 57 45 60 5 3 2 24 -6 48 -30 84 -29 144 4 242 52
159 63 230 30 197 -19 -19 -31 -14 -25 10 7 25 -5 52 -43 93 -15 17 -43 61
-63 98 -34 66 -35 71 -25 121 14 67 5 103 -32 124 -17 9 -30 20 -30 24 0 4 23
33 51 64 46 51 50 60 44 90 -6 33 -5 34 27 35 30 0 29 2 -22 20 -62 22 -80 40
-80 80 0 19 6 30 21 34 19 6 19 8 5 24 -23 25 -20 54 8 80 l24 22 -24 24 c-31
31 -31 69 2 102 30 30 39 23 49 -39 8 -45 17 -48 34 -11 11 24 9 29 -19 58
-16 17 -30 36 -30 42 0 5 18 31 40 56 45 51 50 80 21 142 -53 117 -52 221 3
357 l35 88 -30 -16 c-57 -29 -67 10 -13 51 35 26 36 29 29 74 -3 25 -17 94
-31 153 -27 121 -29 175 -9 233 11 29 11 41 2 47 -6 4 -20 39 -32 79 l-20 73
-64 13 c-36 7 -66 15 -69 18 -2 2 5 16 17 31 11 15 21 38 21 53 1 23 2 24 13
10 11 -14 17 -15 59 -2 58 17 81 45 103 128 18 64 18 65 -5 117 -19 44 -21 61
-14 108 11 78 9 191 -4 216 -8 15 -8 30 0 58 9 27 8 49 -1 89 -21 83 -33 193
-36 317 -1 63 -6 136 -10 162 -12 73 38 238 72 238 9 0 -5 25 -33 61 -43 56
-46 65 -37 89 10 26 9 28 -28 39 -22 7 -39 13 -39 14 0 1 7 39 15 85 14 79 13
84 -7 118 -17 29 -20 46 -15 98 11 120 -22 105 -37 -16 -7 -56 -16 -67 -43
-50 -8 5 -5 40 12 137 14 72 27 140 30 152 4 18 0 22 -35 28 -31 5 -40 11 -40
27 0 18 6 19 70 16 58 -2 69 -1 65 12 -23 78 -15 87 30 40 44 -46 49 -36 10
21 -46 68 -51 90 -32 157 11 41 13 59 4 64 -25 16 -159 21 -200 7 -39 -13 -42
-12 -118 28 l-77 42 -23 -25 -23 -24 -31 30 -32 31 -51 -41 c-28 -22 -56 -40
-62 -40 -6 0 -37 13 -69 29 -45 23 -61 27 -70 18 -9 -9 -16 -6 -31 13 -20 25
-20 25 -20 3 0 -39 -28 -26 -40 17 -6 22 -12 40 -13 40 -1 0 -11 -26 -23 -57z
m-360 -76 c51 -66 53 -116 6 -145 -17 -11 -23 -6 -54 39 l-35 52 22 43 c11 24
24 44 28 44 5 0 19 -15 33 -33z m-3684 -285 c0 -16 -68 -82 -84 -82 -8 0 -8
64 0 84 4 11 19 16 45 16 31 0 39 -4 39 -18z m4794 -98 c13 -33 7 -74 -11 -74
-23 0 -73 49 -73 72 0 14 8 18 39 18 26 0 41 -5 45 -16z m28 -1381 c41 -43 78
-131 78 -185 0 -43 2 -48 23 -48 12 0 29 -4 37 -10 12 -7 12 -12 -4 -29 -11
-12 -26 -21 -35 -20 -29 1 -106 55 -120 83 -16 34 -28 236 -14 236 5 0 21 -12
35 -27z m113 -1273 c27 -54 32 -89 13 -108 -16 -16 -23 -15 -42 4 -18 18 -23
154 -6 154 5 0 21 -22 35 -50z m-317 -4554 c-2 -15 -14 -20 -55 -23 -46 -3
-56 -1 -78 21 -14 14 -25 33 -25 44 0 18 3 18 80 -2 68 -18 80 -24 78 -40z"/>
<path d="M5857 1122 c-18 -20 -22 -68 -8 -91 22 -34 61 18 61 80 0 34 -27 40
-53 11z"/>
</g>
</svg>
